<?xml version="1.0" encoding="utf-8"?>
<svg xmlns="http://www.w3.org/2000/svg" xmlns:xlink="http://www.w3.org/1999/xlink" width="600" height="400" viewBox="0 0 2400 1600">
<defs>
  <clipPath id="clip770">
    <rect x="0" y="0" width="2400" height="1600"/>
  </clipPath>
</defs>
<path clip-path="url(#clip770)" d="M0 1600 L2400 1600 L2400 8.88178e-14 L0 8.88178e-14  Z" fill="#000000" fill-rule="evenodd" fill-opacity="1"/>
<defs>
  <clipPath id="clip771">
    <rect x="480" y="0" width="1681" height="1600"/>
  </clipPath>
</defs>
<path clip-path="url(#clip770)" d="M255.977 1423.18 L2352.76 1423.18 L2352.76 47.2441 L255.977 47.2441  Z" fill="#30343b" fill-rule="evenodd" fill-opacity="1"/>
<defs>
  <clipPath id="clip772">
    <rect x="255" y="47" width="2098" height="1377"/>
  </clipPath>
</defs>
<polyline clip-path="url(#clip772)" style="stroke:#ffffff; stroke-linecap:round; stroke-linejoin:round; stroke-width:2; stroke-opacity:0.1; fill:none" points="307.408,1423.18 307.408,47.2441 "/>
<polyline clip-path="url(#clip772)" style="stroke:#ffffff; stroke-linecap:round; stroke-linejoin:round; stroke-width:2; stroke-opacity:0.1; fill:none" points="703.026,1423.18 703.026,47.2441 "/>
<polyline clip-path="url(#clip772)" style="stroke:#ffffff; stroke-linecap:round; stroke-linejoin:round; stroke-width:2; stroke-opacity:0.1; fill:none" points="1098.64,1423.18 1098.64,47.2441 "/>
<polyline clip-path="url(#clip772)" style="stroke:#ffffff; stroke-linecap:round; stroke-linejoin:round; stroke-width:2; stroke-opacity:0.1; fill:none" points="1494.26,1423.18 1494.26,47.2441 "/>
<polyline clip-path="url(#clip772)" style="stroke:#ffffff; stroke-linecap:round; stroke-linejoin:round; stroke-width:2; stroke-opacity:0.1; fill:none" points="1889.88,1423.18 1889.88,47.2441 "/>
<polyline clip-path="url(#clip772)" style="stroke:#ffffff; stroke-linecap:round; stroke-linejoin:round; stroke-width:2; stroke-opacity:0.1; fill:none" points="2285.5,1423.18 2285.5,47.2441 "/>
<polyline clip-path="url(#clip772)" style="stroke:#ffffff; stroke-linecap:round; stroke-linejoin:round; stroke-width:2; stroke-opacity:0.1; fill:none" points="307.408,1423.18 307.408,47.2441 "/>
<polyline clip-path="url(#clip772)" style="stroke:#ffffff; stroke-linecap:round; stroke-linejoin:round; stroke-width:2; stroke-opacity:0.1; fill:none" points="703.026,1423.18 703.026,47.2441 "/>
<polyline clip-path="url(#clip772)" style="stroke:#ffffff; stroke-linecap:round; stroke-linejoin:round; stroke-width:2; stroke-opacity:0.1; fill:none" points="1098.64,1423.18 1098.64,47.2441 "/>
<polyline clip-path="url(#clip772)" style="stroke:#ffffff; stroke-linecap:round; stroke-linejoin:round; stroke-width:2; stroke-opacity:0.1; fill:none" points="1494.26,1423.18 1494.26,47.2441 "/>
<polyline clip-path="url(#clip772)" style="stroke:#ffffff; stroke-linecap:round; stroke-linejoin:round; stroke-width:2; stroke-opacity:0.1; fill:none" points="1889.88,1423.18 1889.88,47.2441 "/>
<polyline clip-path="url(#clip772)" style="stroke:#ffffff; stroke-linecap:round; stroke-linejoin:round; stroke-width:2; stroke-opacity:0.1; fill:none" points="2285.5,1423.18 2285.5,47.2441 "/>
<polyline clip-path="url(#clip772)" style="stroke:#ffffff; stroke-linecap:round; stroke-linejoin:round; stroke-width:2; stroke-opacity:0.1; fill:none" points="255.977,1318.23 2352.76,1318.23 "/>
<polyline clip-path="url(#clip772)" style="stroke:#ffffff; stroke-linecap:round; stroke-linejoin:round; stroke-width:2; stroke-opacity:0.1; fill:none" points="255.977,1036.99 2352.76,1036.99 "/>
<polyline clip-path="url(#clip772)" style="stroke:#ffffff; stroke-linecap:round; stroke-linejoin:round; stroke-width:2; stroke-opacity:0.1; fill:none" points="255.977,755.739 2352.76,755.739 "/>
<polyline clip-path="url(#clip772)" style="stroke:#ffffff; stroke-linecap:round; stroke-linejoin:round; stroke-width:2; stroke-opacity:0.1; fill:none" points="255.977,474.492 2352.76,474.492 "/>
<polyline clip-path="url(#clip772)" style="stroke:#ffffff; stroke-linecap:round; stroke-linejoin:round; stroke-width:2; stroke-opacity:0.1; fill:none" points="255.977,193.244 2352.76,193.244 "/>
<polyline clip-path="url(#clip772)" style="stroke:#ffffff; stroke-linecap:round; stroke-linejoin:round; stroke-width:2; stroke-opacity:0.1; fill:none" points="255.977,1318.23 2352.76,1318.23 "/>
<polyline clip-path="url(#clip772)" style="stroke:#ffffff; stroke-linecap:round; stroke-linejoin:round; stroke-width:2; stroke-opacity:0.1; fill:none" points="255.977,1036.99 2352.76,1036.99 "/>
<polyline clip-path="url(#clip772)" style="stroke:#ffffff; stroke-linecap:round; stroke-linejoin:round; stroke-width:2; stroke-opacity:0.1; fill:none" points="255.977,755.739 2352.76,755.739 "/>
<polyline clip-path="url(#clip772)" style="stroke:#ffffff; stroke-linecap:round; stroke-linejoin:round; stroke-width:2; stroke-opacity:0.1; fill:none" points="255.977,474.492 2352.76,474.492 "/>
<polyline clip-path="url(#clip772)" style="stroke:#ffffff; stroke-linecap:round; stroke-linejoin:round; stroke-width:2; stroke-opacity:0.1; fill:none" points="255.977,193.244 2352.76,193.244 "/>
<polyline clip-path="url(#clip770)" style="stroke:#ffffff; stroke-linecap:round; stroke-linejoin:round; stroke-width:4; stroke-opacity:1; fill:none" points="255.977,1423.18 2352.76,1423.18 "/>
<polyline clip-path="url(#clip770)" style="stroke:#ffffff; stroke-linecap:round; stroke-linejoin:round; stroke-width:4; stroke-opacity:1; fill:none" points="255.977,47.2441 2352.76,47.2441 "/>
<polyline clip-path="url(#clip770)" style="stroke:#ffffff; stroke-linecap:round; stroke-linejoin:round; stroke-width:4; stroke-opacity:1; fill:none" points="307.408,1423.18 307.408,1404.28 "/>
<polyline clip-path="url(#clip770)" style="stroke:#ffffff; stroke-linecap:round; stroke-linejoin:round; stroke-width:4; stroke-opacity:1; fill:none" points="703.026,1423.18 703.026,1404.28 "/>
<polyline clip-path="url(#clip770)" style="stroke:#ffffff; stroke-linecap:round; stroke-linejoin:round; stroke-width:4; stroke-opacity:1; fill:none" points="1098.64,1423.18 1098.64,1404.28 "/>
<polyline clip-path="url(#clip770)" style="stroke:#ffffff; stroke-linecap:round; stroke-linejoin:round; stroke-width:4; stroke-opacity:1; fill:none" points="1494.26,1423.18 1494.26,1404.28 "/>
<polyline clip-path="url(#clip770)" style="stroke:#ffffff; stroke-linecap:round; stroke-linejoin:round; stroke-width:4; stroke-opacity:1; fill:none" points="1889.88,1423.18 1889.88,1404.28 "/>
<polyline clip-path="url(#clip770)" style="stroke:#ffffff; stroke-linecap:round; stroke-linejoin:round; stroke-width:4; stroke-opacity:1; fill:none" points="2285.5,1423.18 2285.5,1404.28 "/>
<polyline clip-path="url(#clip770)" style="stroke:#ffffff; stroke-linecap:round; stroke-linejoin:round; stroke-width:4; stroke-opacity:1; fill:none" points="307.408,47.2441 307.408,66.1417 "/>
<polyline clip-path="url(#clip770)" style="stroke:#ffffff; stroke-linecap:round; stroke-linejoin:round; stroke-width:4; stroke-opacity:1; fill:none" points="703.026,47.2441 703.026,66.1417 "/>
<polyline clip-path="url(#clip770)" style="stroke:#ffffff; stroke-linecap:round; stroke-linejoin:round; stroke-width:4; stroke-opacity:1; fill:none" points="1098.64,47.2441 1098.64,66.1417 "/>
<polyline clip-path="url(#clip770)" style="stroke:#ffffff; stroke-linecap:round; stroke-linejoin:round; stroke-width:4; stroke-opacity:1; fill:none" points="1494.26,47.2441 1494.26,66.1417 "/>
<polyline clip-path="url(#clip770)" style="stroke:#ffffff; stroke-linecap:round; stroke-linejoin:round; stroke-width:4; stroke-opacity:1; fill:none" points="1889.88,47.2441 1889.88,66.1417 "/>
<polyline clip-path="url(#clip770)" style="stroke:#ffffff; stroke-linecap:round; stroke-linejoin:round; stroke-width:4; stroke-opacity:1; fill:none" points="2285.5,47.2441 2285.5,66.1417 "/>
<path clip-path="url(#clip770)" d="M307.408 1454.1 Q303.797 1454.1 301.968 1457.66 Q300.162 1461.2 300.162 1468.33 Q300.162 1475.44 301.968 1479.01 Q303.797 1482.55 307.408 1482.55 Q311.042 1482.55 312.847 1479.01 Q314.676 1475.44 314.676 1468.33 Q314.676 1461.2 312.847 1457.66 Q311.042 1454.1 307.408 1454.1 M307.408 1450.39 Q313.218 1450.39 316.273 1455 Q319.352 1459.58 319.352 1468.33 Q319.352 1477.06 316.273 1481.67 Q313.218 1486.25 307.408 1486.25 Q301.597 1486.25 298.519 1481.67 Q295.463 1477.06 295.463 1468.33 Q295.463 1459.58 298.519 1455 Q301.597 1450.39 307.408 1450.39 Z" fill="#ffffff" fill-rule="nonzero" fill-opacity="1" /><path clip-path="url(#clip770)" d="M677.725 1451.02 L696.082 1451.02 L696.082 1454.96 L682.008 1454.96 L682.008 1463.43 Q683.026 1463.08 684.045 1462.92 Q685.063 1462.73 686.082 1462.73 Q691.869 1462.73 695.248 1465.9 Q698.628 1469.08 698.628 1474.49 Q698.628 1480.07 695.156 1483.17 Q691.684 1486.25 685.364 1486.25 Q683.188 1486.25 680.92 1485.88 Q678.675 1485.51 676.267 1484.77 L676.267 1480.07 Q678.35 1481.2 680.573 1481.76 Q682.795 1482.32 685.272 1482.32 Q689.276 1482.32 691.614 1480.21 Q693.952 1478.1 693.952 1474.49 Q693.952 1470.88 691.614 1468.77 Q689.276 1466.67 685.272 1466.67 Q683.397 1466.67 681.522 1467.08 Q679.67 1467.5 677.725 1468.38 L677.725 1451.02 Z" fill="#ffffff" fill-rule="nonzero" fill-opacity="1" /><path clip-path="url(#clip770)" d="M717.841 1454.1 Q714.23 1454.1 712.401 1457.66 Q710.596 1461.2 710.596 1468.33 Q710.596 1475.44 712.401 1479.01 Q714.23 1482.55 717.841 1482.55 Q721.475 1482.55 723.281 1479.01 Q725.109 1475.44 725.109 1468.33 Q725.109 1461.2 723.281 1457.66 Q721.475 1454.1 717.841 1454.1 M717.841 1450.39 Q723.651 1450.39 726.707 1455 Q729.785 1459.58 729.785 1468.33 Q729.785 1477.06 726.707 1481.67 Q723.651 1486.25 717.841 1486.25 Q712.031 1486.25 708.952 1481.67 Q705.897 1477.06 705.897 1468.33 Q705.897 1459.58 708.952 1455 Q712.031 1450.39 717.841 1450.39 Z" fill="#ffffff" fill-rule="nonzero" fill-opacity="1" /><path clip-path="url(#clip770)" d="M1058.25 1481.64 L1065.89 1481.64 L1065.89 1455.28 L1057.58 1456.95 L1057.58 1452.69 L1065.84 1451.02 L1070.52 1451.02 L1070.52 1481.64 L1078.16 1481.64 L1078.16 1485.58 L1058.25 1485.58 L1058.25 1481.64 Z" fill="#ffffff" fill-rule="nonzero" fill-opacity="1" /><path clip-path="url(#clip770)" d="M1097.6 1454.1 Q1093.99 1454.1 1092.16 1457.66 Q1090.36 1461.2 1090.36 1468.33 Q1090.36 1475.44 1092.16 1479.01 Q1093.99 1482.55 1097.6 1482.55 Q1101.24 1482.55 1103.04 1479.01 Q1104.87 1475.44 1104.87 1468.33 Q1104.87 1461.2 1103.04 1457.66 Q1101.24 1454.1 1097.6 1454.1 M1097.6 1450.39 Q1103.41 1450.39 1106.47 1455 Q1109.55 1459.58 1109.55 1468.33 Q1109.55 1477.06 1106.47 1481.67 Q1103.41 1486.25 1097.6 1486.25 Q1091.79 1486.25 1088.71 1481.67 Q1085.66 1477.06 1085.66 1468.33 Q1085.66 1459.58 1088.71 1455 Q1091.79 1450.39 1097.6 1450.39 Z" fill="#ffffff" fill-rule="nonzero" fill-opacity="1" /><path clip-path="url(#clip770)" d="M1127.77 1454.1 Q1124.15 1454.1 1122.33 1457.66 Q1120.52 1461.2 1120.52 1468.33 Q1120.52 1475.44 1122.33 1479.01 Q1124.15 1482.55 1127.77 1482.55 Q1131.4 1482.55 1133.2 1479.01 Q1135.03 1475.44 1135.03 1468.33 Q1135.03 1461.2 1133.2 1457.66 Q1131.4 1454.1 1127.77 1454.1 M1127.77 1450.39 Q1133.58 1450.39 1136.63 1455 Q1139.71 1459.58 1139.71 1468.33 Q1139.71 1477.06 1136.63 1481.67 Q1133.58 1486.25 1127.77 1486.25 Q1121.95 1486.25 1118.88 1481.67 Q1115.82 1477.06 1115.82 1468.33 Q1115.82 1459.58 1118.88 1455 Q1121.95 1450.39 1127.77 1450.39 Z" fill="#ffffff" fill-rule="nonzero" fill-opacity="1" /><path clip-path="url(#clip770)" d="M1453.87 1481.64 L1461.51 1481.64 L1461.51 1455.28 L1453.2 1456.95 L1453.2 1452.69 L1461.46 1451.02 L1466.14 1451.02 L1466.14 1481.64 L1473.78 1481.64 L1473.78 1485.58 L1453.87 1485.58 L1453.87 1481.64 Z" fill="#ffffff" fill-rule="nonzero" fill-opacity="1" /><path clip-path="url(#clip770)" d="M1483.27 1451.02 L1501.62 1451.02 L1501.62 1454.96 L1487.55 1454.96 L1487.55 1463.43 Q1488.57 1463.08 1489.59 1462.92 Q1490.61 1462.73 1491.62 1462.73 Q1497.41 1462.73 1500.79 1465.9 Q1504.17 1469.08 1504.17 1474.49 Q1504.17 1480.07 1500.7 1483.17 Q1497.23 1486.25 1490.91 1486.25 Q1488.73 1486.25 1486.46 1485.88 Q1484.22 1485.51 1481.81 1484.77 L1481.81 1480.07 Q1483.89 1481.2 1486.12 1481.76 Q1488.34 1482.32 1490.81 1482.32 Q1494.82 1482.32 1497.16 1480.21 Q1499.49 1478.1 1499.49 1474.49 Q1499.49 1470.88 1497.16 1468.77 Q1494.82 1466.67 1490.81 1466.67 Q1488.94 1466.67 1487.06 1467.08 Q1485.21 1467.5 1483.27 1468.38 L1483.27 1451.02 Z" fill="#ffffff" fill-rule="nonzero" fill-opacity="1" /><path clip-path="url(#clip770)" d="M1523.38 1454.1 Q1519.77 1454.1 1517.94 1457.66 Q1516.14 1461.2 1516.14 1468.33 Q1516.14 1475.44 1517.94 1479.01 Q1519.77 1482.55 1523.38 1482.55 Q1527.02 1482.55 1528.82 1479.01 Q1530.65 1475.44 1530.65 1468.33 Q1530.65 1461.2 1528.82 1457.66 Q1527.02 1454.1 1523.38 1454.1 M1523.38 1450.39 Q1529.19 1450.39 1532.25 1455 Q1535.33 1459.58 1535.33 1468.33 Q1535.33 1477.06 1532.25 1481.67 Q1529.19 1486.25 1523.38 1486.25 Q1517.57 1486.25 1514.49 1481.67 Q1511.44 1477.06 1511.44 1468.33 Q1511.44 1459.58 1514.49 1455 Q1517.57 1450.39 1523.38 1450.39 Z" fill="#ffffff" fill-rule="nonzero" fill-opacity="1" /><path clip-path="url(#clip770)" d="M1853.57 1481.64 L1869.89 1481.64 L1869.89 1485.58 L1847.95 1485.58 L1847.95 1481.64 Q1850.61 1478.89 1855.19 1474.26 Q1859.8 1469.61 1860.98 1468.27 Q1863.23 1465.74 1864.11 1464.01 Q1865.01 1462.25 1865.01 1460.56 Q1865.01 1457.8 1863.07 1456.07 Q1861.14 1454.33 1858.04 1454.33 Q1855.84 1454.33 1853.39 1455.09 Q1850.96 1455.86 1848.18 1457.41 L1848.18 1452.69 Q1851.01 1451.55 1853.46 1450.97 Q1855.91 1450.39 1857.95 1450.39 Q1863.32 1450.39 1866.51 1453.08 Q1869.71 1455.77 1869.71 1460.26 Q1869.71 1462.39 1868.9 1464.31 Q1868.11 1466.2 1866 1468.8 Q1865.43 1469.47 1862.32 1472.69 Q1859.22 1475.88 1853.57 1481.64 Z" fill="#ffffff" fill-rule="nonzero" fill-opacity="1" /><path clip-path="url(#clip770)" d="M1889.71 1454.1 Q1886.1 1454.1 1884.27 1457.66 Q1882.46 1461.2 1882.46 1468.33 Q1882.46 1475.44 1884.27 1479.01 Q1886.1 1482.55 1889.71 1482.55 Q1893.34 1482.55 1895.15 1479.01 Q1896.98 1475.44 1896.98 1468.33 Q1896.98 1461.2 1895.15 1457.66 Q1893.34 1454.1 1889.71 1454.1 M1889.71 1450.39 Q1895.52 1450.39 1898.57 1455 Q1901.65 1459.58 1901.65 1468.33 Q1901.65 1477.06 1898.57 1481.67 Q1895.52 1486.25 1889.71 1486.25 Q1883.9 1486.25 1880.82 1481.67 Q1877.76 1477.06 1877.76 1468.33 Q1877.76 1459.58 1880.82 1455 Q1883.9 1450.39 1889.71 1450.39 Z" fill="#ffffff" fill-rule="nonzero" fill-opacity="1" /><path clip-path="url(#clip770)" d="M1919.87 1454.1 Q1916.26 1454.1 1914.43 1457.66 Q1912.63 1461.2 1912.63 1468.33 Q1912.63 1475.44 1914.43 1479.01 Q1916.26 1482.55 1919.87 1482.55 Q1923.5 1482.55 1925.31 1479.01 Q1927.14 1475.44 1927.14 1468.33 Q1927.14 1461.2 1925.31 1457.66 Q1923.5 1454.1 1919.87 1454.1 M1919.87 1450.39 Q1925.68 1450.39 1928.74 1455 Q1931.81 1459.58 1931.81 1468.33 Q1931.81 1477.06 1928.74 1481.67 Q1925.68 1486.25 1919.87 1486.25 Q1914.06 1486.25 1910.98 1481.67 Q1907.93 1477.06 1907.93 1468.33 Q1907.93 1459.58 1910.98 1455 Q1914.06 1450.39 1919.87 1450.39 Z" fill="#ffffff" fill-rule="nonzero" fill-opacity="1" /><path clip-path="url(#clip770)" d="M2249.19 1481.64 L2265.51 1481.64 L2265.51 1485.58 L2243.57 1485.58 L2243.57 1481.64 Q2246.23 1478.89 2250.81 1474.26 Q2255.42 1469.61 2256.6 1468.27 Q2258.85 1465.74 2259.73 1464.01 Q2260.63 1462.25 2260.63 1460.56 Q2260.63 1457.8 2258.68 1456.07 Q2256.76 1454.33 2253.66 1454.33 Q2251.46 1454.33 2249.01 1455.09 Q2246.58 1455.86 2243.8 1457.41 L2243.8 1452.69 Q2246.62 1451.55 2249.08 1450.97 Q2251.53 1450.39 2253.57 1450.39 Q2258.94 1450.39 2262.13 1453.08 Q2265.33 1455.77 2265.33 1460.26 Q2265.33 1462.39 2264.52 1464.31 Q2263.73 1466.2 2261.62 1468.8 Q2261.04 1469.47 2257.94 1472.69 Q2254.84 1475.88 2249.19 1481.64 Z" fill="#ffffff" fill-rule="nonzero" fill-opacity="1" /><path clip-path="url(#clip770)" d="M2275.37 1451.02 L2293.73 1451.02 L2293.73 1454.96 L2279.66 1454.96 L2279.66 1463.43 Q2280.67 1463.08 2281.69 1462.92 Q2282.71 1462.73 2283.73 1462.73 Q2289.52 1462.73 2292.9 1465.9 Q2296.28 1469.08 2296.28 1474.49 Q2296.28 1480.07 2292.8 1483.17 Q2289.33 1486.25 2283.01 1486.25 Q2280.84 1486.25 2278.57 1485.88 Q2276.32 1485.51 2273.92 1484.77 L2273.92 1480.07 Q2276 1481.2 2278.22 1481.76 Q2280.44 1482.32 2282.92 1482.32 Q2286.92 1482.32 2289.26 1480.21 Q2291.6 1478.1 2291.6 1474.49 Q2291.6 1470.88 2289.26 1468.77 Q2286.92 1466.67 2282.92 1466.67 Q2281.04 1466.67 2279.17 1467.08 Q2277.32 1467.5 2275.37 1468.38 L2275.37 1451.02 Z" fill="#ffffff" fill-rule="nonzero" fill-opacity="1" /><path clip-path="url(#clip770)" d="M2315.49 1454.1 Q2311.88 1454.1 2310.05 1457.66 Q2308.24 1461.2 2308.24 1468.33 Q2308.24 1475.44 2310.05 1479.01 Q2311.88 1482.55 2315.49 1482.55 Q2319.12 1482.55 2320.93 1479.01 Q2322.76 1475.44 2322.76 1468.33 Q2322.76 1461.2 2320.93 1457.66 Q2319.12 1454.1 2315.49 1454.1 M2315.49 1450.39 Q2321.3 1450.39 2324.35 1455 Q2327.43 1459.58 2327.43 1468.33 Q2327.43 1477.06 2324.35 1481.67 Q2321.3 1486.25 2315.49 1486.25 Q2309.68 1486.25 2306.6 1481.67 Q2303.54 1477.06 2303.54 1468.33 Q2303.54 1459.58 2306.6 1455 Q2309.68 1450.39 2315.49 1450.39 Z" fill="#ffffff" fill-rule="nonzero" fill-opacity="1" /><path clip-path="url(#clip770)" d="M1028.21 1520.52 L1034.64 1520.52 L1034.64 1562.63 L1057.77 1562.63 L1057.77 1568.04 L1028.21 1568.04 L1028.21 1520.52 Z" fill="#ffffff" fill-rule="nonzero" fill-opacity="1" /><path clip-path="url(#clip770)" d="M1080.47 1550.12 Q1073.37 1550.12 1070.63 1551.75 Q1067.9 1553.37 1067.9 1557.29 Q1067.9 1560.4 1069.93 1562.25 Q1072 1564.07 1075.54 1564.07 Q1080.41 1564.07 1083.33 1560.63 Q1086.29 1557.16 1086.29 1551.43 L1086.29 1550.12 L1080.47 1550.12 M1092.15 1547.71 L1092.15 1568.04 L1086.29 1568.04 L1086.29 1562.63 Q1084.29 1565.88 1081.3 1567.44 Q1078.3 1568.97 1073.98 1568.97 Q1068.5 1568.97 1065.25 1565.91 Q1062.04 1562.82 1062.04 1557.67 Q1062.04 1551.65 1066.05 1548.6 Q1070.09 1545.54 1078.08 1545.54 L1086.29 1545.54 L1086.29 1544.97 Q1086.29 1540.93 1083.62 1538.73 Q1080.98 1536.5 1076.17 1536.5 Q1073.12 1536.5 1070.22 1537.23 Q1067.32 1537.97 1064.65 1539.43 L1064.65 1534.02 Q1067.86 1532.78 1070.89 1532.17 Q1073.91 1531.54 1076.78 1531.54 Q1084.51 1531.54 1088.33 1535.55 Q1092.15 1539.56 1092.15 1547.71 Z" fill="#ffffff" fill-rule="nonzero" fill-opacity="1" /><path clip-path="url(#clip770)" d="M1127.67 1549.81 Q1127.67 1543.44 1125.03 1539.94 Q1122.42 1536.44 1117.68 1536.44 Q1112.97 1536.44 1110.32 1539.94 Q1107.71 1543.44 1107.71 1549.81 Q1107.71 1556.14 1110.32 1559.64 Q1112.97 1563.14 1117.68 1563.14 Q1122.42 1563.14 1125.03 1559.64 Q1127.67 1556.14 1127.67 1549.81 M1133.53 1563.62 Q1133.53 1572.72 1129.48 1577.15 Q1125.44 1581.6 1117.1 1581.6 Q1114.02 1581.6 1111.28 1581.13 Q1108.54 1580.68 1105.96 1579.72 L1105.96 1574.03 Q1108.54 1575.43 1111.06 1576.1 Q1113.57 1576.76 1116.18 1576.76 Q1121.94 1576.76 1124.81 1573.74 Q1127.67 1570.75 1127.67 1564.67 L1127.67 1561.77 Q1125.86 1564.92 1123.02 1566.48 Q1120.19 1568.04 1116.24 1568.04 Q1109.69 1568.04 1105.68 1563.05 Q1101.67 1558.05 1101.67 1549.81 Q1101.67 1541.53 1105.68 1536.53 Q1109.69 1531.54 1116.24 1531.54 Q1120.19 1531.54 1123.02 1533.1 Q1125.86 1534.66 1127.67 1537.81 L1127.67 1532.4 L1133.53 1532.4 L1133.53 1563.62 Z" fill="#ffffff" fill-rule="nonzero" fill-opacity="1" /><path clip-path="url(#clip770)" d="M1180.38 1518.58 Q1176.11 1525.9 1174.04 1533.06 Q1171.98 1540.23 1171.98 1547.58 Q1171.98 1554.93 1174.04 1562.16 Q1176.15 1569.35 1180.38 1576.64 L1175.29 1576.64 Q1170.51 1569.16 1168.12 1561.93 Q1165.77 1554.71 1165.77 1547.58 Q1165.77 1540.48 1168.12 1533.29 Q1170.48 1526.09 1175.29 1518.58 L1180.38 1518.58 Z" fill="#ffffff" fill-rule="nonzero" fill-opacity="1" /><path clip-path="url(#clip770)" d="M1197.53 1522.27 L1197.53 1532.4 L1209.6 1532.4 L1209.6 1536.95 L1197.53 1536.95 L1197.53 1556.3 Q1197.53 1560.66 1198.71 1561.9 Q1199.92 1563.14 1203.58 1563.14 L1209.6 1563.14 L1209.6 1568.04 L1203.58 1568.04 Q1196.8 1568.04 1194.22 1565.53 Q1191.65 1562.98 1191.65 1556.3 L1191.65 1536.95 L1187.35 1536.95 L1187.35 1532.4 L1191.65 1532.4 L1191.65 1522.27 L1197.53 1522.27 Z" fill="#ffffff" fill-rule="nonzero" fill-opacity="1" /><path clip-path="url(#clip770)" d="M1237.96 1537.87 Q1236.97 1537.3 1235.79 1537.04 Q1234.65 1536.76 1233.25 1536.76 Q1228.28 1536.76 1225.61 1540 Q1222.97 1543.22 1222.97 1549.27 L1222.97 1568.04 L1217.08 1568.04 L1217.08 1532.4 L1222.97 1532.4 L1222.97 1537.93 Q1224.81 1534.69 1227.77 1533.13 Q1230.73 1531.54 1234.96 1531.54 Q1235.57 1531.54 1236.3 1531.63 Q1237.03 1531.7 1237.92 1531.85 L1237.96 1537.87 Z" fill="#ffffff" fill-rule="nonzero" fill-opacity="1" /><path clip-path="url(#clip770)" d="M1260.3 1550.12 Q1253.2 1550.12 1250.46 1551.75 Q1247.73 1553.37 1247.73 1557.29 Q1247.73 1560.4 1249.76 1562.25 Q1251.83 1564.07 1255.37 1564.07 Q1260.24 1564.07 1263.16 1560.63 Q1266.12 1557.16 1266.12 1551.43 L1266.12 1550.12 L1260.3 1550.12 M1271.98 1547.71 L1271.98 1568.04 L1266.12 1568.04 L1266.12 1562.63 Q1264.12 1565.88 1261.13 1567.44 Q1258.14 1568.97 1253.81 1568.97 Q1248.33 1568.97 1245.09 1565.91 Q1241.87 1562.82 1241.87 1557.67 Q1241.87 1551.65 1245.88 1548.6 Q1249.92 1545.54 1257.91 1545.54 L1266.12 1545.54 L1266.12 1544.97 Q1266.12 1540.93 1263.45 1538.73 Q1260.81 1536.5 1256 1536.5 Q1252.95 1536.5 1250.05 1537.23 Q1247.15 1537.97 1244.48 1539.43 L1244.48 1534.02 Q1247.7 1532.78 1250.72 1532.17 Q1253.74 1531.54 1256.61 1531.54 Q1264.34 1531.54 1268.16 1535.55 Q1271.98 1539.56 1271.98 1547.71 Z" fill="#ffffff" fill-rule="nonzero" fill-opacity="1" /><path clip-path="url(#clip770)" d="M1307.5 1537.81 L1307.5 1518.52 L1313.36 1518.52 L1313.36 1568.04 L1307.5 1568.04 L1307.5 1562.7 Q1305.66 1565.88 1302.82 1567.44 Q1300.02 1568.97 1296.08 1568.97 Q1289.61 1568.97 1285.54 1563.81 Q1281.5 1558.65 1281.5 1550.25 Q1281.5 1541.85 1285.54 1536.69 Q1289.61 1531.54 1296.08 1531.54 Q1300.02 1531.54 1302.82 1533.1 Q1305.66 1534.62 1307.5 1537.81 M1287.55 1550.25 Q1287.55 1556.71 1290.19 1560.4 Q1292.86 1564.07 1297.51 1564.07 Q1302.15 1564.07 1304.83 1560.4 Q1307.5 1556.71 1307.5 1550.25 Q1307.5 1543.79 1304.83 1540.13 Q1302.15 1536.44 1297.51 1536.44 Q1292.86 1536.44 1290.19 1540.13 Q1287.55 1543.79 1287.55 1550.25 Z" fill="#ffffff" fill-rule="nonzero" fill-opacity="1" /><path clip-path="url(#clip770)" d="M1325.42 1532.4 L1331.28 1532.4 L1331.28 1568.04 L1325.42 1568.04 L1325.42 1532.4 M1325.42 1518.52 L1331.28 1518.52 L1331.28 1525.93 L1325.42 1525.93 L1325.42 1518.52 Z" fill="#ffffff" fill-rule="nonzero" fill-opacity="1" /><path clip-path="url(#clip770)" d="M1373.16 1546.53 L1373.16 1568.04 L1367.31 1568.04 L1367.31 1546.72 Q1367.31 1541.66 1365.33 1539.14 Q1363.36 1536.63 1359.41 1536.63 Q1354.67 1536.63 1351.93 1539.65 Q1349.2 1542.68 1349.2 1547.9 L1349.2 1568.04 L1343.31 1568.04 L1343.31 1532.4 L1349.2 1532.4 L1349.2 1537.93 Q1351.3 1534.72 1354.13 1533.13 Q1357 1531.54 1360.72 1531.54 Q1366.86 1531.54 1370.01 1535.36 Q1373.16 1539.14 1373.16 1546.53 Z" fill="#ffffff" fill-rule="nonzero" fill-opacity="1" /><path clip-path="url(#clip770)" d="M1408.3 1549.81 Q1408.3 1543.44 1405.66 1539.94 Q1403.05 1536.44 1398.31 1536.44 Q1393.6 1536.44 1390.96 1539.94 Q1388.35 1543.44 1388.35 1549.81 Q1388.35 1556.14 1390.96 1559.64 Q1393.6 1563.14 1398.31 1563.14 Q1403.05 1563.14 1405.66 1559.64 Q1408.3 1556.14 1408.3 1549.81 M1414.16 1563.62 Q1414.16 1572.72 1410.12 1577.15 Q1406.07 1581.6 1397.74 1581.6 Q1394.65 1581.6 1391.91 1581.13 Q1389.17 1580.68 1386.6 1579.72 L1386.6 1574.03 Q1389.17 1575.43 1391.69 1576.1 Q1394.2 1576.76 1396.81 1576.76 Q1402.57 1576.76 1405.44 1573.74 Q1408.3 1570.75 1408.3 1564.67 L1408.3 1561.77 Q1406.49 1564.92 1403.66 1566.48 Q1400.82 1568.04 1396.88 1568.04 Q1390.32 1568.04 1386.31 1563.05 Q1382.3 1558.05 1382.3 1549.81 Q1382.3 1541.53 1386.31 1536.53 Q1390.32 1531.54 1396.88 1531.54 Q1400.82 1531.54 1403.66 1533.1 Q1406.49 1534.66 1408.3 1537.81 L1408.3 1532.4 L1414.16 1532.4 L1414.16 1563.62 Z" fill="#ffffff" fill-rule="nonzero" fill-opacity="1" /><path clip-path="url(#clip770)" d="M1470.4 1537.81 L1470.4 1518.52 L1476.26 1518.52 L1476.26 1568.04 L1470.4 1568.04 L1470.4 1562.7 Q1468.55 1565.88 1465.72 1567.44 Q1462.92 1568.97 1458.97 1568.97 Q1452.51 1568.97 1448.44 1563.81 Q1444.4 1558.65 1444.4 1550.25 Q1444.4 1541.85 1448.44 1536.69 Q1452.51 1531.54 1458.97 1531.54 Q1462.92 1531.54 1465.72 1533.1 Q1468.55 1534.62 1470.4 1537.81 M1450.44 1550.25 Q1450.44 1556.71 1453.09 1560.4 Q1455.76 1564.07 1460.41 1564.07 Q1465.05 1564.07 1467.73 1560.4 Q1470.4 1556.71 1470.4 1550.25 Q1470.4 1543.79 1467.73 1540.13 Q1465.05 1536.44 1460.41 1536.44 Q1455.76 1536.44 1453.09 1540.13 Q1450.44 1543.79 1450.44 1550.25 Z" fill="#ffffff" fill-rule="nonzero" fill-opacity="1" /><path clip-path="url(#clip770)" d="M1504.52 1550.12 Q1497.42 1550.12 1494.69 1551.75 Q1491.95 1553.37 1491.95 1557.29 Q1491.95 1560.4 1493.99 1562.25 Q1496.05 1564.07 1499.59 1564.07 Q1504.46 1564.07 1507.38 1560.63 Q1510.34 1557.16 1510.34 1551.43 L1510.34 1550.12 L1504.52 1550.12 M1516.2 1547.71 L1516.2 1568.04 L1510.34 1568.04 L1510.34 1562.63 Q1508.34 1565.88 1505.35 1567.44 Q1502.36 1568.97 1498.03 1568.97 Q1492.55 1568.97 1489.31 1565.91 Q1486.09 1562.82 1486.09 1557.67 Q1486.09 1551.65 1490.1 1548.6 Q1494.14 1545.54 1502.13 1545.54 L1510.34 1545.54 L1510.34 1544.97 Q1510.34 1540.93 1507.67 1538.73 Q1505.03 1536.5 1500.22 1536.5 Q1497.17 1536.5 1494.27 1537.23 Q1491.38 1537.97 1488.7 1539.43 L1488.7 1534.02 Q1491.92 1532.78 1494.94 1532.17 Q1497.96 1531.54 1500.83 1531.54 Q1508.56 1531.54 1512.38 1535.55 Q1516.2 1539.56 1516.2 1547.71 Z" fill="#ffffff" fill-rule="nonzero" fill-opacity="1" /><path clip-path="url(#clip770)" d="M1543.1 1571.35 Q1540.61 1577.72 1538.26 1579.66 Q1535.9 1581.6 1531.96 1581.6 L1527.28 1581.6 L1527.28 1576.7 L1530.72 1576.7 Q1533.13 1576.7 1534.47 1575.56 Q1535.81 1574.41 1537.43 1570.14 L1538.48 1567.47 L1524.06 1532.4 L1530.27 1532.4 L1541.41 1560.28 L1552.55 1532.4 L1558.76 1532.4 L1543.1 1571.35 Z" fill="#ffffff" fill-rule="nonzero" fill-opacity="1" /><path clip-path="url(#clip770)" d="M1565.92 1518.58 L1571.01 1518.58 Q1575.78 1526.09 1578.14 1533.29 Q1580.53 1540.48 1580.53 1547.58 Q1580.53 1554.71 1578.14 1561.93 Q1575.78 1569.16 1571.01 1576.64 L1565.92 1576.64 Q1570.15 1569.35 1572.22 1562.16 Q1574.32 1554.93 1574.32 1547.58 Q1574.32 1540.23 1572.22 1533.06 Q1570.15 1525.9 1565.92 1518.58 Z" fill="#ffffff" fill-rule="nonzero" fill-opacity="1" /><polyline clip-path="url(#clip770)" style="stroke:#ffffff; stroke-linecap:round; stroke-linejoin:round; stroke-width:4; stroke-opacity:1; fill:none" points="255.977,1423.18 255.977,47.2441 "/>
<polyline clip-path="url(#clip770)" style="stroke:#ffffff; stroke-linecap:round; stroke-linejoin:round; stroke-width:4; stroke-opacity:1; fill:none" points="2352.76,1423.18 2352.76,47.2441 "/>
<polyline clip-path="url(#clip770)" style="stroke:#ffffff; stroke-linecap:round; stroke-linejoin:round; stroke-width:4; stroke-opacity:1; fill:none" points="255.977,1318.23 274.875,1318.23 "/>
<polyline clip-path="url(#clip770)" style="stroke:#ffffff; stroke-linecap:round; stroke-linejoin:round; stroke-width:4; stroke-opacity:1; fill:none" points="255.977,1036.99 274.875,1036.99 "/>
<polyline clip-path="url(#clip770)" style="stroke:#ffffff; stroke-linecap:round; stroke-linejoin:round; stroke-width:4; stroke-opacity:1; fill:none" points="255.977,755.739 274.875,755.739 "/>
<polyline clip-path="url(#clip770)" style="stroke:#ffffff; stroke-linecap:round; stroke-linejoin:round; stroke-width:4; stroke-opacity:1; fill:none" points="255.977,474.492 274.875,474.492 "/>
<polyline clip-path="url(#clip770)" style="stroke:#ffffff; stroke-linecap:round; stroke-linejoin:round; stroke-width:4; stroke-opacity:1; fill:none" points="255.977,193.244 274.875,193.244 "/>
<polyline clip-path="url(#clip770)" style="stroke:#ffffff; stroke-linecap:round; stroke-linejoin:round; stroke-width:4; stroke-opacity:1; fill:none" points="2352.76,1318.23 2333.86,1318.23 "/>
<polyline clip-path="url(#clip770)" style="stroke:#ffffff; stroke-linecap:round; stroke-linejoin:round; stroke-width:4; stroke-opacity:1; fill:none" points="2352.76,1036.99 2333.86,1036.99 "/>
<polyline clip-path="url(#clip770)" style="stroke:#ffffff; stroke-linecap:round; stroke-linejoin:round; stroke-width:4; stroke-opacity:1; fill:none" points="2352.76,755.739 2333.86,755.739 "/>
<polyline clip-path="url(#clip770)" style="stroke:#ffffff; stroke-linecap:round; stroke-linejoin:round; stroke-width:4; stroke-opacity:1; fill:none" points="2352.76,474.492 2333.86,474.492 "/>
<polyline clip-path="url(#clip770)" style="stroke:#ffffff; stroke-linecap:round; stroke-linejoin:round; stroke-width:4; stroke-opacity:1; fill:none" points="2352.76,193.244 2333.86,193.244 "/>
<path clip-path="url(#clip770)" d="M114.26 1318.69 L143.936 1318.69 L143.936 1322.62 L114.26 1322.62 L114.26 1318.69 Z" fill="#ffffff" fill-rule="nonzero" fill-opacity="1" /><path clip-path="url(#clip770)" d="M164.028 1304.03 Q160.417 1304.03 158.589 1307.6 Q156.783 1311.14 156.783 1318.27 Q156.783 1325.38 158.589 1328.94 Q160.417 1332.48 164.028 1332.48 Q167.663 1332.48 169.468 1328.94 Q171.297 1325.38 171.297 1318.27 Q171.297 1311.14 169.468 1307.6 Q167.663 1304.03 164.028 1304.03 M164.028 1300.33 Q169.839 1300.33 172.894 1304.94 Q175.973 1309.52 175.973 1318.27 Q175.973 1327 172.894 1331.6 Q169.839 1336.19 164.028 1336.19 Q158.218 1336.19 155.14 1331.6 Q152.084 1327 152.084 1318.27 Q152.084 1309.52 155.14 1304.94 Q158.218 1300.33 164.028 1300.33 Z" fill="#ffffff" fill-rule="nonzero" fill-opacity="1" /><path clip-path="url(#clip770)" d="M184.19 1329.63 L189.075 1329.63 L189.075 1335.51 L184.19 1335.51 L184.19 1329.63 Z" fill="#ffffff" fill-rule="nonzero" fill-opacity="1" /><path clip-path="url(#clip770)" d="M200.07 1331.58 L207.709 1331.58 L207.709 1305.21 L199.399 1306.88 L199.399 1302.62 L207.662 1300.95 L212.338 1300.95 L212.338 1331.58 L219.977 1331.58 L219.977 1335.51 L200.07 1335.51 L200.07 1331.58 Z" fill="#ffffff" fill-rule="nonzero" fill-opacity="1" /><path clip-path="url(#clip770)" d="M162.802 1022.79 Q159.19 1022.79 157.362 1026.35 Q155.556 1029.89 155.556 1037.02 Q155.556 1044.13 157.362 1047.69 Q159.19 1051.23 162.802 1051.23 Q166.436 1051.23 168.241 1047.69 Q170.07 1044.13 170.07 1037.02 Q170.07 1029.89 168.241 1026.35 Q166.436 1022.79 162.802 1022.79 M162.802 1019.08 Q168.612 1019.08 171.667 1023.69 Q174.746 1028.27 174.746 1037.02 Q174.746 1045.75 171.667 1050.35 Q168.612 1054.94 162.802 1054.94 Q156.991 1054.94 153.913 1050.35 Q150.857 1045.75 150.857 1037.02 Q150.857 1028.27 153.913 1023.69 Q156.991 1019.08 162.802 1019.08 Z" fill="#ffffff" fill-rule="nonzero" fill-opacity="1" /><path clip-path="url(#clip770)" d="M182.963 1048.39 L187.848 1048.39 L187.848 1054.27 L182.963 1054.27 L182.963 1048.39 Z" fill="#ffffff" fill-rule="nonzero" fill-opacity="1" /><path clip-path="url(#clip770)" d="M208.033 1022.79 Q204.422 1022.79 202.593 1026.35 Q200.787 1029.89 200.787 1037.02 Q200.787 1044.13 202.593 1047.69 Q204.422 1051.23 208.033 1051.23 Q211.667 1051.23 213.473 1047.69 Q215.301 1044.13 215.301 1037.02 Q215.301 1029.89 213.473 1026.35 Q211.667 1022.79 208.033 1022.79 M208.033 1019.08 Q213.843 1019.08 216.898 1023.69 Q219.977 1028.27 219.977 1037.02 Q219.977 1045.75 216.898 1050.35 Q213.843 1054.94 208.033 1054.94 Q202.223 1054.94 199.144 1050.35 Q196.088 1045.75 196.088 1037.02 Q196.088 1028.27 199.144 1023.69 Q202.223 1019.08 208.033 1019.08 Z" fill="#ffffff" fill-rule="nonzero" fill-opacity="1" /><path clip-path="url(#clip770)" d="M164.028 741.538 Q160.417 741.538 158.589 745.103 Q156.783 748.644 156.783 755.774 Q156.783 762.88 158.589 766.445 Q160.417 769.987 164.028 769.987 Q167.663 769.987 169.468 766.445 Q171.297 762.88 171.297 755.774 Q171.297 748.644 169.468 745.103 Q167.663 741.538 164.028 741.538 M164.028 737.834 Q169.839 737.834 172.894 742.44 Q175.973 747.024 175.973 755.774 Q175.973 764.501 172.894 769.107 Q169.839 773.69 164.028 773.69 Q158.218 773.69 155.14 769.107 Q152.084 764.501 152.084 755.774 Q152.084 747.024 155.14 742.44 Q158.218 737.834 164.028 737.834 Z" fill="#ffffff" fill-rule="nonzero" fill-opacity="1" /><path clip-path="url(#clip770)" d="M184.19 767.139 L189.075 767.139 L189.075 773.019 L184.19 773.019 L184.19 767.139 Z" fill="#ffffff" fill-rule="nonzero" fill-opacity="1" /><path clip-path="url(#clip770)" d="M200.07 769.084 L207.709 769.084 L207.709 742.718 L199.399 744.385 L199.399 740.126 L207.662 738.459 L212.338 738.459 L212.338 769.084 L219.977 769.084 L219.977 773.019 L200.07 773.019 L200.07 769.084 Z" fill="#ffffff" fill-rule="nonzero" fill-opacity="1" /><path clip-path="url(#clip770)" d="M164.399 460.29 Q160.788 460.29 158.959 463.855 Q157.153 467.397 157.153 474.526 Q157.153 481.633 158.959 485.197 Q160.788 488.739 164.399 488.739 Q168.033 488.739 169.839 485.197 Q171.667 481.633 171.667 474.526 Q171.667 467.397 169.839 463.855 Q168.033 460.29 164.399 460.29 M164.399 456.587 Q170.209 456.587 173.264 461.193 Q176.343 465.776 176.343 474.526 Q176.343 483.253 173.264 487.86 Q170.209 492.443 164.399 492.443 Q158.589 492.443 155.51 487.86 Q152.454 483.253 152.454 474.526 Q152.454 465.776 155.51 461.193 Q158.589 456.587 164.399 456.587 Z" fill="#ffffff" fill-rule="nonzero" fill-opacity="1" /><path clip-path="url(#clip770)" d="M184.561 485.892 L189.445 485.892 L189.445 491.772 L184.561 491.772 L184.561 485.892 Z" fill="#ffffff" fill-rule="nonzero" fill-opacity="1" /><path clip-path="url(#clip770)" d="M203.658 487.836 L219.977 487.836 L219.977 491.772 L198.033 491.772 L198.033 487.836 Q200.695 485.082 205.278 480.452 Q209.885 475.799 211.065 474.457 Q213.311 471.934 214.19 470.198 Q215.093 468.438 215.093 466.749 Q215.093 463.994 213.149 462.258 Q211.227 460.522 208.125 460.522 Q205.926 460.522 203.473 461.286 Q201.042 462.049 198.264 463.6 L198.264 458.878 Q201.088 457.744 203.542 457.165 Q205.996 456.587 208.033 456.587 Q213.403 456.587 216.598 459.272 Q219.792 461.957 219.792 466.448 Q219.792 468.577 218.982 470.499 Q218.195 472.397 216.088 474.989 Q215.51 475.661 212.408 478.878 Q209.306 482.073 203.658 487.836 Z" fill="#ffffff" fill-rule="nonzero" fill-opacity="1" /><path clip-path="url(#clip770)" d="M163.45 179.043 Q159.839 179.043 158.01 182.608 Q156.204 186.149 156.204 193.279 Q156.204 200.385 158.01 203.95 Q159.839 207.492 163.45 207.492 Q167.084 207.492 168.889 203.95 Q170.718 200.385 170.718 193.279 Q170.718 186.149 168.889 182.608 Q167.084 179.043 163.45 179.043 M163.45 175.339 Q169.26 175.339 172.315 179.946 Q175.394 184.529 175.394 193.279 Q175.394 202.006 172.315 206.612 Q169.26 211.195 163.45 211.195 Q157.64 211.195 154.561 206.612 Q151.505 202.006 151.505 193.279 Q151.505 184.529 154.561 179.946 Q157.64 175.339 163.45 175.339 Z" fill="#ffffff" fill-rule="nonzero" fill-opacity="1" /><path clip-path="url(#clip770)" d="M183.612 204.644 L188.496 204.644 L188.496 210.524 L183.612 210.524 L183.612 204.644 Z" fill="#ffffff" fill-rule="nonzero" fill-opacity="1" /><path clip-path="url(#clip770)" d="M212.848 191.89 Q216.204 192.607 218.079 194.876 Q219.977 197.144 219.977 200.478 Q219.977 205.594 216.459 208.394 Q212.94 211.195 206.459 211.195 Q204.283 211.195 201.968 210.756 Q199.676 210.339 197.223 209.482 L197.223 204.969 Q199.167 206.103 201.482 206.681 Q203.797 207.26 206.32 207.26 Q210.718 207.26 213.01 205.524 Q215.324 203.788 215.324 200.478 Q215.324 197.422 213.172 195.709 Q211.042 193.973 207.223 193.973 L203.195 193.973 L203.195 190.131 L207.408 190.131 Q210.857 190.131 212.686 188.765 Q214.514 187.376 214.514 184.783 Q214.514 182.121 212.616 180.709 Q210.741 179.274 207.223 179.274 Q205.301 179.274 203.102 179.691 Q200.903 180.108 198.264 180.987 L198.264 176.821 Q200.926 176.08 203.241 175.709 Q205.579 175.339 207.639 175.339 Q212.963 175.339 216.065 177.77 Q219.167 180.177 219.167 184.297 Q219.167 187.168 217.523 189.158 Q215.88 191.126 212.848 191.89 Z" fill="#ffffff" fill-rule="nonzero" fill-opacity="1" /><path clip-path="url(#clip770)" d="M16.4842 1308.97 L16.4842 1300.31 L56.238 1279.24 L16.4842 1279.24 L16.4842 1273 L64.0042 1273 L64.0042 1281.66 L24.2503 1302.73 L64.0042 1302.73 L64.0042 1308.97 L16.4842 1308.97 Z" fill="#ffffff" fill-rule="nonzero" fill-opacity="1" /><path clip-path="url(#clip770)" d="M64.0042 1247.95 L16.4842 1266.1 L16.4842 1259.38 L56.4926 1244.33 L16.4842 1229.24 L16.4842 1222.55 L64.0042 1240.66 L64.0042 1247.95 Z" fill="#ffffff" fill-rule="nonzero" fill-opacity="1" /><path clip-path="url(#clip770)" d="M21.7677 1209.19 L58.7206 1209.19 L58.7206 1201.42 Q58.7206 1191.59 54.2646 1187.03 Q49.8086 1182.45 40.1964 1182.45 Q30.6479 1182.45 26.2237 1187.03 Q21.7677 1191.59 21.7677 1201.42 L21.7677 1209.19 M16.4842 1215.62 L16.4842 1202.41 Q16.4842 1188.59 22.2451 1182.13 Q27.9743 1175.67 40.1964 1175.67 Q52.4822 1175.67 58.2432 1182.16 Q64.0042 1188.66 64.0042 1202.41 L64.0042 1215.62 L16.4842 1215.62 Z" fill="#ffffff" fill-rule="nonzero" fill-opacity="1" /><path clip-path="url(#clip770)" d="M22.818 1150.69 L46.4666 1159.41 L46.4666 1141.93 L22.818 1150.69 M16.4842 1154.31 L16.4842 1147.03 L64.0042 1128.92 L64.0042 1135.6 L51.8138 1139.93 L51.8138 1161.35 L64.0042 1165.68 L64.0042 1172.46 L16.4842 1154.31 Z" fill="#ffffff" fill-rule="nonzero" fill-opacity="1" /><path clip-path="url(#clip770)" d="M46.0847 1085.31 Q46.0847 1092.41 47.7079 1095.14 Q49.3312 1097.88 53.2461 1097.88 Q56.3653 1097.88 58.2114 1095.85 Q60.0256 1093.78 60.0256 1090.24 Q60.0256 1085.37 56.5881 1082.45 Q53.1188 1079.49 47.3897 1079.49 L46.0847 1079.49 L46.0847 1085.31 M43.6657 1073.63 L64.0042 1073.63 L64.0042 1079.49 L58.5933 1079.49 Q61.8398 1081.49 63.3994 1084.48 Q64.9272 1087.47 64.9272 1091.8 Q64.9272 1097.28 61.8716 1100.52 Q58.7843 1103.74 53.6281 1103.74 Q47.6125 1103.74 44.5569 1099.73 Q41.5014 1095.69 41.5014 1087.7 L41.5014 1079.49 L40.9285 1079.49 Q36.8862 1079.49 34.6901 1082.16 Q32.4621 1084.8 32.4621 1089.61 Q32.4621 1092.66 33.1941 1095.56 Q33.9262 1098.46 35.3903 1101.13 L29.9795 1101.13 Q28.7381 1097.91 28.1334 1094.89 Q27.4968 1091.87 27.4968 1089 Q27.4968 1081.27 31.5072 1077.45 Q35.5176 1073.63 43.6657 1073.63 Z" fill="#ffffff" fill-rule="nonzero" fill-opacity="1" /><path clip-path="url(#clip770)" d="M49.9359 1062.17 L28.3562 1062.17 L28.3562 1056.31 L49.7131 1056.31 Q54.7739 1056.31 57.3202 1054.34 Q59.8346 1052.37 59.8346 1048.42 Q59.8346 1043.68 56.8109 1040.94 Q53.7872 1038.17 48.5673 1038.17 L28.3562 1038.17 L28.3562 1032.32 L64.0042 1032.32 L64.0042 1038.17 L58.5296 1038.17 Q61.7762 1040.3 63.3676 1043.14 Q64.9272 1045.94 64.9272 1049.66 Q64.9272 1055.8 61.1078 1058.99 Q57.2883 1062.17 49.9359 1062.17 M27.4968 1047.43 L27.4968 1047.43 Z" fill="#ffffff" fill-rule="nonzero" fill-opacity="1" /><path clip-path="url(#clip770)" d="M18.2347 1014.46 L28.3562 1014.46 L28.3562 1002.4 L32.9077 1002.4 L32.9077 1014.46 L52.2594 1014.46 Q56.6199 1014.46 57.8613 1013.28 Q59.1026 1012.07 59.1026 1008.41 L59.1026 1002.4 L64.0042 1002.4 L64.0042 1008.41 Q64.0042 1015.19 61.4897 1017.77 Q58.9434 1020.35 52.2594 1020.35 L32.9077 1020.35 L32.9077 1024.64 L28.3562 1024.64 L28.3562 1020.35 L18.2347 1020.35 L18.2347 1014.46 Z" fill="#ffffff" fill-rule="nonzero" fill-opacity="1" /><path clip-path="url(#clip770)" d="M32.4621 980.881 Q32.4621 985.591 36.1542 988.328 Q39.8145 991.066 46.212 991.066 Q52.6095 991.066 56.3017 988.36 Q59.9619 985.623 59.9619 980.881 Q59.9619 976.202 56.2698 973.464 Q52.5777 970.727 46.212 970.727 Q39.8781 970.727 36.186 973.464 Q32.4621 976.202 32.4621 980.881 M27.4968 980.881 Q27.4968 973.242 32.4621 968.881 Q37.4273 964.521 46.212 964.521 Q54.9649 964.521 59.9619 968.881 Q64.9272 973.242 64.9272 980.881 Q64.9272 988.551 59.9619 992.912 Q54.9649 997.24 46.212 997.24 Q37.4273 997.24 32.4621 992.912 Q27.4968 988.551 27.4968 980.881 Z" fill="#ffffff" fill-rule="nonzero" fill-opacity="1" /><path clip-path="url(#clip770)" d="M29.7248 929.159 L35.1993 929.159 Q33.8307 931.642 33.1623 934.156 Q32.4621 936.639 32.4621 939.185 Q32.4621 944.882 36.0905 948.033 Q39.6872 951.184 46.212 951.184 Q52.7369 951.184 56.3653 948.033 Q59.9619 944.882 59.9619 939.185 Q59.9619 936.639 59.2935 934.156 Q58.5933 931.642 57.2247 929.159 L62.6355 929.159 Q63.7814 931.61 64.3543 934.252 Q64.9272 936.862 64.9272 939.822 Q64.9272 947.874 59.8664 952.617 Q54.8057 957.359 46.212 957.359 Q37.491 957.359 32.4939 952.585 Q27.4968 947.779 27.4968 939.44 Q27.4968 936.734 28.0697 934.156 Q28.6108 931.578 29.7248 929.159 Z" fill="#ffffff" fill-rule="nonzero" fill-opacity="1" /><path clip-path="url(#clip770)" d="M32.4621 905.16 Q32.4621 909.871 36.1542 912.608 Q39.8145 915.346 46.212 915.346 Q52.6095 915.346 56.3017 912.64 Q59.9619 909.903 59.9619 905.16 Q59.9619 900.482 56.2698 897.744 Q52.5777 895.007 46.212 895.007 Q39.8781 895.007 36.186 897.744 Q32.4621 900.482 32.4621 905.16 M27.4968 905.16 Q27.4968 897.522 32.4621 893.161 Q37.4273 888.801 46.212 888.801 Q54.9649 888.801 59.9619 893.161 Q64.9272 897.522 64.9272 905.16 Q64.9272 912.831 59.9619 917.192 Q54.9649 921.52 46.212 921.52 Q37.4273 921.52 32.4621 917.192 Q27.4968 912.831 27.4968 905.16 Z" fill="#ffffff" fill-rule="nonzero" fill-opacity="1" /><path clip-path="url(#clip770)" d="M33.8307 858.436 Q33.2578 859.423 33.0032 860.6 Q32.7167 861.746 32.7167 863.147 Q32.7167 868.112 35.9632 870.786 Q39.1779 873.427 45.2253 873.427 L64.0042 873.427 L64.0042 879.316 L28.3562 879.316 L28.3562 873.427 L33.8944 873.427 Q30.6479 871.581 29.0883 868.621 Q27.4968 865.661 27.4968 861.428 Q27.4968 860.823 27.5923 860.091 Q27.656 859.359 27.8151 858.468 L33.8307 858.436 Z" fill="#ffffff" fill-rule="nonzero" fill-opacity="1" /><path clip-path="url(#clip770)" d="M33.8307 832.782 Q33.2578 833.769 33.0032 834.947 Q32.7167 836.093 32.7167 837.493 Q32.7167 842.458 35.9632 845.132 Q39.1779 847.774 45.2253 847.774 L64.0042 847.774 L64.0042 853.662 L28.3562 853.662 L28.3562 847.774 L33.8944 847.774 Q30.6479 845.928 29.0883 842.967 Q27.4968 840.007 27.4968 835.774 Q27.4968 835.169 27.5923 834.437 Q27.656 833.705 27.8151 832.814 L33.8307 832.782 Z" fill="#ffffff" fill-rule="nonzero" fill-opacity="1" /><path clip-path="url(#clip770)" d="M44.7161 797.58 L47.5806 797.58 L47.5806 824.507 Q53.6281 824.125 56.8109 820.878 Q59.9619 817.6 59.9619 811.776 Q59.9619 808.402 59.1344 805.251 Q58.3069 802.068 56.6518 798.949 L62.1899 798.949 Q63.5267 802.1 64.227 805.41 Q64.9272 808.72 64.9272 812.126 Q64.9272 820.656 59.9619 825.653 Q54.9967 830.618 46.5303 830.618 Q37.7774 830.618 32.6531 825.907 Q27.4968 821.165 27.4968 813.144 Q27.4968 805.951 32.1438 801.781 Q36.7589 797.58 44.7161 797.58 M42.9973 803.436 Q38.1912 803.5 35.3266 806.142 Q32.4621 808.752 32.4621 813.08 Q32.4621 817.982 35.2312 820.942 Q38.0002 823.87 43.0292 824.316 L42.9973 803.436 Z" fill="#ffffff" fill-rule="nonzero" fill-opacity="1" /><path clip-path="url(#clip770)" d="M14.479 787.968 L14.479 782.111 L64.0042 782.111 L64.0042 787.968 L14.479 787.968 Z" fill="#ffffff" fill-rule="nonzero" fill-opacity="1" /><path clip-path="url(#clip770)" d="M46.0847 753.657 Q46.0847 760.754 47.7079 763.492 Q49.3312 766.229 53.2461 766.229 Q56.3653 766.229 58.2114 764.192 Q60.0256 762.123 60.0256 758.59 Q60.0256 753.72 56.5881 750.792 Q53.1188 747.832 47.3897 747.832 L46.0847 747.832 L46.0847 753.657 M43.6657 741.976 L64.0042 741.976 L64.0042 747.832 L58.5933 747.832 Q61.8398 749.837 63.3994 752.829 Q64.9272 755.821 64.9272 760.15 Q64.9272 765.624 61.8716 768.871 Q58.7843 772.085 53.6281 772.085 Q47.6125 772.085 44.5569 768.075 Q41.5014 764.033 41.5014 756.044 L41.5014 747.832 L40.9285 747.832 Q36.8862 747.832 34.6901 750.506 Q32.4621 753.147 32.4621 757.953 Q32.4621 761.009 33.1941 763.905 Q33.9262 766.802 35.3903 769.475 L29.9795 769.475 Q28.7381 766.261 28.1334 763.237 Q27.4968 760.213 27.4968 757.349 Q27.4968 749.614 31.5072 745.795 Q35.5176 741.976 43.6657 741.976 Z" fill="#ffffff" fill-rule="nonzero" fill-opacity="1" /><path clip-path="url(#clip770)" d="M18.2347 724.12 L28.3562 724.12 L28.3562 712.057 L32.9077 712.057 L32.9077 724.12 L52.2594 724.12 Q56.6199 724.12 57.8613 722.942 Q59.1026 721.733 59.1026 718.072 L59.1026 712.057 L64.0042 712.057 L64.0042 718.072 Q64.0042 724.852 61.4897 727.43 Q58.9434 730.008 52.2594 730.008 L32.9077 730.008 L32.9077 734.305 L28.3562 734.305 L28.3562 730.008 L18.2347 730.008 L18.2347 724.12 Z" fill="#ffffff" fill-rule="nonzero" fill-opacity="1" /><path clip-path="url(#clip770)" d="M28.3562 704.354 L28.3562 698.498 L64.0042 698.498 L64.0042 704.354 L28.3562 704.354 M14.479 704.354 L14.479 698.498 L21.895 698.498 L21.895 704.354 L14.479 704.354 Z" fill="#ffffff" fill-rule="nonzero" fill-opacity="1" /><path clip-path="url(#clip770)" d="M32.4621 672.43 Q32.4621 677.141 36.1542 679.878 Q39.8145 682.615 46.212 682.615 Q52.6095 682.615 56.3017 679.91 Q59.9619 677.173 59.9619 672.43 Q59.9619 667.751 56.2698 665.014 Q52.5777 662.277 46.212 662.277 Q39.8781 662.277 36.186 665.014 Q32.4621 667.751 32.4621 672.43 M27.4968 672.43 Q27.4968 664.791 32.4621 660.431 Q37.4273 656.07 46.212 656.07 Q54.9649 656.07 59.9619 660.431 Q64.9272 664.791 64.9272 672.43 Q64.9272 680.101 59.9619 684.461 Q54.9649 688.79 46.212 688.79 Q37.4273 688.79 32.4621 684.461 Q27.4968 680.101 27.4968 672.43 Z" fill="#ffffff" fill-rule="nonzero" fill-opacity="1" /><path clip-path="url(#clip770)" d="M42.4881 616.73 L64.0042 616.73 L64.0042 622.587 L42.679 622.587 Q37.6183 622.587 35.1038 624.56 Q32.5894 626.533 32.5894 630.48 Q32.5894 635.223 35.6131 637.96 Q38.6368 640.697 43.8567 640.697 L64.0042 640.697 L64.0042 646.585 L28.3562 646.585 L28.3562 640.697 L33.8944 640.697 Q30.6797 638.596 29.0883 635.764 Q27.4968 632.899 27.4968 629.175 Q27.4968 623.032 31.3163 619.881 Q35.1038 616.73 42.4881 616.73 Z" fill="#ffffff" fill-rule="nonzero" fill-opacity="1" /><path clip-path="url(#clip770)" d="M14.1925 576.785 L79.3773 576.785 L79.3773 582.196 L14.1925 582.196 L14.1925 576.785 Z" fill="#ffffff" fill-rule="nonzero" fill-opacity="1" /><path clip-path="url(#clip770)" d="M45.7664 538.909 Q39.4007 538.909 35.8996 541.551 Q32.3984 544.161 32.3984 548.904 Q32.3984 553.614 35.8996 556.256 Q39.4007 558.866 45.7664 558.866 Q52.1003 558.866 55.6014 556.256 Q59.1026 553.614 59.1026 548.904 Q59.1026 544.161 55.6014 541.551 Q52.1003 538.909 45.7664 538.909 M59.58 533.053 Q68.683 533.053 73.1071 537.095 Q77.5631 541.137 77.5631 549.477 Q77.5631 552.564 77.0857 555.301 Q76.6401 558.038 75.6852 560.617 L69.9879 560.617 Q71.3884 558.038 72.0568 555.524 Q72.7252 553.01 72.7252 550.4 Q72.7252 544.639 69.7015 541.774 Q66.7096 538.909 60.6303 538.909 L57.7339 538.909 Q60.885 540.724 62.4446 543.556 Q64.0042 546.389 64.0042 550.336 Q64.0042 556.893 59.0071 560.903 Q54.01 564.913 45.7664 564.913 Q37.491 564.913 32.4939 560.903 Q27.4968 556.893 27.4968 550.336 Q27.4968 546.389 29.0564 543.556 Q30.616 540.724 33.7671 538.909 L28.3562 538.909 L28.3562 533.053 L59.58 533.053 Z" fill="#ffffff" fill-rule="nonzero" fill-opacity="1" /><path clip-path="url(#clip770)" d="M33.8307 500.333 Q33.2578 501.32 33.0032 502.498 Q32.7167 503.643 32.7167 505.044 Q32.7167 510.009 35.9632 512.683 Q39.1779 515.325 45.2253 515.325 L64.0042 515.325 L64.0042 521.213 L28.3562 521.213 L28.3562 515.325 L33.8944 515.325 Q30.6479 513.478 29.0883 510.518 Q27.4968 507.558 27.4968 503.325 Q27.4968 502.72 27.5923 501.988 Q27.656 501.256 27.8151 500.365 L33.8307 500.333 Z" fill="#ffffff" fill-rule="nonzero" fill-opacity="1" /><path clip-path="url(#clip770)" d="M32.4621 481.809 Q32.4621 486.52 36.1542 489.257 Q39.8145 491.994 46.212 491.994 Q52.6095 491.994 56.3017 489.289 Q59.9619 486.552 59.9619 481.809 Q59.9619 477.13 56.2698 474.393 Q52.5777 471.656 46.212 471.656 Q39.8781 471.656 36.186 474.393 Q32.4621 477.13 32.4621 481.809 M27.4968 481.809 Q27.4968 474.17 32.4621 469.81 Q37.4273 465.449 46.212 465.449 Q54.9649 465.449 59.9619 469.81 Q64.9272 474.17 64.9272 481.809 Q64.9272 489.48 59.9619 493.84 Q54.9649 498.169 46.212 498.169 Q37.4273 498.169 32.4621 493.84 Q27.4968 489.48 27.4968 481.809 Z" fill="#ffffff" fill-rule="nonzero" fill-opacity="1" /><path clip-path="url(#clip770)" d="M28.3562 459.147 L28.3562 453.291 L56.1743 445.97 L28.3562 438.681 L28.3562 431.775 L56.1743 424.454 L28.3562 417.165 L28.3562 411.309 L64.0042 420.635 L64.0042 427.541 L34.7856 435.212 L64.0042 442.915 L64.0042 449.821 L28.3562 459.147 Z" fill="#ffffff" fill-rule="nonzero" fill-opacity="1" /><path clip-path="url(#clip770)" d="M18.2347 396.636 L28.3562 396.636 L28.3562 384.573 L32.9077 384.573 L32.9077 396.636 L52.2594 396.636 Q56.6199 396.636 57.8613 395.458 Q59.1026 394.249 59.1026 390.589 L59.1026 384.573 L64.0042 384.573 L64.0042 390.589 Q64.0042 397.368 61.4897 399.946 Q58.9434 402.524 52.2594 402.524 L32.9077 402.524 L32.9077 406.821 L28.3562 406.821 L28.3562 402.524 L18.2347 402.524 L18.2347 396.636 Z" fill="#ffffff" fill-rule="nonzero" fill-opacity="1" /><path clip-path="url(#clip770)" d="M42.4881 347.238 L64.0042 347.238 L64.0042 353.095 L42.679 353.095 Q37.6183 353.095 35.1038 355.068 Q32.5894 357.041 32.5894 360.988 Q32.5894 365.73 35.6131 368.468 Q38.6368 371.205 43.8567 371.205 L64.0042 371.205 L64.0042 377.093 L14.479 377.093 L14.479 371.205 L33.8944 371.205 Q30.6797 369.104 29.0883 366.272 Q27.4968 363.407 27.4968 359.683 Q27.4968 353.54 31.3163 350.389 Q35.1038 347.238 42.4881 347.238 Z" fill="#ffffff" fill-rule="nonzero" fill-opacity="1" /><path clip-path="url(#clip770)" d="M14.1925 328.014 L79.3773 328.014 L79.3773 333.424 L14.1925 333.424 L14.1925 328.014 Z" fill="#ffffff" fill-rule="nonzero" fill-opacity="1" /><path clip-path="url(#clip770)" d="M14.5426 278.807 Q21.8632 283.072 29.0246 285.141 Q36.186 287.209 43.5384 287.209 Q50.8908 287.209 58.1159 285.141 Q65.3091 283.04 72.5979 278.807 L72.5979 283.899 Q65.1182 288.674 57.8931 291.061 Q50.668 293.416 43.5384 293.416 Q36.4406 293.416 29.2474 291.061 Q22.0542 288.705 14.5426 283.899 L14.5426 278.807 Z" fill="#ffffff" fill-rule="nonzero" fill-opacity="1" /><path clip-path="url(#clip770)" d="M22.818 251.307 L46.4666 260.028 L46.4666 242.554 L22.818 251.307 M16.4842 254.935 L16.4842 247.647 L64.0042 229.536 L64.0042 236.22 L51.8138 240.549 L51.8138 261.969 L64.0042 266.298 L64.0042 273.078 L16.4842 254.935 Z" fill="#ffffff" fill-rule="nonzero" fill-opacity="1" /><path clip-path="url(#clip770)" d="M16.4842 223.33 L16.4842 216.868 L45.3526 216.868 Q52.9915 216.868 56.3653 214.099 Q59.7073 211.33 59.7073 205.124 Q59.7073 198.949 56.3653 196.18 Q52.9915 193.411 45.3526 193.411 L16.4842 193.411 L16.4842 186.95 L46.1484 186.95 Q55.4423 186.95 60.1847 191.565 Q64.9272 196.148 64.9272 205.124 Q64.9272 214.131 60.1847 218.746 Q55.4423 223.33 46.1484 223.33 L16.4842 223.33 Z" fill="#ffffff" fill-rule="nonzero" fill-opacity="1" /><path clip-path="url(#clip770)" d="M14.5426 176.064 L14.5426 170.972 Q22.0542 166.197 29.2474 163.842 Q36.4406 161.455 43.5384 161.455 Q50.668 161.455 57.8931 163.842 Q65.1182 166.197 72.5979 170.972 L72.5979 176.064 Q65.3091 171.831 58.1159 169.762 Q50.8908 167.661 43.5384 167.661 Q36.186 167.661 29.0246 169.762 Q21.8632 171.831 14.5426 176.064 Z" fill="#ffffff" fill-rule="nonzero" fill-opacity="1" /><polyline clip-path="url(#clip772)" style="stroke:#ffecd1; stroke-linecap:round; stroke-linejoin:round; stroke-width:4; stroke-opacity:1; fill:none" points="315.32,665.165 323.232,665.165 323.232,654.37 331.145,654.37 331.145,715.624 339.057,715.624 339.057,715.66 346.969,715.66 346.969,800.309 354.882,800.309 354.882,785.75 362.794,785.75 362.794,819.867 370.707,819.867 370.707,742.585 378.619,742.585 378.619,788.755 386.531,788.755 386.531,716.828 394.444,716.828 394.444,763.201 402.356,763.201 402.356,755.22 410.268,755.22 410.268,752.073 418.181,752.073 418.181,818.159 426.093,818.159 426.093,831.272 434.006,831.272 434.006,910.172 441.918,910.172 441.918,807.374 449.83,807.374 449.83,803.381 457.743,803.381 457.743,799.074 465.655,799.074 465.655,734.407 473.567,734.407 473.567,882.835 481.48,882.835 481.48,710.504 489.392,710.504 489.392,711.913 497.305,711.913 497.305,737.496 505.217,737.496 505.217,858.123 513.129,858.123 513.129,737.996 521.042,737.996 521.042,826.2 528.954,826.2 528.954,864.507 536.866,864.507 536.866,861.352 544.779,861.352 544.779,802.87 552.691,802.87 552.691,759.161 560.604,759.161 560.604,949.639 568.516,949.639 568.516,845.514 576.428,845.514 576.428,892.438 584.341,892.438 584.341,792.848 592.253,792.848 592.253,930.836 600.165,930.836 600.165,846.667 608.078,846.667 608.078,835.495 615.99,835.495 615.99,857.95 623.903,857.95 623.903,861.93 631.815,861.93 631.815,863.317 639.727,863.317 639.727,907.222 647.64,907.222 647.64,849.688 655.552,849.688 655.552,910.251 663.464,910.251 663.464,806.752 671.377,806.752 671.377,757.265 679.289,757.265 679.289,872.146 687.201,872.146 687.201,769.181 695.114,769.181 695.114,891.256 703.026,891.256 703.026,957.802 710.939,957.802 710.939,878.771 718.851,878.771 718.851,913.226 726.763,913.226 726.763,851.291 734.676,851.291 734.676,922.3 742.588,922.3 742.588,942.32 750.5,942.32 750.5,937.562 758.413,937.562 758.413,933.374 766.325,933.374 766.325,908.803 774.238,908.803 774.238,848.497 782.15,848.497 782.15,916.408 790.062,916.408 790.062,849.383 797.975,849.383 797.975,872.503 805.887,872.503 805.887,790.933 813.799,790.933 813.799,824.06 821.712,824.06 821.712,913.598 829.624,913.598 829.624,884.648 837.537,884.648 837.537,937.627 845.449,937.627 845.449,856.928 853.361,856.928 853.361,977.252 861.274,977.252 861.274,965.186 869.186,965.186 869.186,888.738 877.098,888.738 877.098,958.767 885.011,958.767 885.011,890.392 892.923,890.392 892.923,929.969 900.836,929.969 900.836,897.189 908.748,897.189 908.748,969.209 916.66,969.209 916.66,858.269 924.573,858.269 924.573,922.611 932.485,922.611 932.485,964.789 940.397,964.789 940.397,991.012 948.31,991.012 948.31,906.619 956.222,906.619 956.222,928.614 964.135,928.614 964.135,987.988 972.047,987.988 972.047,955.772 979.959,955.772 979.959,908.247 987.872,908.247 987.872,936.025 995.784,936.025 995.784,1012.81 1003.7,1012.81 1003.7,911.146 1011.61,911.146 1011.61,987.679 1019.52,987.679 1019.52,922.393 1027.43,922.393 1027.43,876.328 1035.35,876.328 1035.35,915.027 1043.26,915.027 1043.26,994.614 1051.17,994.614 1051.17,946.663 1059.08,946.663 1059.08,911.718 1067,911.718 1067,937.218 1074.91,937.218 1074.91,892.552 1082.82,892.552 1082.82,935.971 1090.73,935.971 1090.73,911.768 1098.64,911.768 1098.64,980.771 1106.56,980.771 1106.56,867.834 1114.47,867.834 1114.47,942.587 1122.38,942.587 1122.38,946.274 1130.29,946.274 1130.29,907.775 1138.21,907.775 1138.21,860.739 1146.12,860.739 1146.12,884.658 1154.03,884.658 1154.03,945.742 1161.94,945.742 1161.94,901.991 1169.86,901.991 1169.86,995.714 1177.77,995.714 1177.77,851.017 1185.68,851.017 1185.68,905.117 1193.59,905.117 1193.59,907.009 1201.51,907.009 1201.51,970.768 1209.42,970.768 1209.42,846.064 1217.33,846.064 1217.33,991.804 1225.24,991.804 1225.24,918.596 1233.16,918.596 1233.16,912.255 1241.07,912.255 1241.07,895.765 1248.98,895.765 1248.98,798.733 1256.89,798.733 1256.89,866.794 1264.8,866.794 1264.8,927.93 1272.72,927.93 1272.72,807.976 1280.63,807.976 1280.63,859.711 1288.54,859.711 1288.54,907.164 1296.45,907.164 1296.45,947.354 1304.37,947.354 1304.37,885.137 1312.28,885.137 1312.28,847.388 1320.19,847.388 1320.19,968.202 1328.1,968.202 1328.1,787.662 1336.02,787.662 1336.02,830.038 1343.93,830.038 1343.93,893.135 1351.84,893.135 1351.84,957.677 1359.75,957.677 1359.75,936.664 1367.67,936.664 1367.67,867.501 1375.58,867.501 1375.58,938.899 1383.49,938.899 1383.49,914.738 1391.4,914.738 1391.4,822.661 1399.32,822.661 1399.32,858.752 1407.23,858.752 1407.23,952.532 1415.14,952.532 1415.14,882.13 1423.05,882.13 1423.05,911.412 1430.96,911.412 1430.96,907.16 1438.88,907.16 1438.88,956.288 1446.79,956.288 1446.79,893.121 1454.7,893.121 1454.7,954.218 1462.61,954.218 1462.61,1000.05 1470.53,1000.05 1470.53,1031.41 1478.44,1031.41 1478.44,915.478 1486.35,915.478 1486.35,910.741 1494.26,910.741 1494.26,866.206 1502.18,866.206 1502.18,969.282 1510.09,969.282 1510.09,909.581 1518,909.581 1518,904.039 1525.91,904.039 1525.91,847.259 1533.83,847.259 1533.83,973.291 1541.74,973.291 1541.74,920.672 1549.65,920.672 1549.65,829.332 1557.56,829.332 1557.56,966.175 1565.47,966.175 1565.47,949.072 1573.39,949.072 1573.39,920.337 1581.3,920.337 1581.3,855.764 1589.21,855.764 1589.21,973.193 1597.12,973.193 1597.12,958.709 1605.04,958.709 1605.04,812.577 1612.95,812.577 1612.95,951.244 1620.86,951.244 1620.86,919.737 1628.77,919.737 1628.77,973.846 1636.69,973.846 1636.69,955.459 1644.6,955.459 1644.6,899.658 1652.51,899.658 1652.51,1000.81 1660.42,1000.81 1660.42,1013.08 1668.34,1013.08 1668.34,1021.2 1676.25,1021.2 1676.25,946.925 1684.16,946.925 1684.16,986.875 1692.07,986.875 1692.07,992.825 1699.99,992.825 1699.99,828.509 1707.9,828.509 1707.9,934.827 1715.81,934.827 1715.81,992.144 1723.72,992.144 1723.72,929.532 1731.63,929.532 1731.63,975.418 1739.55,975.418 1739.55,916.354 1747.46,916.354 1747.46,969.584 1755.37,969.584 1755.37,818.83 1763.28,818.83 1763.28,980.93 1771.2,980.93 1771.2,889.171 1779.11,889.171 1779.11,861.479 1787.02,861.479 1787.02,789.066 1794.93,789.066 1794.93,891.29 1802.85,891.29 1802.85,917.483 1810.76,917.483 1810.76,1041.9 1818.67,1041.9 1818.67,966.373 1826.58,966.373 1826.58,927.743 1834.5,927.743 1834.5,898.871 1842.41,898.871 1842.41,938.366 1850.32,938.366 1850.32,951.371 1858.23,951.371 1858.23,930.21 1866.14,930.21 1866.14,968.213 1874.06,968.213 1874.06,956.765 1881.97,956.765 1881.97,874.755 1889.88,874.755 1889.88,968.675 1897.79,968.675 1897.79,906.774 1905.71,906.774 1905.71,1017.64 1913.62,1017.64 1913.62,900.682 1921.53,900.682 1921.53,992.148 1929.44,992.148 1929.44,1011.74 1937.36,1011.74 1937.36,1033.05 1945.27,1033.05 1945.27,1007.77 1953.18,1007.77 1953.18,1064.75 1961.09,1064.75 1961.09,980.445 1969.01,980.445 1969.01,903.094 1976.92,903.094 1976.92,829.06 1984.83,829.06 1984.83,901.75 1992.74,901.75 1992.74,1030.69 2000.66,1030.69 2000.66,939.977 2008.57,939.977 2008.57,945.097 2016.48,945.097 2016.48,973.968 2024.39,973.968 2024.39,937.061 2032.3,937.061 2032.3,993.622 2040.22,993.622 2040.22,932.87 2048.13,932.87 2048.13,1030.85 2056.04,1030.85 2056.04,794.479 2063.95,794.479 2063.95,904.145 2071.87,904.145 2071.87,995.017 2079.78,995.017 2079.78,1032.17 2087.69,1032.17 2087.69,1004.32 2095.6,1004.32 2095.6,1037.37 2103.52,1037.37 2103.52,979.133 2111.43,979.133 2111.43,928.02 2119.34,928.02 2119.34,890.205 2127.25,890.205 2127.25,976.277 2135.17,976.277 2135.17,963.35 2143.08,963.35 2143.08,904.938 2150.99,904.938 2150.99,1019.4 2158.9,1019.4 2158.9,900.286 2166.82,900.286 2166.82,1080.16 2174.73,1080.16 2174.73,1002.4 2182.64,1002.4 2182.64,1001.06 2190.55,1001.06 2190.55,969.09 2198.46,969.09 2198.46,974.155 2206.38,974.155 2206.38,987.748 2214.29,987.748 2214.29,876.114 2222.2,876.114 2222.2,952.512 2230.11,952.512 2230.11,1027.67 2238.03,1027.67 2238.03,978.428 2245.94,978.428 2245.94,957.777 2253.85,957.777 2253.85,1004.21 2261.76,1004.21 2261.76,1021.46 2269.68,1021.46 2269.68,891.447 2277.59,891.447 2277.59,959.022 2285.5,959.022 2285.5,981.183 2293.41,981.183 2293.41,926.806 "/>
<polyline clip-path="url(#clip772)" style="stroke:#06d6a0; stroke-linecap:round; stroke-linejoin:round; stroke-width:4; stroke-opacity:1; fill:none" points="315.32,86.1857 323.232,86.1857 323.232,313.166 331.145,313.166 331.145,332.413 339.057,332.413 339.057,340.457 346.969,340.457 346.969,386.227 354.882,386.227 354.882,397.713 362.794,397.713 362.794,470.3 370.707,470.3 370.707,473.43 378.619,473.43 378.619,481.059 386.531,481.059 386.531,470.123 394.444,470.123 394.444,514.276 402.356,514.276 402.356,474.488 410.268,474.488 410.268,421.465 418.181,421.465 418.181,462.545 426.093,462.545 426.093,492.201 434.006,492.201 434.006,512.55 441.918,512.55 441.918,459.39 449.83,459.39 449.83,496.198 457.743,496.198 457.743,471.504 465.655,471.504 465.655,568.399 473.567,568.399 473.567,573.521 481.48,573.521 481.48,588.853 489.392,588.853 489.392,596.484 497.305,596.484 497.305,640.042 505.217,640.042 505.217,627.361 513.129,627.361 513.129,637.99 521.042,637.99 521.042,681.766 528.954,681.766 528.954,688.909 536.866,688.909 536.866,769.058 544.779,769.058 544.779,691.155 552.691,691.155 552.691,740.5 560.604,740.5 560.604,685.302 568.516,685.302 568.516,665.656 576.428,665.656 576.428,675.3 584.341,675.3 584.341,749.069 592.253,749.069 592.253,731.981 600.165,731.981 600.165,778.197 608.078,778.197 608.078,781.409 615.99,781.409 615.99,828.272 623.903,828.272 623.903,814.842 631.815,814.842 631.815,834.994 639.727,834.994 639.727,888.995 647.64,888.995 647.64,780.965 655.552,780.965 655.552,862.873 663.464,862.873 663.464,896.441 671.377,896.441 671.377,867.941 679.289,867.941 679.289,895.672 687.201,895.672 687.201,856.029 695.114,856.029 695.114,939.526 703.026,939.526 703.026,918.752 710.939,918.752 710.939,920.252 718.851,920.252 718.851,993.069 726.763,993.069 726.763,994.501 734.676,994.501 734.676,1026.92 742.588,1026.92 742.588,1030.93 750.5,1030.93 750.5,1007.96 758.413,1007.96 758.413,947.949 766.325,947.949 766.325,1095.97 774.238,1095.97 774.238,1058.15 782.15,1058.15 782.15,990.689 790.062,990.689 790.062,988.531 797.975,988.531 797.975,991.23 805.887,991.23 805.887,1019.16 813.799,1019.16 813.799,1110.1 821.712,1110.1 821.712,1092.49 829.624,1092.49 829.624,1063.87 837.537,1063.87 837.537,1090.37 845.449,1090.37 845.449,1044.42 853.361,1044.42 853.361,1103.47 861.274,1103.47 861.274,1051.08 869.186,1051.08 869.186,1125.35 877.098,1125.35 877.098,1201.5 885.011,1201.5 885.011,1158.42 892.923,1158.42 892.923,1057.56 900.836,1057.56 900.836,1107.07 908.748,1107.07 908.748,1074.81 916.66,1074.81 916.66,1065.86 924.573,1065.86 924.573,1077.01 932.485,1077.01 932.485,1051.82 940.397,1051.82 940.397,1070.38 948.31,1070.38 948.31,1069.35 956.222,1069.35 956.222,1037.24 964.135,1037.24 964.135,1022.25 972.047,1022.25 972.047,1052.63 979.959,1052.63 979.959,1051.14 987.872,1051.14 987.872,1102.97 995.784,1102.97 995.784,1121.91 1003.7,1121.91 1003.7,1207.3 1011.61,1207.3 1011.61,1154.87 1019.52,1154.87 1019.52,1169.96 1027.43,1169.96 1027.43,1127.29 1035.35,1127.29 1035.35,1099.65 1043.26,1099.65 1043.26,1124.9 1051.17,1124.9 1051.17,1112.88 1059.08,1112.88 1059.08,992.757 1067,992.757 1067,1045.53 1074.91,1045.53 1074.91,970.516 1082.82,970.516 1082.82,974.08 1090.73,974.08 1090.73,1009.33 1098.64,1009.33 1098.64,1081.56 1106.56,1081.56 1106.56,1058.15 1114.47,1058.15 1114.47,1032.07 1122.38,1032.07 1122.38,1020.94 1130.29,1020.94 1130.29,1103.39 1138.21,1103.39 1138.21,1145.55 1146.12,1145.55 1146.12,1187.37 1154.03,1187.37 1154.03,1164.41 1161.94,1164.41 1161.94,1111.37 1169.86,1111.37 1169.86,1156.16 1177.77,1156.16 1177.77,1077.9 1185.68,1077.9 1185.68,1103.09 1193.59,1103.09 1193.59,1078.61 1201.51,1078.61 1201.51,1056.61 1209.42,1056.61 1209.42,1136.08 1217.33,1136.08 1217.33,1104.56 1225.24,1104.56 1225.24,1102.77 1233.16,1102.77 1233.16,1128.91 1241.07,1128.91 1241.07,1075.86 1248.98,1075.86 1248.98,1117.46 1256.89,1117.46 1256.89,1110.36 1264.8,1110.36 1264.8,1112.58 1272.72,1112.58 1272.72,1088.84 1280.63,1088.84 1280.63,1094.99 1288.54,1094.99 1288.54,1132.81 1296.45,1132.81 1296.45,1016.48 1304.37,1016.48 1304.37,1164.85 1312.28,1164.85 1312.28,1206.38 1320.19,1206.38 1320.19,1093 1328.1,1093 1328.1,1092.32 1336.02,1092.32 1336.02,1060.54 1343.93,1060.54 1343.93,1079.35 1351.84,1079.35 1351.84,1147.64 1359.75,1147.64 1359.75,1110.7 1367.67,1110.7 1367.67,1104.27 1375.58,1104.27 1375.58,1085.81 1383.49,1085.81 1383.49,1130.21 1391.4,1130.21 1391.4,1119.39 1399.32,1119.39 1399.32,1123.57 1407.23,1123.57 1407.23,1124.99 1415.14,1124.99 1415.14,1157.72 1423.05,1157.72 1423.05,1136.97 1430.96,1136.97 1430.96,1194 1438.88,1194 1438.88,1103.88 1446.79,1103.88 1446.79,1091.33 1454.7,1091.33 1454.7,1124.47 1462.61,1124.47 1462.61,1102.18 1470.53,1102.18 1470.53,1111.87 1478.44,1111.87 1478.44,1098.44 1486.35,1098.44 1486.35,1081.84 1494.26,1081.84 1494.26,1080.55 1502.18,1080.55 1502.18,1079.4 1510.09,1079.4 1510.09,1065.34 1518,1065.34 1518,1055.44 1525.91,1055.44 1525.91,1139.53 1533.83,1139.53 1533.83,1085.85 1541.74,1085.85 1541.74,1105.57 1549.65,1105.57 1549.65,1100.07 1557.56,1100.07 1557.56,1130.06 1565.47,1130.06 1565.47,1168.74 1573.39,1168.74 1573.39,1143.66 1581.3,1143.66 1581.3,1074.07 1589.21,1074.07 1589.21,1114.55 1597.12,1114.55 1597.12,1113.56 1605.04,1113.56 1605.04,1069.92 1612.95,1069.92 1612.95,1145.58 1620.86,1145.58 1620.86,1094.9 1628.77,1094.9 1628.77,1084.74 1636.69,1084.74 1636.69,1162.22 1644.6,1162.22 1644.6,1063.12 1652.51,1063.12 1652.51,1044.95 1660.42,1044.95 1660.42,1104.76 1668.34,1104.76 1668.34,1132.58 1676.25,1132.58 1676.25,1125.73 1684.16,1125.73 1684.16,1108.51 1692.07,1108.51 1692.07,1126.59 1699.99,1126.59 1699.99,1141.17 1707.9,1141.17 1707.9,1146.5 1715.81,1146.5 1715.81,1107.44 1723.72,1107.44 1723.72,1200.47 1731.63,1200.47 1731.63,1113.48 1739.55,1113.48 1739.55,1084.67 1747.46,1084.67 1747.46,1129.64 1755.37,1129.64 1755.37,1184.43 1763.28,1184.43 1763.28,1178.28 1771.2,1178.28 1771.2,1127.34 1779.11,1127.34 1779.11,1140.16 1787.02,1140.16 1787.02,1090.37 1794.93,1090.37 1794.93,1148.67 1802.85,1148.67 1802.85,1098.21 1810.76,1098.21 1810.76,1105.7 1818.67,1105.7 1818.67,1099.6 1826.58,1099.6 1826.58,1074.11 1834.5,1074.11 1834.5,1101.07 1842.41,1101.07 1842.41,1085.22 1850.32,1085.22 1850.32,1094.53 1858.23,1094.53 1858.23,1093.56 1866.14,1093.56 1866.14,1054.76 1874.06,1054.76 1874.06,1031.99 1881.97,1031.99 1881.97,1021.19 1889.88,1021.19 1889.88,1060.46 1897.79,1060.46 1897.79,1091.96 1905.71,1091.96 1905.71,1159.88 1913.62,1159.88 1913.62,1164.88 1921.53,1164.88 1921.53,1109.49 1929.44,1109.49 1929.44,1100.35 1937.36,1100.35 1937.36,1091.69 1945.27,1091.69 1945.27,1111.44 1953.18,1111.44 1953.18,1125.95 1961.09,1125.95 1961.09,1091.33 1969.01,1091.33 1969.01,1129.05 1976.92,1129.05 1976.92,1143.69 1984.83,1143.69 1984.83,1121.78 1992.74,1121.78 1992.74,1143.08 2000.66,1143.08 2000.66,1094.59 2008.57,1094.59 2008.57,1135.49 2016.48,1135.49 2016.48,1155.11 2024.39,1155.11 2024.39,1143.34 2032.3,1143.34 2032.3,1050.34 2040.22,1050.34 2040.22,1123.67 2048.13,1123.67 2048.13,1106.19 2056.04,1106.19 2056.04,1067.75 2063.95,1067.75 2063.95,1125.6 2071.87,1125.6 2071.87,1117.48 2079.78,1117.48 2079.78,1078.1 2087.69,1078.1 2087.69,1125.88 2095.6,1125.88 2095.6,1072.16 2103.52,1072.16 2103.52,1085.05 2111.43,1085.05 2111.43,979.009 2119.34,979.009 2119.34,1074.1 2127.25,1074.1 2127.25,1059.16 2135.17,1059.16 2135.17,1074.97 2143.08,1074.97 2143.08,1103.9 2150.99,1103.9 2150.99,1047.16 2158.9,1047.16 2158.9,1086.98 2166.82,1086.98 2166.82,1076.16 2174.73,1076.16 2174.73,1049.32 2182.64,1049.32 2182.64,1023.8 2190.55,1023.8 2190.55,1062.39 2198.46,1062.39 2198.46,1101.54 2206.38,1101.54 2206.38,1065.98 2214.29,1065.98 2214.29,1084.01 2222.2,1084.01 2222.2,1108.53 2230.11,1108.53 2230.11,1023.54 2238.03,1023.54 2238.03,1047.49 2245.94,1047.49 2245.94,1071.91 2253.85,1071.91 2253.85,1022.93 2261.76,1022.93 2261.76,1002.88 2269.68,1002.88 2269.68,1028.23 2277.59,1028.23 2277.59,1027.27 2285.5,1027.27 2285.5,1056.29 2293.41,1056.29 2293.41,1125.93 "/>
<polyline clip-path="url(#clip772)" style="stroke:#ffffff; stroke-linecap:round; stroke-linejoin:round; stroke-width:8; stroke-opacity:1; fill:none" stroke-dasharray="32, 20" points="315.32,689.735 323.232,689.735 331.145,689.735 339.057,689.735 346.969,689.735 354.882,689.735 362.794,689.735 370.707,689.735 378.619,689.735 386.531,689.735 394.444,689.735 402.356,689.735 410.268,689.735 418.181,689.735 426.093,689.735 434.006,689.735 441.918,689.735 449.83,689.735 457.743,689.735 465.655,689.735 473.567,689.735 481.48,689.735 489.392,689.735 497.305,689.735 505.217,689.735 513.129,689.735 521.042,689.735 528.954,689.735 536.866,689.735 544.779,689.735 552.691,689.735 560.604,689.735 568.516,689.735 576.428,689.735 584.341,689.735 592.253,689.735 600.165,689.735 608.078,689.735 615.99,689.735 623.903,689.735 631.815,689.735 639.727,689.735 647.64,689.735 655.552,689.735 663.464,689.735 671.377,689.735 679.289,689.735 687.201,689.735 695.114,689.735 703.026,689.735 710.939,689.735 718.851,689.735 726.763,689.735 734.676,689.735 742.588,689.735 750.5,689.735 758.413,689.735 766.325,689.735 774.238,689.735 782.15,689.735 790.062,689.735 797.975,689.735 805.887,689.735 813.799,689.735 821.712,689.735 829.624,689.735 837.537,689.735 845.449,689.735 853.361,689.735 861.274,689.735 869.186,689.735 877.098,689.735 885.011,689.735 892.923,689.735 900.836,689.735 908.748,689.735 916.66,689.735 924.573,689.735 932.485,689.735 940.397,689.735 948.31,689.735 956.222,689.735 964.135,689.735 972.047,689.735 979.959,689.735 987.872,689.735 995.784,689.735 1003.7,689.735 1011.61,689.735 1019.52,689.735 1027.43,689.735 1035.35,689.735 1043.26,689.735 1051.17,689.735 1059.08,689.735 1067,689.735 1074.91,689.735 1082.82,689.735 1090.73,689.735 1098.64,689.735 1106.56,689.735 1114.47,689.735 1122.38,689.735 1130.29,689.735 1138.21,689.735 1146.12,689.735 1154.03,689.735 1161.94,689.735 1169.86,689.735 1177.77,689.735 1185.68,689.735 1193.59,689.735 1201.51,689.735 1209.42,689.735 1217.33,689.735 1225.24,689.735 1233.16,689.735 1241.07,689.735 1248.98,689.735 1256.89,689.735 1264.8,689.735 1272.72,689.735 1280.63,689.735 1288.54,689.735 1296.45,689.735 1304.37,689.735 1312.28,689.735 1320.19,689.735 1328.1,689.735 1336.02,689.735 1343.93,689.735 1351.84,689.735 1359.75,689.735 1367.67,689.735 1375.58,689.735 1383.49,689.735 1391.4,689.735 1399.32,689.735 1407.23,689.735 1415.14,689.735 1423.05,689.735 1430.96,689.735 1438.88,689.735 1446.79,689.735 1454.7,689.735 1462.61,689.735 1470.53,689.735 1478.44,689.735 1486.35,689.735 1494.26,689.735 1502.18,689.735 1510.09,689.735 1518,689.735 1525.91,689.735 1533.83,689.735 1541.74,689.735 1549.65,689.735 1557.56,689.735 1565.47,689.735 1573.39,689.735 1581.3,689.735 1589.21,689.735 1597.12,689.735 1605.04,689.735 1612.95,689.735 1620.86,689.735 1628.77,689.735 1636.69,689.735 1644.6,689.735 1652.51,689.735 1660.42,689.735 1668.34,689.735 1676.25,689.735 1684.16,689.735 1692.07,689.735 1699.99,689.735 1707.9,689.735 1715.81,689.735 1723.72,689.735 1731.63,689.735 1739.55,689.735 1747.46,689.735 1755.37,689.735 1763.28,689.735 1771.2,689.735 1779.11,689.735 1787.02,689.735 1794.93,689.735 1802.85,689.735 1810.76,689.735 1818.67,689.735 1826.58,689.735 1834.5,689.735 1842.41,689.735 1850.32,689.735 1858.23,689.735 1866.14,689.735 1874.06,689.735 1881.97,689.735 1889.88,689.735 1897.79,689.735 1905.71,689.735 1913.62,689.735 1921.53,689.735 1929.44,689.735 1937.36,689.735 1945.27,689.735 1953.18,689.735 1961.09,689.735 1969.01,689.735 1976.92,689.735 1984.83,689.735 1992.74,689.735 2000.66,689.735 2008.57,689.735 2016.48,689.735 2024.39,689.735 2032.3,689.735 2040.22,689.735 2048.13,689.735 2056.04,689.735 2063.95,689.735 2071.87,689.735 2079.78,689.735 2087.69,689.735 2095.6,689.735 2103.52,689.735 2111.43,689.735 2119.34,689.735 2127.25,689.735 2135.17,689.735 2143.08,689.735 2150.99,689.735 2158.9,689.735 2166.82,689.735 2174.73,689.735 2182.64,689.735 2190.55,689.735 2198.46,689.735 2206.38,689.735 2214.29,689.735 2222.2,689.735 2230.11,689.735 2238.03,689.735 2245.94,689.735 2253.85,689.735 2261.76,689.735 2269.68,689.735 2277.59,689.735 2285.5,689.735 2293.41,689.735 "/>
<polyline clip-path="url(#clip772)" style="stroke:#ffffff; stroke-linecap:round; stroke-linejoin:round; stroke-width:8; stroke-opacity:1; fill:none" stroke-dasharray="32, 20" points="315.32,1384.24 323.232,1384.24 331.145,1384.24 339.057,1384.24 346.969,1384.24 354.882,1384.24 362.794,1384.24 370.707,1384.24 378.619,1384.24 386.531,1384.24 394.444,1384.24 402.356,1384.24 410.268,1384.24 418.181,1384.24 426.093,1384.24 434.006,1384.24 441.918,1384.24 449.83,1384.24 457.743,1384.24 465.655,1384.24 473.567,1384.24 481.48,1384.24 489.392,1384.24 497.305,1384.24 505.217,1384.24 513.129,1384.24 521.042,1384.24 528.954,1384.24 536.866,1384.24 544.779,1384.24 552.691,1384.24 560.604,1384.24 568.516,1384.24 576.428,1384.24 584.341,1384.24 592.253,1384.24 600.165,1384.24 608.078,1384.24 615.99,1384.24 623.903,1384.24 631.815,1384.24 639.727,1384.24 647.64,1384.24 655.552,1384.24 663.464,1384.24 671.377,1384.24 679.289,1384.24 687.201,1384.24 695.114,1384.24 703.026,1384.24 710.939,1384.24 718.851,1384.24 726.763,1384.24 734.676,1384.24 742.588,1384.24 750.5,1384.24 758.413,1384.24 766.325,1384.24 774.238,1384.24 782.15,1384.24 790.062,1384.24 797.975,1384.24 805.887,1384.24 813.799,1384.24 821.712,1384.24 829.624,1384.24 837.537,1384.24 845.449,1384.24 853.361,1384.24 861.274,1384.24 869.186,1384.24 877.098,1384.24 885.011,1384.24 892.923,1384.24 900.836,1384.24 908.748,1384.24 916.66,1384.24 924.573,1384.24 932.485,1384.24 940.397,1384.24 948.31,1384.24 956.222,1384.24 964.135,1384.24 972.047,1384.24 979.959,1384.24 987.872,1384.24 995.784,1384.24 1003.7,1384.24 1011.61,1384.24 1019.52,1384.24 1027.43,1384.24 1035.35,1384.24 1043.26,1384.24 1051.17,1384.24 1059.08,1384.24 1067,1384.24 1074.91,1384.24 1082.82,1384.24 1090.73,1384.24 1098.64,1384.24 1106.56,1384.24 1114.47,1384.24 1122.38,1384.24 1130.29,1384.24 1138.21,1384.24 1146.12,1384.24 1154.03,1384.24 1161.94,1384.24 1169.86,1384.24 1177.77,1384.24 1185.68,1384.24 1193.59,1384.24 1201.51,1384.24 1209.42,1384.24 1217.33,1384.24 1225.24,1384.24 1233.16,1384.24 1241.07,1384.24 1248.98,1384.24 1256.89,1384.24 1264.8,1384.24 1272.72,1384.24 1280.63,1384.24 1288.54,1384.24 1296.45,1384.24 1304.37,1384.24 1312.28,1384.24 1320.19,1384.24 1328.1,1384.24 1336.02,1384.24 1343.93,1384.24 1351.84,1384.24 1359.75,1384.24 1367.67,1384.24 1375.58,1384.24 1383.49,1384.24 1391.4,1384.24 1399.32,1384.24 1407.23,1384.24 1415.14,1384.24 1423.05,1384.24 1430.96,1384.24 1438.88,1384.24 1446.79,1384.24 1454.7,1384.24 1462.61,1384.24 1470.53,1384.24 1478.44,1384.24 1486.35,1384.24 1494.26,1384.24 1502.18,1384.24 1510.09,1384.24 1518,1384.24 1525.91,1384.24 1533.83,1384.24 1541.74,1384.24 1549.65,1384.24 1557.56,1384.24 1565.47,1384.24 1573.39,1384.24 1581.3,1384.24 1589.21,1384.24 1597.12,1384.24 1605.04,1384.24 1612.95,1384.24 1620.86,1384.24 1628.77,1384.24 1636.69,1384.24 1644.6,1384.24 1652.51,1384.24 1660.42,1384.24 1668.34,1384.24 1676.25,1384.24 1684.16,1384.24 1692.07,1384.24 1699.99,1384.24 1707.9,1384.24 1715.81,1384.24 1723.72,1384.24 1731.63,1384.24 1739.55,1384.24 1747.46,1384.24 1755.37,1384.24 1763.28,1384.24 1771.2,1384.24 1779.11,1384.24 1787.02,1384.24 1794.93,1384.24 1802.85,1384.24 1810.76,1384.24 1818.67,1384.24 1826.58,1384.24 1834.5,1384.24 1842.41,1384.24 1850.32,1384.24 1858.23,1384.24 1866.14,1384.24 1874.06,1384.24 1881.97,1384.24 1889.88,1384.24 1897.79,1384.24 1905.71,1384.24 1913.62,1384.24 1921.53,1384.24 1929.44,1384.24 1937.36,1384.24 1945.27,1384.24 1953.18,1384.24 1961.09,1384.24 1969.01,1384.24 1976.92,1384.24 1984.83,1384.24 1992.74,1384.24 2000.66,1384.24 2008.57,1384.24 2016.48,1384.24 2024.39,1384.24 2032.3,1384.24 2040.22,1384.24 2048.13,1384.24 2056.04,1384.24 2063.95,1384.24 2071.87,1384.24 2079.78,1384.24 2087.69,1384.24 2095.6,1384.24 2103.52,1384.24 2111.43,1384.24 2119.34,1384.24 2127.25,1384.24 2135.17,1384.24 2143.08,1384.24 2150.99,1384.24 2158.9,1384.24 2166.82,1384.24 2174.73,1384.24 2182.64,1384.24 2190.55,1384.24 2198.46,1384.24 2206.38,1384.24 2214.29,1384.24 2222.2,1384.24 2230.11,1384.24 2238.03,1384.24 2245.94,1384.24 2253.85,1384.24 2261.76,1384.24 2269.68,1384.24 2277.59,1384.24 2285.5,1384.24 2293.41,1384.24 "/>
<path clip-path="url(#clip770)" d="M1632.45 300.469 L2282.86 300.469 L2282.86 93.1086 L1632.45 93.1086  Z" fill="#31343a" fill-rule="evenodd" fill-opacity="1"/>
<polyline clip-path="url(#clip770)" style="stroke:#000000; stroke-linecap:round; stroke-linejoin:round; stroke-width:4; stroke-opacity:0; fill:none" points="1632.45,300.469 2282.86,300.469 2282.86,93.1086 1632.45,93.1086 1632.45,300.469 "/>
<polyline clip-path="url(#clip770)" style="stroke:#ffecd1; stroke-linecap:round; stroke-linejoin:round; stroke-width:4; stroke-opacity:1; fill:none" points="1655.74,144.949 1795.53,144.949 "/>
<path clip-path="url(#clip770)" d="M1834.85 130.84 Q1829.75 130.84 1826.74 134.636 Q1823.76 138.432 1823.76 144.983 Q1823.76 151.511 1826.74 155.307 Q1829.75 159.104 1834.85 159.104 Q1839.94 159.104 1842.9 155.307 Q1845.89 151.511 1845.89 144.983 Q1845.89 138.432 1842.9 134.636 Q1839.94 130.84 1834.85 130.84 M1834.85 127.044 Q1842.11 127.044 1846.47 131.928 Q1850.82 136.789 1850.82 144.983 Q1850.82 153.155 1846.47 158.039 Q1842.11 162.9 1834.85 162.9 Q1827.55 162.9 1823.18 158.039 Q1818.83 153.178 1818.83 144.983 Q1818.83 136.789 1823.18 131.928 Q1827.55 127.044 1834.85 127.044 Z" fill="#ffffff" fill-rule="nonzero" fill-opacity="1" /><path clip-path="url(#clip770)" d="M1876.56 149.289 Q1876.56 144.59 1874.61 141.928 Q1872.69 139.243 1869.31 139.243 Q1865.93 139.243 1863.99 141.928 Q1862.07 144.59 1862.07 149.289 Q1862.07 153.988 1863.99 156.673 Q1865.93 159.335 1869.31 159.335 Q1872.69 159.335 1874.61 156.673 Q1876.56 153.988 1876.56 149.289 M1862.07 140.238 Q1863.41 137.923 1865.45 136.812 Q1867.51 135.678 1870.35 135.678 Q1875.08 135.678 1878.02 139.428 Q1880.98 143.178 1880.98 149.289 Q1880.98 155.4 1878.02 159.15 Q1875.08 162.9 1870.35 162.9 Q1867.51 162.9 1865.45 161.789 Q1863.41 160.655 1862.07 158.34 L1862.07 162.229 L1857.79 162.229 L1857.79 126.21 L1862.07 126.21 L1862.07 140.238 Z" fill="#ffffff" fill-rule="nonzero" fill-opacity="1" /><path clip-path="url(#clip770)" d="M1904.57 137.067 L1904.57 141.094 Q1902.76 140.169 1900.82 139.706 Q1898.87 139.243 1896.79 139.243 Q1893.62 139.243 1892.02 140.215 Q1890.45 141.187 1890.45 143.131 Q1890.45 144.613 1891.58 145.469 Q1892.72 146.303 1896.14 147.067 L1897.6 147.391 Q1902.14 148.363 1904.04 150.145 Q1905.96 151.905 1905.96 155.076 Q1905.96 158.687 1903.09 160.793 Q1900.24 162.9 1895.24 162.9 Q1893.16 162.9 1890.89 162.483 Q1888.64 162.09 1886.14 161.28 L1886.14 156.881 Q1888.5 158.108 1890.79 158.733 Q1893.09 159.335 1895.33 159.335 Q1898.34 159.335 1899.96 158.317 Q1901.58 157.275 1901.58 155.4 Q1901.58 153.664 1900.4 152.738 Q1899.24 151.812 1895.29 150.956 L1893.8 150.608 Q1889.85 149.775 1888.09 148.062 Q1886.33 146.326 1886.33 143.317 Q1886.33 139.659 1888.92 137.669 Q1891.51 135.678 1896.28 135.678 Q1898.64 135.678 1900.73 136.025 Q1902.81 136.372 1904.57 137.067 Z" fill="#ffffff" fill-rule="nonzero" fill-opacity="1" /><path clip-path="url(#clip770)" d="M1934.91 148.201 L1934.91 150.284 L1915.33 150.284 Q1915.61 154.682 1917.97 156.997 Q1920.35 159.289 1924.59 159.289 Q1927.04 159.289 1929.34 158.687 Q1931.65 158.085 1933.92 156.881 L1933.92 160.909 Q1931.63 161.881 1929.22 162.391 Q1926.81 162.9 1924.34 162.9 Q1918.13 162.9 1914.5 159.289 Q1910.89 155.678 1910.89 149.52 Q1910.89 143.155 1914.31 139.428 Q1917.76 135.678 1923.6 135.678 Q1928.83 135.678 1931.86 139.057 Q1934.91 142.414 1934.91 148.201 M1930.66 146.951 Q1930.61 143.456 1928.69 141.372 Q1926.79 139.289 1923.64 139.289 Q1920.08 139.289 1917.92 141.303 Q1915.79 143.317 1915.47 146.974 L1930.66 146.951 Z" fill="#ffffff" fill-rule="nonzero" fill-opacity="1" /><path clip-path="url(#clip770)" d="M1956.93 140.284 Q1956.21 139.868 1955.35 139.682 Q1954.52 139.474 1953.5 139.474 Q1949.89 139.474 1947.95 141.835 Q1946.03 144.173 1946.03 148.571 L1946.03 162.229 L1941.74 162.229 L1941.74 136.303 L1946.03 136.303 L1946.03 140.331 Q1947.37 137.969 1949.52 136.835 Q1951.67 135.678 1954.75 135.678 Q1955.19 135.678 1955.72 135.747 Q1956.26 135.794 1956.91 135.909 L1956.93 140.284 Z" fill="#ffffff" fill-rule="nonzero" fill-opacity="1" /><path clip-path="url(#clip770)" d="M1958.34 136.303 L1962.85 136.303 L1970.96 158.062 L1979.06 136.303 L1983.57 136.303 L1973.85 162.229 L1968.06 162.229 L1958.34 136.303 Z" fill="#ffffff" fill-rule="nonzero" fill-opacity="1" /><path clip-path="url(#clip770)" d="M2011.63 148.201 L2011.63 150.284 L1992.04 150.284 Q1992.32 154.682 1994.68 156.997 Q1997.07 159.289 2001.3 159.289 Q2003.76 159.289 2006.05 158.687 Q2008.36 158.085 2010.63 156.881 L2010.63 160.909 Q2008.34 161.881 2005.93 162.391 Q2003.53 162.9 2001.05 162.9 Q1994.84 162.9 1991.21 159.289 Q1987.6 155.678 1987.6 149.52 Q1987.6 143.155 1991.03 139.428 Q1994.47 135.678 2000.31 135.678 Q2005.54 135.678 2008.57 139.057 Q2011.63 142.414 2011.63 148.201 M2007.37 146.951 Q2007.32 143.456 2005.4 141.372 Q2003.5 139.289 2000.35 139.289 Q1996.79 139.289 1994.64 141.303 Q1992.51 143.317 1992.18 146.974 L2007.37 146.951 Z" fill="#ffffff" fill-rule="nonzero" fill-opacity="1" /><path clip-path="url(#clip770)" d="M2035.68 140.238 L2035.68 126.21 L2039.94 126.21 L2039.94 162.229 L2035.68 162.229 L2035.68 158.34 Q2034.34 160.655 2032.28 161.789 Q2030.24 162.9 2027.37 162.9 Q2022.67 162.9 2019.71 159.15 Q2016.77 155.4 2016.77 149.289 Q2016.77 143.178 2019.71 139.428 Q2022.67 135.678 2027.37 135.678 Q2030.24 135.678 2032.28 136.812 Q2034.34 137.923 2035.68 140.238 M2021.16 149.289 Q2021.16 153.988 2023.09 156.673 Q2025.03 159.335 2028.41 159.335 Q2031.79 159.335 2033.73 156.673 Q2035.68 153.988 2035.68 149.289 Q2035.68 144.59 2033.73 141.928 Q2031.79 139.243 2028.41 139.243 Q2025.03 139.243 2023.09 141.928 Q2021.16 144.59 2021.16 149.289 Z" fill="#ffffff" fill-rule="nonzero" fill-opacity="1" /><polyline clip-path="url(#clip770)" style="stroke:#06d6a0; stroke-linecap:round; stroke-linejoin:round; stroke-width:4; stroke-opacity:1; fill:none" points="1655.74,196.789 1795.53,196.789 "/>
<path clip-path="url(#clip770)" d="M1841.07 180.643 L1841.07 185.203 Q1838.41 183.93 1836.05 183.305 Q1833.69 182.68 1831.49 182.68 Q1827.67 182.68 1825.59 184.161 Q1823.53 185.643 1823.53 188.374 Q1823.53 190.666 1824.89 191.847 Q1826.28 193.004 1830.12 193.722 L1832.95 194.3 Q1838.18 195.296 1840.66 197.819 Q1843.16 200.319 1843.16 204.532 Q1843.16 209.555 1839.78 212.147 Q1836.42 214.74 1829.92 214.74 Q1827.46 214.74 1824.68 214.184 Q1821.93 213.629 1818.97 212.541 L1818.97 207.726 Q1821.81 209.323 1824.54 210.133 Q1827.28 210.944 1829.92 210.944 Q1833.92 210.944 1836.1 209.37 Q1838.27 207.796 1838.27 204.879 Q1838.27 202.333 1836.7 200.897 Q1835.15 199.462 1831.58 198.745 L1828.73 198.189 Q1823.5 197.147 1821.17 194.925 Q1818.83 192.703 1818.83 188.745 Q1818.83 184.161 1822.04 181.522 Q1825.29 178.884 1830.96 178.884 Q1833.39 178.884 1835.91 179.323 Q1838.43 179.763 1841.07 180.643 Z" fill="#ffffff" fill-rule="nonzero" fill-opacity="1" /><path clip-path="url(#clip770)" d="M1850.26 188.143 L1854.52 188.143 L1854.52 214.069 L1850.26 214.069 L1850.26 188.143 M1850.26 178.05 L1854.52 178.05 L1854.52 183.444 L1850.26 183.444 L1850.26 178.05 Z" fill="#ffffff" fill-rule="nonzero" fill-opacity="1" /><path clip-path="url(#clip770)" d="M1883.62 193.12 Q1885.22 190.249 1887.44 188.884 Q1889.66 187.518 1892.67 187.518 Q1896.72 187.518 1898.92 190.365 Q1901.12 193.189 1901.12 198.421 L1901.12 214.069 L1896.84 214.069 L1896.84 198.559 Q1896.84 194.833 1895.52 193.027 Q1894.2 191.222 1891.49 191.222 Q1888.18 191.222 1886.26 193.421 Q1884.34 195.62 1884.34 199.416 L1884.34 214.069 L1880.05 214.069 L1880.05 198.559 Q1880.05 194.809 1878.73 193.027 Q1877.42 191.222 1874.66 191.222 Q1871.4 191.222 1869.48 193.444 Q1867.55 195.643 1867.55 199.416 L1867.55 214.069 L1863.27 214.069 L1863.27 188.143 L1867.55 188.143 L1867.55 192.171 Q1869.01 189.786 1871.05 188.652 Q1873.09 187.518 1875.89 187.518 Q1878.71 187.518 1880.68 188.953 Q1882.67 190.388 1883.62 193.12 Z" fill="#ffffff" fill-rule="nonzero" fill-opacity="1" /><path clip-path="url(#clip770)" d="M1909.17 203.837 L1909.17 188.143 L1913.43 188.143 L1913.43 203.675 Q1913.43 207.356 1914.87 209.208 Q1916.3 211.036 1919.17 211.036 Q1922.62 211.036 1924.61 208.837 Q1926.63 206.638 1926.63 202.842 L1926.63 188.143 L1930.89 188.143 L1930.89 214.069 L1926.63 214.069 L1926.63 210.087 Q1925.08 212.448 1923.02 213.606 Q1920.98 214.74 1918.27 214.74 Q1913.8 214.74 1911.49 211.962 Q1909.17 209.184 1909.17 203.837 M1919.89 187.518 L1919.89 187.518 Z" fill="#ffffff" fill-rule="nonzero" fill-opacity="1" /><path clip-path="url(#clip770)" d="M1939.66 178.05 L1943.92 178.05 L1943.92 214.069 L1939.66 214.069 L1939.66 178.05 Z" fill="#ffffff" fill-rule="nonzero" fill-opacity="1" /><path clip-path="url(#clip770)" d="M1964.61 201.036 Q1959.45 201.036 1957.46 202.217 Q1955.47 203.397 1955.47 206.245 Q1955.47 208.513 1956.95 209.856 Q1958.46 211.175 1961.03 211.175 Q1964.57 211.175 1966.7 208.675 Q1968.85 206.152 1968.85 201.985 L1968.85 201.036 L1964.61 201.036 M1973.11 199.277 L1973.11 214.069 L1968.85 214.069 L1968.85 210.133 Q1967.39 212.495 1965.22 213.629 Q1963.04 214.74 1959.89 214.74 Q1955.91 214.74 1953.55 212.518 Q1951.21 210.272 1951.21 206.522 Q1951.21 202.147 1954.13 199.925 Q1957.07 197.703 1962.88 197.703 L1968.85 197.703 L1968.85 197.286 Q1968.85 194.347 1966.91 192.749 Q1964.98 191.129 1961.49 191.129 Q1959.27 191.129 1957.16 191.661 Q1955.05 192.194 1953.11 193.259 L1953.11 189.323 Q1955.45 188.421 1957.65 187.981 Q1959.85 187.518 1961.93 187.518 Q1967.55 187.518 1970.33 190.434 Q1973.11 193.351 1973.11 199.277 Z" fill="#ffffff" fill-rule="nonzero" fill-opacity="1" /><path clip-path="url(#clip770)" d="M1986.09 180.782 L1986.09 188.143 L1994.87 188.143 L1994.87 191.453 L1986.09 191.453 L1986.09 205.527 Q1986.09 208.698 1986.95 209.601 Q1987.83 210.504 1990.49 210.504 L1994.87 210.504 L1994.87 214.069 L1990.49 214.069 Q1985.56 214.069 1983.69 212.24 Q1981.81 210.388 1981.81 205.527 L1981.81 191.453 L1978.69 191.453 L1978.69 188.143 L1981.81 188.143 L1981.81 180.782 L1986.09 180.782 Z" fill="#ffffff" fill-rule="nonzero" fill-opacity="1" /><path clip-path="url(#clip770)" d="M2000.47 188.143 L2004.73 188.143 L2004.73 214.069 L2000.47 214.069 L2000.47 188.143 M2000.47 178.05 L2004.73 178.05 L2004.73 183.444 L2000.47 183.444 L2000.47 178.05 Z" fill="#ffffff" fill-rule="nonzero" fill-opacity="1" /><path clip-path="url(#clip770)" d="M2023.69 191.129 Q2020.26 191.129 2018.27 193.814 Q2016.28 196.476 2016.28 201.129 Q2016.28 205.782 2018.25 208.467 Q2020.24 211.129 2023.69 211.129 Q2027.09 211.129 2029.08 208.444 Q2031.07 205.758 2031.07 201.129 Q2031.07 196.522 2029.08 193.837 Q2027.09 191.129 2023.69 191.129 M2023.69 187.518 Q2029.24 187.518 2032.41 191.129 Q2035.59 194.74 2035.59 201.129 Q2035.59 207.495 2032.41 211.129 Q2029.24 214.74 2023.69 214.74 Q2018.11 214.74 2014.94 211.129 Q2011.79 207.495 2011.79 201.129 Q2011.79 194.74 2014.94 191.129 Q2018.11 187.518 2023.69 187.518 Z" fill="#ffffff" fill-rule="nonzero" fill-opacity="1" /><path clip-path="url(#clip770)" d="M2064.2 198.421 L2064.2 214.069 L2059.94 214.069 L2059.94 198.559 Q2059.94 194.879 2058.5 193.05 Q2057.07 191.222 2054.2 191.222 Q2050.75 191.222 2048.76 193.421 Q2046.77 195.62 2046.77 199.416 L2046.77 214.069 L2042.48 214.069 L2042.48 188.143 L2046.77 188.143 L2046.77 192.171 Q2048.29 189.833 2050.35 188.675 Q2052.44 187.518 2055.15 187.518 Q2059.61 187.518 2061.9 190.296 Q2064.2 193.05 2064.2 198.421 Z" fill="#ffffff" fill-rule="nonzero" fill-opacity="1" /><path clip-path="url(#clip770)" d="M2097.99 178.097 Q2094.89 183.421 2093.39 188.629 Q2091.88 193.837 2091.88 199.184 Q2091.88 204.532 2093.39 209.786 Q2094.91 215.018 2097.99 220.319 L2094.29 220.319 Q2090.82 214.879 2089.08 209.624 Q2087.37 204.37 2087.37 199.184 Q2087.37 194.022 2089.08 188.791 Q2090.79 183.56 2094.29 178.097 L2097.99 178.097 Z" fill="#ffffff" fill-rule="nonzero" fill-opacity="1" /><path clip-path="url(#clip770)" d="M2106.26 188.143 L2110.52 188.143 L2110.52 214.069 L2106.26 214.069 L2106.26 188.143 M2106.26 178.05 L2110.52 178.05 L2110.52 183.444 L2106.26 183.444 L2106.26 178.05 Z" fill="#ffffff" fill-rule="nonzero" fill-opacity="1" /><path clip-path="url(#clip770)" d="M2135.05 192.541 L2164.73 192.541 L2164.73 196.43 L2135.05 196.43 L2135.05 192.541 M2135.05 201.985 L2164.73 201.985 L2164.73 205.921 L2135.05 205.921 L2135.05 201.985 Z" fill="#ffffff" fill-rule="nonzero" fill-opacity="1" /><path clip-path="url(#clip770)" d="M2189.94 179.509 L2208.29 179.509 L2208.29 183.444 L2194.22 183.444 L2194.22 191.916 Q2195.24 191.569 2196.26 191.407 Q2197.27 191.222 2198.29 191.222 Q2204.08 191.222 2207.46 194.393 Q2210.84 197.564 2210.84 202.981 Q2210.84 208.559 2207.37 211.661 Q2203.89 214.74 2197.58 214.74 Q2195.4 214.74 2193.13 214.37 Q2190.89 213.999 2188.48 213.258 L2188.48 208.559 Q2190.56 209.694 2192.78 210.249 Q2195.01 210.805 2197.48 210.805 Q2201.49 210.805 2203.83 208.698 Q2206.16 206.592 2206.16 202.981 Q2206.16 199.37 2203.83 197.263 Q2201.49 195.157 2197.48 195.157 Q2195.61 195.157 2193.73 195.573 Q2191.88 195.99 2189.94 196.87 L2189.94 179.509 Z" fill="#ffffff" fill-rule="nonzero" fill-opacity="1" /><path clip-path="url(#clip770)" d="M2230.05 182.587 Q2226.44 182.587 2224.61 186.152 Q2222.81 189.694 2222.81 196.823 Q2222.81 203.93 2224.61 207.495 Q2226.44 211.036 2230.05 211.036 Q2233.69 211.036 2235.49 207.495 Q2237.32 203.93 2237.32 196.823 Q2237.32 189.694 2235.49 186.152 Q2233.69 182.587 2230.05 182.587 M2230.05 178.884 Q2235.86 178.884 2238.92 183.49 Q2242 188.073 2242 196.823 Q2242 205.55 2238.92 210.157 Q2235.86 214.74 2230.05 214.74 Q2224.24 214.74 2221.16 210.157 Q2218.11 205.55 2218.11 196.823 Q2218.11 188.073 2221.16 183.49 Q2224.24 178.884 2230.05 178.884 Z" fill="#ffffff" fill-rule="nonzero" fill-opacity="1" /><path clip-path="url(#clip770)" d="M2248.94 178.097 L2252.64 178.097 Q2256.12 183.56 2257.83 188.791 Q2259.57 194.022 2259.57 199.184 Q2259.57 204.37 2257.83 209.624 Q2256.12 214.879 2252.64 220.319 L2248.94 220.319 Q2252.02 215.018 2253.52 209.786 Q2255.05 204.532 2255.05 199.184 Q2255.05 193.837 2253.52 188.629 Q2252.02 183.421 2248.94 178.097 Z" fill="#ffffff" fill-rule="nonzero" fill-opacity="1" /><polyline clip-path="url(#clip770)" style="stroke:#ffffff; stroke-linecap:round; stroke-linejoin:round; stroke-width:8; stroke-opacity:1; fill:none" stroke-dasharray="32, 20" points="1655.74,248.629 1795.53,248.629 "/>
<path clip-path="url(#clip770)" d="M1821.05 265.191 L1821.05 260.932 Q1822.81 261.765 1824.61 262.205 Q1826.42 262.645 1828.16 262.645 Q1832.79 262.645 1835.22 259.543 Q1837.67 256.418 1838.02 250.075 Q1836.67 252.066 1834.61 253.131 Q1832.55 254.196 1830.05 254.196 Q1824.87 254.196 1821.84 251.071 Q1818.83 247.923 1818.83 242.483 Q1818.83 237.159 1821.98 233.941 Q1825.12 230.724 1830.36 230.724 Q1836.35 230.724 1839.5 235.33 Q1842.67 239.913 1842.67 248.663 Q1842.67 256.835 1838.78 261.719 Q1834.92 266.58 1828.36 266.58 Q1826.61 266.58 1824.8 266.233 Q1822.99 265.885 1821.05 265.191 M1830.36 250.538 Q1833.5 250.538 1835.33 248.386 Q1837.18 246.233 1837.18 242.483 Q1837.18 238.756 1835.33 236.603 Q1833.5 234.427 1830.36 234.427 Q1827.21 234.427 1825.36 236.603 Q1823.53 238.756 1823.53 242.483 Q1823.53 246.233 1825.36 248.386 Q1827.21 250.538 1830.36 250.538 Z" fill="#ffffff" fill-rule="nonzero" fill-opacity="1" /><path clip-path="url(#clip770)" d="M1851.12 231.349 L1869.48 231.349 L1869.48 235.284 L1855.4 235.284 L1855.4 243.756 Q1856.42 243.409 1857.44 243.247 Q1858.46 243.062 1859.48 243.062 Q1865.26 243.062 1868.64 246.233 Q1872.02 249.404 1872.02 254.821 Q1872.02 260.399 1868.55 263.501 Q1865.08 266.58 1858.76 266.58 Q1856.58 266.58 1854.31 266.21 Q1852.07 265.839 1849.66 265.098 L1849.66 260.399 Q1851.74 261.534 1853.97 262.089 Q1856.19 262.645 1858.67 262.645 Q1862.67 262.645 1865.01 260.538 Q1867.35 258.432 1867.35 254.821 Q1867.35 251.21 1865.01 249.103 Q1862.67 246.997 1858.67 246.997 Q1856.79 246.997 1854.92 247.413 Q1853.06 247.83 1851.12 248.71 L1851.12 231.349 Z" fill="#ffffff" fill-rule="nonzero" fill-opacity="1" /><path clip-path="url(#clip770)" d="M1910.63 250.7 Q1908.62 250.7 1907.46 252.413 Q1906.33 254.126 1906.33 257.182 Q1906.33 260.191 1907.46 261.927 Q1908.62 263.64 1910.63 263.64 Q1912.6 263.64 1913.73 261.927 Q1914.89 260.191 1914.89 257.182 Q1914.89 254.149 1913.73 252.436 Q1912.6 250.7 1910.63 250.7 M1910.63 247.761 Q1914.29 247.761 1916.44 250.307 Q1918.6 252.853 1918.6 257.182 Q1918.6 261.51 1916.42 264.057 Q1914.27 266.58 1910.63 266.58 Q1906.93 266.58 1904.78 264.057 Q1902.62 261.51 1902.62 257.182 Q1902.62 252.83 1904.78 250.307 Q1906.95 247.761 1910.63 247.761 M1886.74 233.663 Q1884.75 233.663 1883.6 235.4 Q1882.46 237.112 1882.46 240.122 Q1882.46 243.177 1883.6 244.89 Q1884.73 246.603 1886.74 246.603 Q1888.76 246.603 1889.89 244.89 Q1891.05 243.177 1891.05 240.122 Q1891.05 237.136 1889.89 235.4 Q1888.73 233.663 1886.74 233.663 M1907.65 230.724 L1911.35 230.724 L1889.73 266.58 L1886.03 266.58 L1907.65 230.724 M1886.74 230.724 Q1890.4 230.724 1892.58 233.27 Q1894.75 235.793 1894.75 240.122 Q1894.75 244.497 1892.58 247.02 Q1890.42 249.543 1886.74 249.543 Q1883.06 249.543 1880.91 247.02 Q1878.78 244.474 1878.78 240.122 Q1878.78 235.816 1880.93 233.27 Q1883.09 230.724 1886.74 230.724 Z" fill="#ffffff" fill-rule="nonzero" fill-opacity="1" /><path clip-path="url(#clip770)" d="M1959.41 240.978 L1959.41 244.96 Q1957.6 243.964 1955.77 243.478 Q1953.97 242.969 1952.11 242.969 Q1947.97 242.969 1945.68 245.608 Q1943.39 248.224 1943.39 252.969 Q1943.39 257.714 1945.68 260.353 Q1947.97 262.969 1952.11 262.969 Q1953.97 262.969 1955.77 262.483 Q1957.6 261.973 1959.41 260.978 L1959.41 264.913 Q1957.62 265.747 1955.7 266.163 Q1953.8 266.58 1951.65 266.58 Q1945.79 266.58 1942.35 262.899 Q1938.9 259.219 1938.9 252.969 Q1938.9 246.626 1942.37 242.992 Q1945.86 239.358 1951.93 239.358 Q1953.9 239.358 1955.77 239.775 Q1957.65 240.168 1959.41 240.978 Z" fill="#ffffff" fill-rule="nonzero" fill-opacity="1" /><path clip-path="url(#clip770)" d="M1976.86 242.969 Q1973.43 242.969 1971.44 245.654 Q1969.45 248.316 1969.45 252.969 Q1969.45 257.622 1971.42 260.307 Q1973.41 262.969 1976.86 262.969 Q1980.26 262.969 1982.25 260.284 Q1984.24 257.598 1984.24 252.969 Q1984.24 248.362 1982.25 245.677 Q1980.26 242.969 1976.86 242.969 M1976.86 239.358 Q1982.41 239.358 1985.59 242.969 Q1988.76 246.58 1988.76 252.969 Q1988.76 259.335 1985.59 262.969 Q1982.41 266.58 1976.86 266.58 Q1971.28 266.58 1968.11 262.969 Q1964.96 259.335 1964.96 252.969 Q1964.96 246.58 1968.11 242.969 Q1971.28 239.358 1976.86 239.358 Z" fill="#ffffff" fill-rule="nonzero" fill-opacity="1" /><path clip-path="url(#clip770)" d="M2017.37 250.261 L2017.37 265.909 L2013.11 265.909 L2013.11 250.399 Q2013.11 246.719 2011.67 244.89 Q2010.24 243.062 2007.37 243.062 Q2003.92 243.062 2001.93 245.261 Q1999.94 247.46 1999.94 251.256 L1999.94 265.909 L1995.66 265.909 L1995.66 239.983 L1999.94 239.983 L1999.94 244.011 Q2001.47 241.673 2003.53 240.515 Q2005.61 239.358 2008.32 239.358 Q2012.78 239.358 2015.08 242.136 Q2017.37 244.89 2017.37 250.261 Z" fill="#ffffff" fill-rule="nonzero" fill-opacity="1" /><path clip-path="url(#clip770)" d="M2038.99 229.89 L2038.99 233.432 L2034.91 233.432 Q2032.62 233.432 2031.72 234.358 Q2030.84 235.284 2030.84 237.691 L2030.84 239.983 L2037.85 239.983 L2037.85 243.293 L2030.84 243.293 L2030.84 265.909 L2026.56 265.909 L2026.56 243.293 L2022.48 243.293 L2022.48 239.983 L2026.56 239.983 L2026.56 238.177 Q2026.56 233.849 2028.57 231.881 Q2030.59 229.89 2034.96 229.89 L2038.99 229.89 Z" fill="#ffffff" fill-rule="nonzero" fill-opacity="1" /><path clip-path="url(#clip770)" d="M2042.55 239.983 L2046.81 239.983 L2046.81 265.909 L2042.55 265.909 L2042.55 239.983 M2042.55 229.89 L2046.81 229.89 L2046.81 235.284 L2042.55 235.284 L2042.55 229.89 Z" fill="#ffffff" fill-rule="nonzero" fill-opacity="1" /><path clip-path="url(#clip770)" d="M2072.78 243.918 L2072.78 229.89 L2077.04 229.89 L2077.04 265.909 L2072.78 265.909 L2072.78 262.02 Q2071.44 264.335 2069.38 265.469 Q2067.34 266.58 2064.47 266.58 Q2059.78 266.58 2056.81 262.83 Q2053.87 259.08 2053.87 252.969 Q2053.87 246.858 2056.81 243.108 Q2059.78 239.358 2064.47 239.358 Q2067.34 239.358 2069.38 240.492 Q2071.44 241.603 2072.78 243.918 M2058.27 252.969 Q2058.27 257.668 2060.19 260.353 Q2062.14 263.015 2065.52 263.015 Q2068.9 263.015 2070.84 260.353 Q2072.78 257.668 2072.78 252.969 Q2072.78 248.27 2070.84 245.608 Q2068.9 242.923 2065.52 242.923 Q2062.14 242.923 2060.19 245.608 Q2058.27 248.27 2058.27 252.969 Z" fill="#ffffff" fill-rule="nonzero" fill-opacity="1" /><path clip-path="url(#clip770)" d="M2107.99 251.881 L2107.99 253.964 L2088.41 253.964 Q2088.69 258.362 2091.05 260.677 Q2093.43 262.969 2097.67 262.969 Q2100.12 262.969 2102.41 262.367 Q2104.73 261.765 2107 260.561 L2107 264.589 Q2104.71 265.561 2102.3 266.071 Q2099.89 266.58 2097.41 266.58 Q2091.21 266.58 2087.58 262.969 Q2083.96 259.358 2083.96 253.2 Q2083.96 246.835 2087.39 243.108 Q2090.84 239.358 2096.67 239.358 Q2101.9 239.358 2104.94 242.737 Q2107.99 246.094 2107.99 251.881 M2103.73 250.631 Q2103.69 247.136 2101.77 245.052 Q2099.87 242.969 2096.72 242.969 Q2093.15 242.969 2091 244.983 Q2088.87 246.997 2088.55 250.654 L2103.73 250.631 Z" fill="#ffffff" fill-rule="nonzero" fill-opacity="1" /><path clip-path="url(#clip770)" d="M2136.53 250.261 L2136.53 265.909 L2132.27 265.909 L2132.27 250.399 Q2132.27 246.719 2130.84 244.89 Q2129.4 243.062 2126.53 243.062 Q2123.08 243.062 2121.09 245.261 Q2119.1 247.46 2119.1 251.256 L2119.1 265.909 L2114.82 265.909 L2114.82 239.983 L2119.1 239.983 L2119.1 244.011 Q2120.63 241.673 2122.69 240.515 Q2124.77 239.358 2127.48 239.358 Q2131.95 239.358 2134.24 242.136 Q2136.53 244.89 2136.53 250.261 Z" fill="#ffffff" fill-rule="nonzero" fill-opacity="1" /><path clip-path="url(#clip770)" d="M2163.69 240.978 L2163.69 244.96 Q2161.88 243.964 2160.05 243.478 Q2158.25 242.969 2156.39 242.969 Q2152.25 242.969 2149.96 245.608 Q2147.67 248.224 2147.67 252.969 Q2147.67 257.714 2149.96 260.353 Q2152.25 262.969 2156.39 262.969 Q2158.25 262.969 2160.05 262.483 Q2161.88 261.973 2163.69 260.978 L2163.69 264.913 Q2161.9 265.747 2159.98 266.163 Q2158.08 266.58 2155.93 266.58 Q2150.08 266.58 2146.63 262.899 Q2143.18 259.219 2143.18 252.969 Q2143.18 246.626 2146.65 242.992 Q2150.15 239.358 2156.21 239.358 Q2158.18 239.358 2160.05 239.775 Q2161.93 240.168 2163.69 240.978 Z" fill="#ffffff" fill-rule="nonzero" fill-opacity="1" /><path clip-path="url(#clip770)" d="M2193.27 251.881 L2193.27 253.964 L2173.69 253.964 Q2173.96 258.362 2176.33 260.677 Q2178.71 262.969 2182.95 262.969 Q2185.4 262.969 2187.69 262.367 Q2190.01 261.765 2192.27 260.561 L2192.27 264.589 Q2189.98 265.561 2187.58 266.071 Q2185.17 266.58 2182.69 266.58 Q2176.49 266.58 2172.85 262.969 Q2169.24 259.358 2169.24 253.2 Q2169.24 246.835 2172.67 243.108 Q2176.12 239.358 2181.95 239.358 Q2187.18 239.358 2190.21 242.737 Q2193.27 246.094 2193.27 251.881 M2189.01 250.631 Q2188.96 247.136 2187.04 245.052 Q2185.14 242.969 2182 242.969 Q2178.43 242.969 2176.28 244.983 Q2174.15 246.997 2173.83 250.654 L2189.01 250.631 Z" fill="#ffffff" fill-rule="nonzero" fill-opacity="1" /></svg>
