<?xml version="1.0" encoding="utf-8"?>
<svg xmlns="http://www.w3.org/2000/svg" xmlns:xlink="http://www.w3.org/1999/xlink" width="600" height="400" viewBox="0 0 2400 1600">
<defs>
  <clipPath id="clip950">
    <rect x="0" y="0" width="2400" height="1600"/>
  </clipPath>
</defs>
<path clip-path="url(#clip950)" d="M0 1600 L2400 1600 L2400 8.88178e-14 L0 8.88178e-14  Z" fill="#f2f2f2" fill-rule="evenodd" fill-opacity="1"/>
<defs>
  <clipPath id="clip951">
    <rect x="480" y="0" width="1681" height="1600"/>
  </clipPath>
</defs>
<path clip-path="url(#clip950)" d="M255.977 1423.18 L2352.76 1423.18 L2352.76 47.2441 L255.977 47.2441  Z" fill="#f2f2f2" fill-rule="evenodd" fill-opacity="1"/>
<defs>
  <clipPath id="clip952">
    <rect x="255" y="47" width="2098" height="1377"/>
  </clipPath>
</defs>
<polyline clip-path="url(#clip952)" style="stroke:#000000; stroke-linecap:round; stroke-linejoin:round; stroke-width:2; stroke-opacity:0.1; fill:none" points="307.408,1423.18 307.408,47.2441 "/>
<polyline clip-path="url(#clip952)" style="stroke:#000000; stroke-linecap:round; stroke-linejoin:round; stroke-width:2; stroke-opacity:0.1; fill:none" points="703.026,1423.18 703.026,47.2441 "/>
<polyline clip-path="url(#clip952)" style="stroke:#000000; stroke-linecap:round; stroke-linejoin:round; stroke-width:2; stroke-opacity:0.1; fill:none" points="1098.64,1423.18 1098.64,47.2441 "/>
<polyline clip-path="url(#clip952)" style="stroke:#000000; stroke-linecap:round; stroke-linejoin:round; stroke-width:2; stroke-opacity:0.1; fill:none" points="1494.26,1423.18 1494.26,47.2441 "/>
<polyline clip-path="url(#clip952)" style="stroke:#000000; stroke-linecap:round; stroke-linejoin:round; stroke-width:2; stroke-opacity:0.1; fill:none" points="1889.88,1423.18 1889.88,47.2441 "/>
<polyline clip-path="url(#clip952)" style="stroke:#000000; stroke-linecap:round; stroke-linejoin:round; stroke-width:2; stroke-opacity:0.1; fill:none" points="2285.5,1423.18 2285.5,47.2441 "/>
<polyline clip-path="url(#clip952)" style="stroke:#000000; stroke-linecap:round; stroke-linejoin:round; stroke-width:2; stroke-opacity:0.1; fill:none" points="307.408,1423.18 307.408,47.2441 "/>
<polyline clip-path="url(#clip952)" style="stroke:#000000; stroke-linecap:round; stroke-linejoin:round; stroke-width:2; stroke-opacity:0.1; fill:none" points="703.026,1423.18 703.026,47.2441 "/>
<polyline clip-path="url(#clip952)" style="stroke:#000000; stroke-linecap:round; stroke-linejoin:round; stroke-width:2; stroke-opacity:0.1; fill:none" points="1098.64,1423.18 1098.64,47.2441 "/>
<polyline clip-path="url(#clip952)" style="stroke:#000000; stroke-linecap:round; stroke-linejoin:round; stroke-width:2; stroke-opacity:0.1; fill:none" points="1494.26,1423.18 1494.26,47.2441 "/>
<polyline clip-path="url(#clip952)" style="stroke:#000000; stroke-linecap:round; stroke-linejoin:round; stroke-width:2; stroke-opacity:0.1; fill:none" points="1889.88,1423.18 1889.88,47.2441 "/>
<polyline clip-path="url(#clip952)" style="stroke:#000000; stroke-linecap:round; stroke-linejoin:round; stroke-width:2; stroke-opacity:0.1; fill:none" points="2285.5,1423.18 2285.5,47.2441 "/>
<polyline clip-path="url(#clip952)" style="stroke:#000000; stroke-linecap:round; stroke-linejoin:round; stroke-width:2; stroke-opacity:0.1; fill:none" points="255.977,1302.75 2352.76,1302.75 "/>
<polyline clip-path="url(#clip952)" style="stroke:#000000; stroke-linecap:round; stroke-linejoin:round; stroke-width:2; stroke-opacity:0.1; fill:none" points="255.977,955.499 2352.76,955.499 "/>
<polyline clip-path="url(#clip952)" style="stroke:#000000; stroke-linecap:round; stroke-linejoin:round; stroke-width:2; stroke-opacity:0.1; fill:none" points="255.977,608.254 2352.76,608.254 "/>
<polyline clip-path="url(#clip952)" style="stroke:#000000; stroke-linecap:round; stroke-linejoin:round; stroke-width:2; stroke-opacity:0.1; fill:none" points="255.977,261.008 2352.76,261.008 "/>
<polyline clip-path="url(#clip952)" style="stroke:#000000; stroke-linecap:round; stroke-linejoin:round; stroke-width:2; stroke-opacity:0.1; fill:none" points="255.977,1302.75 2352.76,1302.75 "/>
<polyline clip-path="url(#clip952)" style="stroke:#000000; stroke-linecap:round; stroke-linejoin:round; stroke-width:2; stroke-opacity:0.1; fill:none" points="255.977,955.499 2352.76,955.499 "/>
<polyline clip-path="url(#clip952)" style="stroke:#000000; stroke-linecap:round; stroke-linejoin:round; stroke-width:2; stroke-opacity:0.1; fill:none" points="255.977,608.254 2352.76,608.254 "/>
<polyline clip-path="url(#clip952)" style="stroke:#000000; stroke-linecap:round; stroke-linejoin:round; stroke-width:2; stroke-opacity:0.1; fill:none" points="255.977,261.008 2352.76,261.008 "/>
<polyline clip-path="url(#clip950)" style="stroke:#000000; stroke-linecap:round; stroke-linejoin:round; stroke-width:4; stroke-opacity:1; fill:none" points="255.977,1423.18 2352.76,1423.18 "/>
<polyline clip-path="url(#clip950)" style="stroke:#000000; stroke-linecap:round; stroke-linejoin:round; stroke-width:4; stroke-opacity:1; fill:none" points="255.977,47.2441 2352.76,47.2441 "/>
<polyline clip-path="url(#clip950)" style="stroke:#000000; stroke-linecap:round; stroke-linejoin:round; stroke-width:4; stroke-opacity:1; fill:none" points="307.408,1423.18 307.408,1404.28 "/>
<polyline clip-path="url(#clip950)" style="stroke:#000000; stroke-linecap:round; stroke-linejoin:round; stroke-width:4; stroke-opacity:1; fill:none" points="703.026,1423.18 703.026,1404.28 "/>
<polyline clip-path="url(#clip950)" style="stroke:#000000; stroke-linecap:round; stroke-linejoin:round; stroke-width:4; stroke-opacity:1; fill:none" points="1098.64,1423.18 1098.64,1404.28 "/>
<polyline clip-path="url(#clip950)" style="stroke:#000000; stroke-linecap:round; stroke-linejoin:round; stroke-width:4; stroke-opacity:1; fill:none" points="1494.26,1423.18 1494.26,1404.28 "/>
<polyline clip-path="url(#clip950)" style="stroke:#000000; stroke-linecap:round; stroke-linejoin:round; stroke-width:4; stroke-opacity:1; fill:none" points="1889.88,1423.18 1889.88,1404.28 "/>
<polyline clip-path="url(#clip950)" style="stroke:#000000; stroke-linecap:round; stroke-linejoin:round; stroke-width:4; stroke-opacity:1; fill:none" points="2285.5,1423.18 2285.5,1404.28 "/>
<polyline clip-path="url(#clip950)" style="stroke:#000000; stroke-linecap:round; stroke-linejoin:round; stroke-width:4; stroke-opacity:1; fill:none" points="307.408,47.2441 307.408,66.1417 "/>
<polyline clip-path="url(#clip950)" style="stroke:#000000; stroke-linecap:round; stroke-linejoin:round; stroke-width:4; stroke-opacity:1; fill:none" points="703.026,47.2441 703.026,66.1417 "/>
<polyline clip-path="url(#clip950)" style="stroke:#000000; stroke-linecap:round; stroke-linejoin:round; stroke-width:4; stroke-opacity:1; fill:none" points="1098.64,47.2441 1098.64,66.1417 "/>
<polyline clip-path="url(#clip950)" style="stroke:#000000; stroke-linecap:round; stroke-linejoin:round; stroke-width:4; stroke-opacity:1; fill:none" points="1494.26,47.2441 1494.26,66.1417 "/>
<polyline clip-path="url(#clip950)" style="stroke:#000000; stroke-linecap:round; stroke-linejoin:round; stroke-width:4; stroke-opacity:1; fill:none" points="1889.88,47.2441 1889.88,66.1417 "/>
<polyline clip-path="url(#clip950)" style="stroke:#000000; stroke-linecap:round; stroke-linejoin:round; stroke-width:4; stroke-opacity:1; fill:none" points="2285.5,47.2441 2285.5,66.1417 "/>
<path clip-path="url(#clip950)" d="M307.408 1454.1 Q303.797 1454.1 301.968 1457.66 Q300.162 1461.2 300.162 1468.33 Q300.162 1475.44 301.968 1479.01 Q303.797 1482.55 307.408 1482.55 Q311.042 1482.55 312.847 1479.01 Q314.676 1475.44 314.676 1468.33 Q314.676 1461.2 312.847 1457.66 Q311.042 1454.1 307.408 1454.1 M307.408 1450.39 Q313.218 1450.39 316.273 1455 Q319.352 1459.58 319.352 1468.33 Q319.352 1477.06 316.273 1481.67 Q313.218 1486.25 307.408 1486.25 Q301.597 1486.25 298.519 1481.67 Q295.463 1477.06 295.463 1468.33 Q295.463 1459.58 298.519 1455 Q301.597 1450.39 307.408 1450.39 Z" fill="#000000" fill-rule="nonzero" fill-opacity="1" /><path clip-path="url(#clip950)" d="M677.725 1451.02 L696.082 1451.02 L696.082 1454.96 L682.008 1454.96 L682.008 1463.43 Q683.026 1463.08 684.045 1462.92 Q685.063 1462.73 686.082 1462.73 Q691.869 1462.73 695.248 1465.9 Q698.628 1469.08 698.628 1474.49 Q698.628 1480.07 695.156 1483.17 Q691.684 1486.25 685.364 1486.25 Q683.188 1486.25 680.92 1485.88 Q678.675 1485.51 676.267 1484.77 L676.267 1480.07 Q678.35 1481.2 680.573 1481.76 Q682.795 1482.32 685.272 1482.32 Q689.276 1482.32 691.614 1480.21 Q693.952 1478.1 693.952 1474.49 Q693.952 1470.88 691.614 1468.77 Q689.276 1466.67 685.272 1466.67 Q683.397 1466.67 681.522 1467.08 Q679.67 1467.5 677.725 1468.38 L677.725 1451.02 Z" fill="#000000" fill-rule="nonzero" fill-opacity="1" /><path clip-path="url(#clip950)" d="M717.841 1454.1 Q714.23 1454.1 712.401 1457.66 Q710.596 1461.2 710.596 1468.33 Q710.596 1475.44 712.401 1479.01 Q714.23 1482.55 717.841 1482.55 Q721.475 1482.55 723.281 1479.01 Q725.109 1475.44 725.109 1468.33 Q725.109 1461.2 723.281 1457.66 Q721.475 1454.1 717.841 1454.1 M717.841 1450.39 Q723.651 1450.39 726.707 1455 Q729.785 1459.58 729.785 1468.33 Q729.785 1477.06 726.707 1481.67 Q723.651 1486.25 717.841 1486.25 Q712.031 1486.25 708.952 1481.67 Q705.897 1477.06 705.897 1468.33 Q705.897 1459.58 708.952 1455 Q712.031 1450.39 717.841 1450.39 Z" fill="#000000" fill-rule="nonzero" fill-opacity="1" /><path clip-path="url(#clip950)" d="M1058.25 1481.64 L1065.89 1481.64 L1065.89 1455.28 L1057.58 1456.95 L1057.58 1452.69 L1065.84 1451.02 L1070.52 1451.02 L1070.52 1481.64 L1078.16 1481.64 L1078.16 1485.58 L1058.25 1485.58 L1058.25 1481.64 Z" fill="#000000" fill-rule="nonzero" fill-opacity="1" /><path clip-path="url(#clip950)" d="M1097.6 1454.1 Q1093.99 1454.1 1092.16 1457.66 Q1090.36 1461.2 1090.36 1468.33 Q1090.36 1475.44 1092.16 1479.01 Q1093.99 1482.55 1097.6 1482.55 Q1101.24 1482.55 1103.04 1479.01 Q1104.87 1475.44 1104.87 1468.33 Q1104.87 1461.2 1103.04 1457.66 Q1101.24 1454.1 1097.6 1454.1 M1097.6 1450.39 Q1103.41 1450.39 1106.47 1455 Q1109.55 1459.58 1109.55 1468.33 Q1109.55 1477.06 1106.47 1481.67 Q1103.41 1486.25 1097.6 1486.25 Q1091.79 1486.25 1088.71 1481.67 Q1085.66 1477.06 1085.66 1468.33 Q1085.66 1459.58 1088.71 1455 Q1091.79 1450.39 1097.6 1450.39 Z" fill="#000000" fill-rule="nonzero" fill-opacity="1" /><path clip-path="url(#clip950)" d="M1127.77 1454.1 Q1124.15 1454.1 1122.33 1457.66 Q1120.52 1461.2 1120.52 1468.33 Q1120.52 1475.44 1122.33 1479.01 Q1124.15 1482.55 1127.77 1482.55 Q1131.4 1482.55 1133.2 1479.01 Q1135.03 1475.44 1135.03 1468.33 Q1135.03 1461.2 1133.2 1457.66 Q1131.4 1454.1 1127.77 1454.1 M1127.77 1450.39 Q1133.58 1450.39 1136.63 1455 Q1139.71 1459.58 1139.71 1468.33 Q1139.71 1477.06 1136.63 1481.67 Q1133.58 1486.25 1127.77 1486.25 Q1121.95 1486.25 1118.88 1481.67 Q1115.82 1477.06 1115.82 1468.33 Q1115.82 1459.58 1118.88 1455 Q1121.95 1450.39 1127.77 1450.39 Z" fill="#000000" fill-rule="nonzero" fill-opacity="1" /><path clip-path="url(#clip950)" d="M1453.87 1481.64 L1461.51 1481.64 L1461.51 1455.28 L1453.2 1456.95 L1453.2 1452.69 L1461.46 1451.02 L1466.14 1451.02 L1466.14 1481.64 L1473.78 1481.64 L1473.78 1485.58 L1453.87 1485.58 L1453.87 1481.64 Z" fill="#000000" fill-rule="nonzero" fill-opacity="1" /><path clip-path="url(#clip950)" d="M1483.27 1451.02 L1501.62 1451.02 L1501.62 1454.96 L1487.55 1454.96 L1487.55 1463.43 Q1488.57 1463.08 1489.59 1462.92 Q1490.61 1462.73 1491.62 1462.73 Q1497.41 1462.73 1500.79 1465.9 Q1504.17 1469.08 1504.17 1474.49 Q1504.17 1480.07 1500.7 1483.17 Q1497.23 1486.25 1490.91 1486.25 Q1488.73 1486.25 1486.46 1485.88 Q1484.22 1485.51 1481.81 1484.77 L1481.81 1480.07 Q1483.89 1481.2 1486.12 1481.76 Q1488.34 1482.32 1490.81 1482.32 Q1494.82 1482.32 1497.16 1480.21 Q1499.49 1478.1 1499.49 1474.49 Q1499.49 1470.88 1497.16 1468.77 Q1494.82 1466.67 1490.81 1466.67 Q1488.94 1466.67 1487.06 1467.08 Q1485.21 1467.5 1483.27 1468.38 L1483.27 1451.02 Z" fill="#000000" fill-rule="nonzero" fill-opacity="1" /><path clip-path="url(#clip950)" d="M1523.38 1454.1 Q1519.77 1454.1 1517.94 1457.66 Q1516.14 1461.2 1516.14 1468.33 Q1516.14 1475.44 1517.94 1479.01 Q1519.77 1482.55 1523.38 1482.55 Q1527.02 1482.55 1528.82 1479.01 Q1530.65 1475.44 1530.65 1468.33 Q1530.65 1461.2 1528.82 1457.66 Q1527.02 1454.1 1523.38 1454.1 M1523.38 1450.39 Q1529.19 1450.39 1532.25 1455 Q1535.33 1459.58 1535.33 1468.33 Q1535.33 1477.06 1532.25 1481.67 Q1529.19 1486.25 1523.38 1486.25 Q1517.57 1486.25 1514.49 1481.67 Q1511.44 1477.06 1511.44 1468.33 Q1511.44 1459.58 1514.49 1455 Q1517.57 1450.39 1523.38 1450.39 Z" fill="#000000" fill-rule="nonzero" fill-opacity="1" /><path clip-path="url(#clip950)" d="M1853.57 1481.64 L1869.89 1481.64 L1869.89 1485.58 L1847.95 1485.58 L1847.95 1481.64 Q1850.61 1478.89 1855.19 1474.26 Q1859.8 1469.61 1860.98 1468.27 Q1863.23 1465.74 1864.11 1464.01 Q1865.01 1462.25 1865.01 1460.56 Q1865.01 1457.8 1863.07 1456.07 Q1861.14 1454.33 1858.04 1454.33 Q1855.84 1454.33 1853.39 1455.09 Q1850.96 1455.86 1848.18 1457.41 L1848.18 1452.69 Q1851.01 1451.55 1853.46 1450.97 Q1855.91 1450.39 1857.95 1450.39 Q1863.32 1450.39 1866.51 1453.08 Q1869.71 1455.77 1869.71 1460.26 Q1869.71 1462.39 1868.9 1464.31 Q1868.11 1466.2 1866 1468.8 Q1865.43 1469.47 1862.32 1472.69 Q1859.22 1475.88 1853.57 1481.64 Z" fill="#000000" fill-rule="nonzero" fill-opacity="1" /><path clip-path="url(#clip950)" d="M1889.71 1454.1 Q1886.1 1454.1 1884.27 1457.66 Q1882.46 1461.2 1882.46 1468.33 Q1882.46 1475.44 1884.27 1479.01 Q1886.1 1482.55 1889.71 1482.55 Q1893.34 1482.55 1895.15 1479.01 Q1896.98 1475.44 1896.98 1468.33 Q1896.98 1461.2 1895.15 1457.66 Q1893.34 1454.1 1889.71 1454.1 M1889.71 1450.39 Q1895.52 1450.39 1898.57 1455 Q1901.65 1459.58 1901.65 1468.33 Q1901.65 1477.06 1898.57 1481.67 Q1895.52 1486.25 1889.71 1486.25 Q1883.9 1486.25 1880.82 1481.67 Q1877.76 1477.06 1877.76 1468.33 Q1877.76 1459.58 1880.82 1455 Q1883.9 1450.39 1889.71 1450.39 Z" fill="#000000" fill-rule="nonzero" fill-opacity="1" /><path clip-path="url(#clip950)" d="M1919.87 1454.1 Q1916.26 1454.1 1914.43 1457.66 Q1912.63 1461.2 1912.63 1468.33 Q1912.63 1475.44 1914.43 1479.01 Q1916.26 1482.55 1919.87 1482.55 Q1923.5 1482.55 1925.31 1479.01 Q1927.14 1475.44 1927.14 1468.33 Q1927.14 1461.2 1925.31 1457.66 Q1923.5 1454.1 1919.87 1454.1 M1919.87 1450.39 Q1925.68 1450.39 1928.74 1455 Q1931.81 1459.58 1931.81 1468.33 Q1931.81 1477.06 1928.74 1481.67 Q1925.68 1486.25 1919.87 1486.25 Q1914.06 1486.25 1910.98 1481.67 Q1907.93 1477.06 1907.93 1468.33 Q1907.93 1459.58 1910.98 1455 Q1914.06 1450.39 1919.87 1450.39 Z" fill="#000000" fill-rule="nonzero" fill-opacity="1" /><path clip-path="url(#clip950)" d="M2249.19 1481.64 L2265.51 1481.64 L2265.51 1485.58 L2243.57 1485.58 L2243.57 1481.64 Q2246.23 1478.89 2250.81 1474.26 Q2255.42 1469.61 2256.6 1468.27 Q2258.85 1465.74 2259.73 1464.01 Q2260.63 1462.25 2260.63 1460.56 Q2260.63 1457.8 2258.68 1456.07 Q2256.76 1454.33 2253.66 1454.33 Q2251.46 1454.33 2249.01 1455.09 Q2246.58 1455.86 2243.8 1457.41 L2243.8 1452.69 Q2246.62 1451.55 2249.08 1450.97 Q2251.53 1450.39 2253.57 1450.39 Q2258.94 1450.39 2262.13 1453.08 Q2265.33 1455.77 2265.33 1460.26 Q2265.33 1462.39 2264.52 1464.31 Q2263.73 1466.2 2261.62 1468.8 Q2261.04 1469.47 2257.94 1472.69 Q2254.84 1475.88 2249.19 1481.64 Z" fill="#000000" fill-rule="nonzero" fill-opacity="1" /><path clip-path="url(#clip950)" d="M2275.37 1451.02 L2293.73 1451.02 L2293.73 1454.96 L2279.66 1454.96 L2279.66 1463.43 Q2280.67 1463.08 2281.69 1462.92 Q2282.71 1462.73 2283.73 1462.73 Q2289.52 1462.73 2292.9 1465.9 Q2296.28 1469.08 2296.28 1474.49 Q2296.28 1480.07 2292.8 1483.17 Q2289.33 1486.25 2283.01 1486.25 Q2280.84 1486.25 2278.57 1485.88 Q2276.32 1485.51 2273.92 1484.77 L2273.92 1480.07 Q2276 1481.2 2278.22 1481.76 Q2280.44 1482.32 2282.92 1482.32 Q2286.92 1482.32 2289.26 1480.21 Q2291.6 1478.1 2291.6 1474.49 Q2291.6 1470.88 2289.26 1468.77 Q2286.92 1466.67 2282.92 1466.67 Q2281.04 1466.67 2279.17 1467.08 Q2277.32 1467.5 2275.37 1468.38 L2275.37 1451.02 Z" fill="#000000" fill-rule="nonzero" fill-opacity="1" /><path clip-path="url(#clip950)" d="M2315.49 1454.1 Q2311.88 1454.1 2310.05 1457.66 Q2308.24 1461.2 2308.24 1468.33 Q2308.24 1475.44 2310.05 1479.01 Q2311.88 1482.55 2315.49 1482.55 Q2319.12 1482.55 2320.93 1479.01 Q2322.76 1475.44 2322.76 1468.33 Q2322.76 1461.2 2320.93 1457.66 Q2319.12 1454.1 2315.49 1454.1 M2315.49 1450.39 Q2321.3 1450.39 2324.35 1455 Q2327.43 1459.58 2327.43 1468.33 Q2327.43 1477.06 2324.35 1481.67 Q2321.3 1486.25 2315.49 1486.25 Q2309.68 1486.25 2306.6 1481.67 Q2303.54 1477.06 2303.54 1468.33 Q2303.54 1459.58 2306.6 1455 Q2309.68 1450.39 2315.49 1450.39 Z" fill="#000000" fill-rule="nonzero" fill-opacity="1" /><path clip-path="url(#clip950)" d="M1028.21 1520.52 L1034.64 1520.52 L1034.64 1562.63 L1057.77 1562.63 L1057.77 1568.04 L1028.21 1568.04 L1028.21 1520.52 Z" fill="#000000" fill-rule="nonzero" fill-opacity="1" /><path clip-path="url(#clip950)" d="M1080.47 1550.12 Q1073.37 1550.12 1070.63 1551.75 Q1067.9 1553.37 1067.9 1557.29 Q1067.9 1560.4 1069.93 1562.25 Q1072 1564.07 1075.54 1564.07 Q1080.41 1564.07 1083.33 1560.63 Q1086.29 1557.16 1086.29 1551.43 L1086.29 1550.12 L1080.47 1550.12 M1092.15 1547.71 L1092.15 1568.04 L1086.29 1568.04 L1086.29 1562.63 Q1084.29 1565.88 1081.3 1567.44 Q1078.3 1568.97 1073.98 1568.97 Q1068.5 1568.97 1065.25 1565.91 Q1062.04 1562.82 1062.04 1557.67 Q1062.04 1551.65 1066.05 1548.6 Q1070.09 1545.54 1078.08 1545.54 L1086.29 1545.54 L1086.29 1544.97 Q1086.29 1540.93 1083.62 1538.73 Q1080.98 1536.5 1076.17 1536.5 Q1073.12 1536.5 1070.22 1537.23 Q1067.32 1537.97 1064.65 1539.43 L1064.65 1534.02 Q1067.86 1532.78 1070.89 1532.17 Q1073.91 1531.54 1076.78 1531.54 Q1084.51 1531.54 1088.33 1535.55 Q1092.15 1539.56 1092.15 1547.71 Z" fill="#000000" fill-rule="nonzero" fill-opacity="1" /><path clip-path="url(#clip950)" d="M1127.67 1549.81 Q1127.67 1543.44 1125.03 1539.94 Q1122.42 1536.44 1117.68 1536.44 Q1112.97 1536.44 1110.32 1539.94 Q1107.71 1543.44 1107.71 1549.81 Q1107.71 1556.14 1110.32 1559.64 Q1112.97 1563.14 1117.68 1563.14 Q1122.42 1563.14 1125.03 1559.64 Q1127.67 1556.14 1127.67 1549.81 M1133.53 1563.62 Q1133.53 1572.72 1129.48 1577.15 Q1125.44 1581.6 1117.1 1581.6 Q1114.02 1581.6 1111.28 1581.13 Q1108.54 1580.68 1105.96 1579.72 L1105.96 1574.03 Q1108.54 1575.43 1111.06 1576.1 Q1113.57 1576.76 1116.18 1576.76 Q1121.94 1576.76 1124.81 1573.74 Q1127.67 1570.75 1127.67 1564.67 L1127.67 1561.77 Q1125.86 1564.92 1123.02 1566.48 Q1120.19 1568.04 1116.24 1568.04 Q1109.69 1568.04 1105.68 1563.05 Q1101.67 1558.05 1101.67 1549.81 Q1101.67 1541.53 1105.68 1536.53 Q1109.69 1531.54 1116.24 1531.54 Q1120.19 1531.54 1123.02 1533.1 Q1125.86 1534.66 1127.67 1537.81 L1127.67 1532.4 L1133.53 1532.4 L1133.53 1563.62 Z" fill="#000000" fill-rule="nonzero" fill-opacity="1" /><path clip-path="url(#clip950)" d="M1180.38 1518.58 Q1176.11 1525.9 1174.04 1533.06 Q1171.98 1540.23 1171.98 1547.58 Q1171.98 1554.93 1174.04 1562.16 Q1176.15 1569.35 1180.38 1576.64 L1175.29 1576.64 Q1170.51 1569.16 1168.12 1561.93 Q1165.77 1554.71 1165.77 1547.58 Q1165.77 1540.48 1168.12 1533.29 Q1170.48 1526.09 1175.29 1518.58 L1180.38 1518.58 Z" fill="#000000" fill-rule="nonzero" fill-opacity="1" /><path clip-path="url(#clip950)" d="M1197.53 1522.27 L1197.53 1532.4 L1209.6 1532.4 L1209.6 1536.95 L1197.53 1536.95 L1197.53 1556.3 Q1197.53 1560.66 1198.71 1561.9 Q1199.92 1563.14 1203.58 1563.14 L1209.6 1563.14 L1209.6 1568.04 L1203.58 1568.04 Q1196.8 1568.04 1194.22 1565.53 Q1191.65 1562.98 1191.65 1556.3 L1191.65 1536.95 L1187.35 1536.95 L1187.35 1532.4 L1191.65 1532.4 L1191.65 1522.27 L1197.53 1522.27 Z" fill="#000000" fill-rule="nonzero" fill-opacity="1" /><path clip-path="url(#clip950)" d="M1237.96 1537.87 Q1236.97 1537.3 1235.79 1537.04 Q1234.65 1536.76 1233.25 1536.76 Q1228.28 1536.76 1225.61 1540 Q1222.97 1543.22 1222.97 1549.27 L1222.97 1568.04 L1217.08 1568.04 L1217.08 1532.4 L1222.97 1532.4 L1222.97 1537.93 Q1224.81 1534.69 1227.77 1533.13 Q1230.73 1531.54 1234.96 1531.54 Q1235.57 1531.54 1236.3 1531.63 Q1237.03 1531.7 1237.92 1531.85 L1237.96 1537.87 Z" fill="#000000" fill-rule="nonzero" fill-opacity="1" /><path clip-path="url(#clip950)" d="M1260.3 1550.12 Q1253.2 1550.12 1250.46 1551.75 Q1247.73 1553.37 1247.73 1557.29 Q1247.73 1560.4 1249.76 1562.25 Q1251.83 1564.07 1255.37 1564.07 Q1260.24 1564.07 1263.16 1560.63 Q1266.12 1557.16 1266.12 1551.43 L1266.12 1550.12 L1260.3 1550.12 M1271.98 1547.71 L1271.98 1568.04 L1266.12 1568.04 L1266.12 1562.63 Q1264.12 1565.88 1261.13 1567.44 Q1258.14 1568.97 1253.81 1568.97 Q1248.33 1568.97 1245.09 1565.91 Q1241.87 1562.82 1241.87 1557.67 Q1241.87 1551.65 1245.88 1548.6 Q1249.92 1545.54 1257.91 1545.54 L1266.12 1545.54 L1266.12 1544.97 Q1266.12 1540.93 1263.45 1538.73 Q1260.81 1536.5 1256 1536.5 Q1252.95 1536.5 1250.05 1537.23 Q1247.15 1537.97 1244.48 1539.43 L1244.48 1534.02 Q1247.7 1532.78 1250.72 1532.17 Q1253.74 1531.54 1256.61 1531.54 Q1264.34 1531.54 1268.16 1535.55 Q1271.98 1539.56 1271.98 1547.71 Z" fill="#000000" fill-rule="nonzero" fill-opacity="1" /><path clip-path="url(#clip950)" d="M1307.5 1537.81 L1307.5 1518.52 L1313.36 1518.52 L1313.36 1568.04 L1307.5 1568.04 L1307.5 1562.7 Q1305.66 1565.88 1302.82 1567.44 Q1300.02 1568.97 1296.08 1568.97 Q1289.61 1568.97 1285.54 1563.81 Q1281.5 1558.65 1281.5 1550.25 Q1281.5 1541.85 1285.54 1536.69 Q1289.61 1531.54 1296.08 1531.54 Q1300.02 1531.54 1302.82 1533.1 Q1305.66 1534.62 1307.5 1537.81 M1287.55 1550.25 Q1287.55 1556.71 1290.19 1560.4 Q1292.86 1564.07 1297.51 1564.07 Q1302.15 1564.07 1304.83 1560.4 Q1307.5 1556.71 1307.5 1550.25 Q1307.5 1543.79 1304.83 1540.13 Q1302.15 1536.44 1297.51 1536.44 Q1292.86 1536.44 1290.19 1540.13 Q1287.55 1543.79 1287.55 1550.25 Z" fill="#000000" fill-rule="nonzero" fill-opacity="1" /><path clip-path="url(#clip950)" d="M1325.42 1532.4 L1331.28 1532.4 L1331.28 1568.04 L1325.42 1568.04 L1325.42 1532.4 M1325.42 1518.52 L1331.28 1518.52 L1331.28 1525.93 L1325.42 1525.93 L1325.42 1518.52 Z" fill="#000000" fill-rule="nonzero" fill-opacity="1" /><path clip-path="url(#clip950)" d="M1373.16 1546.53 L1373.16 1568.04 L1367.31 1568.04 L1367.31 1546.72 Q1367.31 1541.66 1365.33 1539.14 Q1363.36 1536.63 1359.41 1536.63 Q1354.67 1536.63 1351.93 1539.65 Q1349.2 1542.68 1349.2 1547.9 L1349.2 1568.04 L1343.31 1568.04 L1343.31 1532.4 L1349.2 1532.4 L1349.2 1537.93 Q1351.3 1534.72 1354.13 1533.13 Q1357 1531.54 1360.72 1531.54 Q1366.86 1531.54 1370.01 1535.36 Q1373.16 1539.14 1373.16 1546.53 Z" fill="#000000" fill-rule="nonzero" fill-opacity="1" /><path clip-path="url(#clip950)" d="M1408.3 1549.81 Q1408.3 1543.44 1405.66 1539.94 Q1403.05 1536.44 1398.31 1536.44 Q1393.6 1536.44 1390.96 1539.94 Q1388.35 1543.44 1388.35 1549.81 Q1388.35 1556.14 1390.96 1559.64 Q1393.6 1563.14 1398.31 1563.14 Q1403.05 1563.14 1405.66 1559.64 Q1408.3 1556.14 1408.3 1549.81 M1414.16 1563.62 Q1414.16 1572.72 1410.12 1577.15 Q1406.07 1581.6 1397.74 1581.6 Q1394.65 1581.6 1391.91 1581.13 Q1389.17 1580.68 1386.6 1579.72 L1386.6 1574.03 Q1389.17 1575.43 1391.69 1576.1 Q1394.2 1576.76 1396.81 1576.76 Q1402.57 1576.76 1405.44 1573.74 Q1408.3 1570.75 1408.3 1564.67 L1408.3 1561.77 Q1406.49 1564.92 1403.66 1566.48 Q1400.82 1568.04 1396.88 1568.04 Q1390.32 1568.04 1386.31 1563.05 Q1382.3 1558.05 1382.3 1549.81 Q1382.3 1541.53 1386.31 1536.53 Q1390.32 1531.54 1396.88 1531.54 Q1400.82 1531.54 1403.66 1533.1 Q1406.49 1534.66 1408.3 1537.81 L1408.3 1532.4 L1414.16 1532.4 L1414.16 1563.62 Z" fill="#000000" fill-rule="nonzero" fill-opacity="1" /><path clip-path="url(#clip950)" d="M1470.4 1537.81 L1470.4 1518.52 L1476.26 1518.52 L1476.26 1568.04 L1470.4 1568.04 L1470.4 1562.7 Q1468.55 1565.88 1465.72 1567.44 Q1462.92 1568.97 1458.97 1568.97 Q1452.51 1568.97 1448.44 1563.81 Q1444.4 1558.65 1444.4 1550.25 Q1444.4 1541.85 1448.44 1536.69 Q1452.51 1531.54 1458.97 1531.54 Q1462.92 1531.54 1465.72 1533.1 Q1468.55 1534.62 1470.4 1537.81 M1450.44 1550.25 Q1450.44 1556.71 1453.09 1560.4 Q1455.76 1564.07 1460.41 1564.07 Q1465.05 1564.07 1467.73 1560.4 Q1470.4 1556.71 1470.4 1550.25 Q1470.4 1543.79 1467.73 1540.13 Q1465.05 1536.44 1460.41 1536.44 Q1455.76 1536.44 1453.09 1540.13 Q1450.44 1543.79 1450.44 1550.25 Z" fill="#000000" fill-rule="nonzero" fill-opacity="1" /><path clip-path="url(#clip950)" d="M1504.52 1550.12 Q1497.42 1550.12 1494.69 1551.75 Q1491.95 1553.37 1491.95 1557.29 Q1491.95 1560.4 1493.99 1562.25 Q1496.05 1564.07 1499.59 1564.07 Q1504.46 1564.07 1507.38 1560.63 Q1510.34 1557.16 1510.34 1551.43 L1510.34 1550.12 L1504.52 1550.12 M1516.2 1547.71 L1516.2 1568.04 L1510.34 1568.04 L1510.34 1562.63 Q1508.34 1565.88 1505.35 1567.44 Q1502.36 1568.97 1498.03 1568.97 Q1492.55 1568.97 1489.31 1565.91 Q1486.09 1562.82 1486.09 1557.67 Q1486.09 1551.65 1490.1 1548.6 Q1494.14 1545.54 1502.13 1545.54 L1510.34 1545.54 L1510.34 1544.97 Q1510.34 1540.93 1507.67 1538.73 Q1505.03 1536.5 1500.22 1536.5 Q1497.17 1536.5 1494.27 1537.23 Q1491.38 1537.97 1488.7 1539.43 L1488.7 1534.02 Q1491.92 1532.78 1494.94 1532.17 Q1497.96 1531.54 1500.83 1531.54 Q1508.56 1531.54 1512.38 1535.55 Q1516.2 1539.56 1516.2 1547.71 Z" fill="#000000" fill-rule="nonzero" fill-opacity="1" /><path clip-path="url(#clip950)" d="M1543.1 1571.35 Q1540.61 1577.72 1538.26 1579.66 Q1535.9 1581.6 1531.96 1581.6 L1527.28 1581.6 L1527.28 1576.7 L1530.72 1576.7 Q1533.13 1576.7 1534.47 1575.56 Q1535.81 1574.41 1537.43 1570.14 L1538.48 1567.47 L1524.06 1532.4 L1530.27 1532.4 L1541.41 1560.28 L1552.55 1532.4 L1558.76 1532.4 L1543.1 1571.35 Z" fill="#000000" fill-rule="nonzero" fill-opacity="1" /><path clip-path="url(#clip950)" d="M1565.92 1518.58 L1571.01 1518.58 Q1575.78 1526.09 1578.14 1533.29 Q1580.53 1540.48 1580.53 1547.58 Q1580.53 1554.71 1578.14 1561.93 Q1575.78 1569.16 1571.01 1576.64 L1565.92 1576.64 Q1570.15 1569.35 1572.22 1562.16 Q1574.32 1554.93 1574.32 1547.58 Q1574.32 1540.23 1572.22 1533.06 Q1570.15 1525.9 1565.92 1518.58 Z" fill="#000000" fill-rule="nonzero" fill-opacity="1" /><polyline clip-path="url(#clip950)" style="stroke:#000000; stroke-linecap:round; stroke-linejoin:round; stroke-width:4; stroke-opacity:1; fill:none" points="255.977,1423.18 255.977,47.2441 "/>
<polyline clip-path="url(#clip950)" style="stroke:#000000; stroke-linecap:round; stroke-linejoin:round; stroke-width:4; stroke-opacity:1; fill:none" points="2352.76,1423.18 2352.76,47.2441 "/>
<polyline clip-path="url(#clip950)" style="stroke:#000000; stroke-linecap:round; stroke-linejoin:round; stroke-width:4; stroke-opacity:1; fill:none" points="255.977,1302.75 274.875,1302.75 "/>
<polyline clip-path="url(#clip950)" style="stroke:#000000; stroke-linecap:round; stroke-linejoin:round; stroke-width:4; stroke-opacity:1; fill:none" points="255.977,955.499 274.875,955.499 "/>
<polyline clip-path="url(#clip950)" style="stroke:#000000; stroke-linecap:round; stroke-linejoin:round; stroke-width:4; stroke-opacity:1; fill:none" points="255.977,608.254 274.875,608.254 "/>
<polyline clip-path="url(#clip950)" style="stroke:#000000; stroke-linecap:round; stroke-linejoin:round; stroke-width:4; stroke-opacity:1; fill:none" points="255.977,261.008 274.875,261.008 "/>
<polyline clip-path="url(#clip950)" style="stroke:#000000; stroke-linecap:round; stroke-linejoin:round; stroke-width:4; stroke-opacity:1; fill:none" points="2352.76,1302.75 2333.86,1302.75 "/>
<polyline clip-path="url(#clip950)" style="stroke:#000000; stroke-linecap:round; stroke-linejoin:round; stroke-width:4; stroke-opacity:1; fill:none" points="2352.76,955.499 2333.86,955.499 "/>
<polyline clip-path="url(#clip950)" style="stroke:#000000; stroke-linecap:round; stroke-linejoin:round; stroke-width:4; stroke-opacity:1; fill:none" points="2352.76,608.254 2333.86,608.254 "/>
<polyline clip-path="url(#clip950)" style="stroke:#000000; stroke-linecap:round; stroke-linejoin:round; stroke-width:4; stroke-opacity:1; fill:none" points="2352.76,261.008 2333.86,261.008 "/>
<path clip-path="url(#clip950)" d="M114.26 1303.2 L143.936 1303.2 L143.936 1307.13 L114.26 1307.13 L114.26 1303.2 Z" fill="#000000" fill-rule="nonzero" fill-opacity="1" /><path clip-path="url(#clip950)" d="M164.028 1288.54 Q160.417 1288.54 158.589 1292.11 Q156.783 1295.65 156.783 1302.78 Q156.783 1309.89 158.589 1313.45 Q160.417 1316.99 164.028 1316.99 Q167.663 1316.99 169.468 1313.45 Q171.297 1309.89 171.297 1302.78 Q171.297 1295.65 169.468 1292.11 Q167.663 1288.54 164.028 1288.54 M164.028 1284.84 Q169.839 1284.84 172.894 1289.45 Q175.973 1294.03 175.973 1302.78 Q175.973 1311.51 172.894 1316.11 Q169.839 1320.7 164.028 1320.7 Q158.218 1320.7 155.14 1316.11 Q152.084 1311.51 152.084 1302.78 Q152.084 1294.03 155.14 1289.45 Q158.218 1284.84 164.028 1284.84 Z" fill="#000000" fill-rule="nonzero" fill-opacity="1" /><path clip-path="url(#clip950)" d="M184.19 1314.15 L189.075 1314.15 L189.075 1320.03 L184.19 1320.03 L184.19 1314.15 Z" fill="#000000" fill-rule="nonzero" fill-opacity="1" /><path clip-path="url(#clip950)" d="M200.07 1316.09 L207.709 1316.09 L207.709 1289.72 L199.399 1291.39 L199.399 1287.13 L207.662 1285.47 L212.338 1285.47 L212.338 1316.09 L219.977 1316.09 L219.977 1320.03 L200.07 1320.03 L200.07 1316.09 Z" fill="#000000" fill-rule="nonzero" fill-opacity="1" /><path clip-path="url(#clip950)" d="M162.802 941.298 Q159.19 941.298 157.362 944.863 Q155.556 948.405 155.556 955.534 Q155.556 962.641 157.362 966.205 Q159.19 969.747 162.802 969.747 Q166.436 969.747 168.241 966.205 Q170.07 962.641 170.07 955.534 Q170.07 948.405 168.241 944.863 Q166.436 941.298 162.802 941.298 M162.802 937.594 Q168.612 937.594 171.667 942.201 Q174.746 946.784 174.746 955.534 Q174.746 964.261 171.667 968.867 Q168.612 973.451 162.802 973.451 Q156.991 973.451 153.913 968.867 Q150.857 964.261 150.857 955.534 Q150.857 946.784 153.913 942.201 Q156.991 937.594 162.802 937.594 Z" fill="#000000" fill-rule="nonzero" fill-opacity="1" /><path clip-path="url(#clip950)" d="M182.963 966.9 L187.848 966.9 L187.848 972.779 L182.963 972.779 L182.963 966.9 Z" fill="#000000" fill-rule="nonzero" fill-opacity="1" /><path clip-path="url(#clip950)" d="M208.033 941.298 Q204.422 941.298 202.593 944.863 Q200.787 948.405 200.787 955.534 Q200.787 962.641 202.593 966.205 Q204.422 969.747 208.033 969.747 Q211.667 969.747 213.473 966.205 Q215.301 962.641 215.301 955.534 Q215.301 948.405 213.473 944.863 Q211.667 941.298 208.033 941.298 M208.033 937.594 Q213.843 937.594 216.898 942.201 Q219.977 946.784 219.977 955.534 Q219.977 964.261 216.898 968.867 Q213.843 973.451 208.033 973.451 Q202.223 973.451 199.144 968.867 Q196.088 964.261 196.088 955.534 Q196.088 946.784 199.144 942.201 Q202.223 937.594 208.033 937.594 Z" fill="#000000" fill-rule="nonzero" fill-opacity="1" /><path clip-path="url(#clip950)" d="M164.028 594.052 Q160.417 594.052 158.589 597.617 Q156.783 601.159 156.783 608.288 Q156.783 615.395 158.589 618.96 Q160.417 622.501 164.028 622.501 Q167.663 622.501 169.468 618.96 Q171.297 615.395 171.297 608.288 Q171.297 601.159 169.468 597.617 Q167.663 594.052 164.028 594.052 M164.028 590.349 Q169.839 590.349 172.894 594.955 Q175.973 599.538 175.973 608.288 Q175.973 617.015 172.894 621.622 Q169.839 626.205 164.028 626.205 Q158.218 626.205 155.14 621.622 Q152.084 617.015 152.084 608.288 Q152.084 599.538 155.14 594.955 Q158.218 590.349 164.028 590.349 Z" fill="#000000" fill-rule="nonzero" fill-opacity="1" /><path clip-path="url(#clip950)" d="M184.19 619.654 L189.075 619.654 L189.075 625.534 L184.19 625.534 L184.19 619.654 Z" fill="#000000" fill-rule="nonzero" fill-opacity="1" /><path clip-path="url(#clip950)" d="M200.07 621.598 L207.709 621.598 L207.709 595.233 L199.399 596.9 L199.399 592.64 L207.662 590.974 L212.338 590.974 L212.338 621.598 L219.977 621.598 L219.977 625.534 L200.07 625.534 L200.07 621.598 Z" fill="#000000" fill-rule="nonzero" fill-opacity="1" /><path clip-path="url(#clip950)" d="M164.399 246.807 Q160.788 246.807 158.959 250.371 Q157.153 253.913 157.153 261.043 Q157.153 268.149 158.959 271.714 Q160.788 275.255 164.399 275.255 Q168.033 275.255 169.839 271.714 Q171.667 268.149 171.667 261.043 Q171.667 253.913 169.839 250.371 Q168.033 246.807 164.399 246.807 M164.399 243.103 Q170.209 243.103 173.264 247.709 Q176.343 252.293 176.343 261.043 Q176.343 269.769 173.264 274.376 Q170.209 278.959 164.399 278.959 Q158.589 278.959 155.51 274.376 Q152.454 269.769 152.454 261.043 Q152.454 252.293 155.51 247.709 Q158.589 243.103 164.399 243.103 Z" fill="#000000" fill-rule="nonzero" fill-opacity="1" /><path clip-path="url(#clip950)" d="M184.561 272.408 L189.445 272.408 L189.445 278.288 L184.561 278.288 L184.561 272.408 Z" fill="#000000" fill-rule="nonzero" fill-opacity="1" /><path clip-path="url(#clip950)" d="M203.658 274.353 L219.977 274.353 L219.977 278.288 L198.033 278.288 L198.033 274.353 Q200.695 271.598 205.278 266.968 Q209.885 262.316 211.065 260.973 Q213.311 258.45 214.19 256.714 Q215.093 254.955 215.093 253.265 Q215.093 250.51 213.149 248.774 Q211.227 247.038 208.125 247.038 Q205.926 247.038 203.473 247.802 Q201.042 248.566 198.264 250.117 L198.264 245.394 Q201.088 244.26 203.542 243.682 Q205.996 243.103 208.033 243.103 Q213.403 243.103 216.598 245.788 Q219.792 248.473 219.792 252.964 Q219.792 255.093 218.982 257.015 Q218.195 258.913 216.088 261.505 Q215.51 262.177 212.408 265.394 Q209.306 268.589 203.658 274.353 Z" fill="#000000" fill-rule="nonzero" fill-opacity="1" /><path clip-path="url(#clip950)" d="M22.818 960.972 L46.4666 969.693 L46.4666 952.219 L22.818 960.972 M16.4842 964.6 L16.4842 957.311 L64.0042 939.201 L64.0042 945.885 L51.8138 950.214 L51.8138 971.634 L64.0042 975.963 L64.0042 982.742 L16.4842 964.6 Z" fill="#000000" fill-rule="nonzero" fill-opacity="1" /><path clip-path="url(#clip950)" d="M49.9359 933.122 L28.3562 933.122 L28.3562 927.265 L49.7131 927.265 Q54.7739 927.265 57.3202 925.292 Q59.8346 923.319 59.8346 919.372 Q59.8346 914.629 56.8109 911.892 Q53.7872 909.123 48.5673 909.123 L28.3562 909.123 L28.3562 903.267 L64.0042 903.267 L64.0042 909.123 L58.5296 909.123 Q61.7762 911.256 63.3676 914.088 Q64.9272 916.889 64.9272 920.613 Q64.9272 926.756 61.1078 929.939 Q57.2883 933.122 49.9359 933.122 M27.4968 918.385 L27.4968 918.385 Z" fill="#000000" fill-rule="nonzero" fill-opacity="1" /><path clip-path="url(#clip950)" d="M18.2347 885.411 L28.3562 885.411 L28.3562 873.348 L32.9077 873.348 L32.9077 885.411 L52.2594 885.411 Q56.6199 885.411 57.8613 884.233 Q59.1026 883.024 59.1026 879.363 L59.1026 873.348 L64.0042 873.348 L64.0042 879.363 Q64.0042 886.143 61.4897 888.721 Q58.9434 891.299 52.2594 891.299 L32.9077 891.299 L32.9077 895.596 L28.3562 895.596 L28.3562 891.299 L18.2347 891.299 L18.2347 885.411 Z" fill="#000000" fill-rule="nonzero" fill-opacity="1" /><path clip-path="url(#clip950)" d="M32.4621 851.832 Q32.4621 856.542 36.1542 859.28 Q39.8145 862.017 46.212 862.017 Q52.6095 862.017 56.3017 859.311 Q59.9619 856.574 59.9619 851.832 Q59.9619 847.153 56.2698 844.416 Q52.5777 841.678 46.212 841.678 Q39.8781 841.678 36.186 844.416 Q32.4621 847.153 32.4621 851.832 M27.4968 851.832 Q27.4968 844.193 32.4621 839.832 Q37.4273 835.472 46.212 835.472 Q54.9649 835.472 59.9619 839.832 Q64.9272 844.193 64.9272 851.832 Q64.9272 859.502 59.9619 863.863 Q54.9649 868.192 46.212 868.192 Q37.4273 868.192 32.4621 863.863 Q27.4968 859.502 27.4968 851.832 Z" fill="#000000" fill-rule="nonzero" fill-opacity="1" /><path clip-path="url(#clip950)" d="M29.7248 800.11 L35.1993 800.11 Q33.8307 802.593 33.1623 805.107 Q32.4621 807.59 32.4621 810.136 Q32.4621 815.834 36.0905 818.985 Q39.6872 822.136 46.212 822.136 Q52.7369 822.136 56.3653 818.985 Q59.9619 815.834 59.9619 810.136 Q59.9619 807.59 59.2935 805.107 Q58.5933 802.593 57.2247 800.11 L62.6355 800.11 Q63.7814 802.561 64.3543 805.203 Q64.9272 807.813 64.9272 810.773 Q64.9272 818.826 59.8664 823.568 Q54.8057 828.31 46.212 828.31 Q37.491 828.31 32.4939 823.536 Q27.4968 818.73 27.4968 810.391 Q27.4968 807.686 28.0697 805.107 Q28.6108 802.529 29.7248 800.11 Z" fill="#000000" fill-rule="nonzero" fill-opacity="1" /><path clip-path="url(#clip950)" d="M32.4621 776.112 Q32.4621 780.822 36.1542 783.56 Q39.8145 786.297 46.212 786.297 Q52.6095 786.297 56.3017 783.591 Q59.9619 780.854 59.9619 776.112 Q59.9619 771.433 56.2698 768.696 Q52.5777 765.958 46.212 765.958 Q39.8781 765.958 36.186 768.696 Q32.4621 771.433 32.4621 776.112 M27.4968 776.112 Q27.4968 768.473 32.4621 764.112 Q37.4273 759.752 46.212 759.752 Q54.9649 759.752 59.9619 764.112 Q64.9272 768.473 64.9272 776.112 Q64.9272 783.782 59.9619 788.143 Q54.9649 792.471 46.212 792.471 Q37.4273 792.471 32.4621 788.143 Q27.4968 783.782 27.4968 776.112 Z" fill="#000000" fill-rule="nonzero" fill-opacity="1" /><path clip-path="url(#clip950)" d="M33.8307 729.387 Q33.2578 730.374 33.0032 731.552 Q32.7167 732.698 32.7167 734.098 Q32.7167 739.063 35.9632 741.737 Q39.1779 744.379 45.2253 744.379 L64.0042 744.379 L64.0042 750.267 L28.3562 750.267 L28.3562 744.379 L33.8944 744.379 Q30.6479 742.533 29.0883 739.572 Q27.4968 736.612 27.4968 732.379 Q27.4968 731.774 27.5923 731.042 Q27.656 730.31 27.8151 729.419 L33.8307 729.387 Z" fill="#000000" fill-rule="nonzero" fill-opacity="1" /><path clip-path="url(#clip950)" d="M33.8307 703.734 Q33.2578 704.72 33.0032 705.898 Q32.7167 707.044 32.7167 708.444 Q32.7167 713.409 35.9632 716.083 Q39.1779 718.725 45.2253 718.725 L64.0042 718.725 L64.0042 724.613 L28.3562 724.613 L28.3562 718.725 L33.8944 718.725 Q30.6479 716.879 29.0883 713.919 Q27.4968 710.959 27.4968 706.725 Q27.4968 706.121 27.5923 705.389 Q27.656 704.657 27.8151 703.765 L33.8307 703.734 Z" fill="#000000" fill-rule="nonzero" fill-opacity="1" /><path clip-path="url(#clip950)" d="M44.7161 668.531 L47.5806 668.531 L47.5806 695.458 Q53.6281 695.076 56.8109 691.83 Q59.9619 688.551 59.9619 682.727 Q59.9619 679.353 59.1344 676.202 Q58.3069 673.019 56.6518 669.9 L62.1899 669.9 Q63.5267 673.051 64.227 676.361 Q64.9272 679.671 64.9272 683.077 Q64.9272 691.607 59.9619 696.604 Q54.9967 701.569 46.5303 701.569 Q37.7774 701.569 32.6531 696.859 Q27.4968 692.116 27.4968 684.095 Q27.4968 676.902 32.1438 672.733 Q36.7589 668.531 44.7161 668.531 M42.9973 674.388 Q38.1912 674.451 35.3266 677.093 Q32.4621 679.703 32.4621 684.032 Q32.4621 688.933 35.2312 691.893 Q38.0002 694.822 43.0292 695.267 L42.9973 674.388 Z" fill="#000000" fill-rule="nonzero" fill-opacity="1" /><path clip-path="url(#clip950)" d="M14.479 658.919 L14.479 653.063 L64.0042 653.063 L64.0042 658.919 L14.479 658.919 Z" fill="#000000" fill-rule="nonzero" fill-opacity="1" /><path clip-path="url(#clip950)" d="M46.0847 624.608 Q46.0847 631.706 47.7079 634.443 Q49.3312 637.18 53.2461 637.18 Q56.3653 637.18 58.2114 635.143 Q60.0256 633.074 60.0256 629.541 Q60.0256 624.671 56.5881 621.743 Q53.1188 618.783 47.3897 618.783 L46.0847 618.783 L46.0847 624.608 M43.6657 612.927 L64.0042 612.927 L64.0042 618.783 L58.5933 618.783 Q61.8398 620.788 63.3994 623.78 Q64.9272 626.772 64.9272 631.101 Q64.9272 636.575 61.8716 639.822 Q58.7843 643.037 53.6281 643.037 Q47.6125 643.037 44.5569 639.026 Q41.5014 634.984 41.5014 626.995 L41.5014 618.783 L40.9285 618.783 Q36.8862 618.783 34.6901 621.457 Q32.4621 624.099 32.4621 628.905 Q32.4621 631.96 33.1941 634.857 Q33.9262 637.753 35.3903 640.427 L29.9795 640.427 Q28.7381 637.212 28.1334 634.188 Q27.4968 631.164 27.4968 628.3 Q27.4968 620.566 31.5072 616.746 Q35.5176 612.927 43.6657 612.927 Z" fill="#000000" fill-rule="nonzero" fill-opacity="1" /><path clip-path="url(#clip950)" d="M18.2347 595.071 L28.3562 595.071 L28.3562 583.008 L32.9077 583.008 L32.9077 595.071 L52.2594 595.071 Q56.6199 595.071 57.8613 593.893 Q59.1026 592.684 59.1026 589.024 L59.1026 583.008 L64.0042 583.008 L64.0042 589.024 Q64.0042 595.803 61.4897 598.381 Q58.9434 600.959 52.2594 600.959 L32.9077 600.959 L32.9077 605.256 L28.3562 605.256 L28.3562 600.959 L18.2347 600.959 L18.2347 595.071 Z" fill="#000000" fill-rule="nonzero" fill-opacity="1" /><path clip-path="url(#clip950)" d="M28.3562 575.305 L28.3562 569.449 L64.0042 569.449 L64.0042 575.305 L28.3562 575.305 M14.479 575.305 L14.479 569.449 L21.895 569.449 L21.895 575.305 L14.479 575.305 Z" fill="#000000" fill-rule="nonzero" fill-opacity="1" /><path clip-path="url(#clip950)" d="M32.4621 543.381 Q32.4621 548.092 36.1542 550.829 Q39.8145 553.567 46.212 553.567 Q52.6095 553.567 56.3017 550.861 Q59.9619 548.124 59.9619 543.381 Q59.9619 538.703 56.2698 535.965 Q52.5777 533.228 46.212 533.228 Q39.8781 533.228 36.186 535.965 Q32.4621 538.703 32.4621 543.381 M27.4968 543.381 Q27.4968 535.743 32.4621 531.382 Q37.4273 527.022 46.212 527.022 Q54.9649 527.022 59.9619 531.382 Q64.9272 535.743 64.9272 543.381 Q64.9272 551.052 59.9619 555.413 Q54.9649 559.741 46.212 559.741 Q37.4273 559.741 32.4621 555.413 Q27.4968 551.052 27.4968 543.381 Z" fill="#000000" fill-rule="nonzero" fill-opacity="1" /><path clip-path="url(#clip950)" d="M42.4881 487.681 L64.0042 487.681 L64.0042 493.538 L42.679 493.538 Q37.6183 493.538 35.1038 495.511 Q32.5894 497.485 32.5894 501.431 Q32.5894 506.174 35.6131 508.911 Q38.6368 511.648 43.8567 511.648 L64.0042 511.648 L64.0042 517.537 L28.3562 517.537 L28.3562 511.648 L33.8944 511.648 Q30.6797 509.548 29.0883 506.715 Q27.4968 503.85 27.4968 500.126 Q27.4968 493.984 31.3163 490.832 Q35.1038 487.681 42.4881 487.681 Z" fill="#000000" fill-rule="nonzero" fill-opacity="1" /><polyline clip-path="url(#clip952)" style="stroke:#ff0000; stroke-linecap:round; stroke-linejoin:round; stroke-width:8; stroke-opacity:1; fill:none" points="315.32,302.71 323.232,302.71 323.232,913.046 331.145,913.046 331.145,1016.37 339.057,1016.37 339.057,988.818 346.969,988.818 346.969,1039.06 354.882,1039.06 354.882,1084.65 362.794,1084.65 362.794,740.376 370.707,740.376 370.707,1005.39 378.619,1005.39 378.619,736.58 386.531,736.58 386.531,1019.37 394.444,1019.37 394.444,945.213 402.356,945.213 402.356,1008.49 410.268,1008.49 410.268,1013.12 418.181,1013.12 418.181,1004.58 426.093,1004.58 426.093,1135.89 434.006,1135.89 434.006,861.645 441.918,861.645 441.918,942.202 449.83,942.202 449.83,981.615 457.743,981.615 457.743,929.68 465.655,929.68 465.655,846.16 473.567,846.16 473.567,1017.8 481.48,1017.8 481.48,1155.52 489.392,1155.52 489.392,1119.1 497.305,1119.1 497.305,1032.94 505.217,1032.94 505.217,1029.83 513.129,1029.83 513.129,1088.84 521.042,1088.84 521.042,962.397 528.954,962.397 528.954,892.237 536.866,892.237 536.866,928.126 544.779,928.126 544.779,1057.41 552.691,1057.41 552.691,1173.69 560.604,1173.69 560.604,1131.19 568.516,1131.19 568.516,914.622 576.428,914.622 576.428,909.595 584.341,909.595 584.341,942.967 592.253,942.967 592.253,814.794 600.165,814.794 600.165,978.863 608.078,978.863 608.078,933.57 615.99,933.57 615.99,1011.27 623.903,1011.27 623.903,1057.84 631.815,1057.84 631.815,1062.4 639.727,1062.4 639.727,944.698 647.64,944.698 647.64,943.088 655.552,943.088 655.552,973.853 663.464,973.853 663.464,972.035 671.377,972.035 671.377,1071.94 679.289,1071.94 679.289,888.486 687.201,888.486 687.201,976.982 695.114,976.982 695.114,1019.99 703.026,1019.99 703.026,1008.17 710.939,1008.17 710.939,1007.19 718.851,1007.19 718.851,919.796 726.763,919.796 726.763,970.836 734.676,970.836 734.676,879.172 742.588,879.172 742.588,1026.49 750.5,1026.49 750.5,975.56 758.413,975.56 758.413,1054.74 766.325,1054.74 766.325,964.242 774.238,964.242 774.238,937.3 782.15,937.3 782.15,982.109 790.062,982.109 790.062,936.056 797.975,936.056 797.975,1078.75 805.887,1078.75 805.887,815.229 813.799,815.229 813.799,950.184 821.712,950.184 821.712,1009.48 829.624,1009.48 829.624,983.545 837.537,983.545 837.537,1022.15 845.449,1022.15 845.449,929.305 853.361,929.305 853.361,922.858 861.274,922.858 861.274,895.394 869.186,895.394 869.186,995.261 877.098,995.261 877.098,842.424 885.011,842.424 885.011,939.893 892.923,939.893 892.923,1036.45 900.836,1036.45 900.836,983.08 908.748,983.08 908.748,926.569 916.66,926.569 916.66,981.573 924.573,981.573 924.573,962.17 932.485,962.17 932.485,993.556 940.397,993.556 940.397,1045.15 948.31,1045.15 948.31,824.412 956.222,824.412 956.222,803.769 964.135,803.769 964.135,949.136 972.047,949.136 972.047,1051.38 979.959,1051.38 979.959,1033.44 987.872,1033.44 987.872,1029.19 995.784,1029.19 995.784,907.997 1003.7,907.997 1003.7,897.244 1011.61,897.244 1011.61,989.387 1019.52,989.387 1019.52,923.993 1027.43,923.993 1027.43,982.769 1035.35,982.769 1035.35,1005.46 1043.26,1005.46 1043.26,1090.48 1051.17,1090.48 1051.17,1029.85 1059.08,1029.85 1059.08,962.888 1067,962.888 1067,836.454 1074.91,836.454 1074.91,673.904 1082.82,673.904 1082.82,887.026 1090.73,887.026 1090.73,968.465 1098.64,968.465 1098.64,920.562 1106.56,920.562 1106.56,896.34 1114.47,896.34 1114.47,998.376 1122.38,998.376 1122.38,908.766 1130.29,908.766 1130.29,947.617 1138.21,947.617 1138.21,992.364 1146.12,992.364 1146.12,845.368 1154.03,845.368 1154.03,1002.23 1161.94,1002.23 1161.94,970.594 1169.86,970.594 1169.86,1030.03 1177.77,1030.03 1177.77,902.121 1185.68,902.121 1185.68,934.124 1193.59,934.124 1193.59,918.062 1201.51,918.062 1201.51,962.213 1209.42,962.213 1209.42,1091.45 1217.33,1091.45 1217.33,983.368 1225.24,983.368 1225.24,962.59 1233.16,962.59 1233.16,818.963 1241.07,818.963 1241.07,924.515 1248.98,924.515 1248.98,930.754 1256.89,930.754 1256.89,973.567 1264.8,973.567 1264.8,954.321 1272.72,954.321 1272.72,944.301 1280.63,944.301 1280.63,951.936 1288.54,951.936 1288.54,1008.07 1296.45,1008.07 1296.45,985.568 1304.37,985.568 1304.37,927.404 1312.28,927.404 1312.28,989.978 1320.19,989.978 1320.19,978.768 1328.1,978.768 1328.1,1014.53 1336.02,1014.53 1336.02,945.498 1343.93,945.498 1343.93,985.854 1351.84,985.854 1351.84,1049.29 1359.75,1049.29 1359.75,894.982 1367.67,894.982 1367.67,909.604 1375.58,909.604 1375.58,767.294 1383.49,767.294 1383.49,1056.25 1391.4,1056.25 1391.4,981.942 1399.32,981.942 1399.32,942.375 1407.23,942.375 1407.23,965.821 1415.14,965.821 1415.14,1096.08 1423.05,1096.08 1423.05,1073.06 1430.96,1073.06 1430.96,906.317 1438.88,906.317 1438.88,1024.72 1446.79,1024.72 1446.79,982.173 1454.7,982.173 1454.7,983.121 1462.61,983.121 1462.61,911.124 1470.53,911.124 1470.53,897.409 1478.44,897.409 1478.44,935.722 1486.35,935.722 1486.35,920.046 1494.26,920.046 1494.26,956.723 1502.18,956.723 1502.18,771.509 1510.09,771.509 1510.09,864.923 1518,864.923 1518,871.425 1525.91,871.425 1525.91,793.236 1533.83,793.236 1533.83,849.41 1541.74,849.41 1541.74,928.749 1549.65,928.749 1549.65,1006.5 1557.56,1006.5 1557.56,925.774 1565.47,925.774 1565.47,859.731 1573.39,859.731 1573.39,875.268 1581.3,875.268 1581.3,1014.81 1589.21,1014.81 1589.21,984.786 1597.12,984.786 1597.12,907.273 1605.04,907.273 1605.04,1028.6 1612.95,1028.6 1612.95,995.538 1620.86,995.538 1620.86,934.274 1628.77,934.274 1628.77,920.926 1636.69,920.926 1636.69,911.145 1644.6,911.145 1644.6,963.737 1652.51,963.737 1652.51,1081.43 1660.42,1081.43 1660.42,919.884 1668.34,919.884 1668.34,885.186 1676.25,885.186 1676.25,915.387 1684.16,915.387 1684.16,1074.62 1692.07,1074.62 1692.07,925.259 1699.99,925.259 1699.99,979.373 1707.9,979.373 1707.9,1027.38 1715.81,1027.38 1715.81,941.443 1723.72,941.443 1723.72,909.504 1731.63,909.504 1731.63,918.507 1739.55,918.507 1739.55,1113.49 1747.46,1113.49 1747.46,1011.39 1755.37,1011.39 1755.37,1018.11 1763.28,1018.11 1763.28,901.576 1771.2,901.576 1771.2,909.974 1779.11,909.974 1779.11,883.996 1787.02,883.996 1787.02,852.121 1794.93,852.121 1794.93,985.168 1802.85,985.168 1802.85,1025.74 1810.76,1025.74 1810.76,1069.93 1818.67,1069.93 1818.67,976.439 1826.58,976.439 1826.58,1003.77 1834.5,1003.77 1834.5,919.845 1842.41,919.845 1842.41,926.237 1850.32,926.237 1850.32,984.751 1858.23,984.751 1858.23,910.273 1866.14,910.273 1866.14,984.621 1874.06,984.621 1874.06,1037.83 1881.97,1037.83 1881.97,952.088 1889.88,952.088 1889.88,955.461 1897.79,955.461 1897.79,910.566 1905.71,910.566 1905.71,932.625 1913.62,932.625 1913.62,946.275 1921.53,946.275 1921.53,1048.76 1929.44,1048.76 1929.44,953.982 1937.36,953.982 1937.36,876.617 1945.27,876.617 1945.27,839.127 1953.18,839.127 1953.18,999.629 1961.09,999.629 1961.09,987.761 1969.01,987.761 1969.01,931.21 1976.92,931.21 1976.92,997.26 1984.83,997.26 1984.83,892.708 1992.74,892.708 1992.74,969.583 2000.66,969.583 2000.66,924.251 2008.57,924.251 2008.57,988.62 2016.48,988.62 2016.48,991.535 2024.39,991.535 2024.39,868.587 2032.3,868.587 2032.3,939.6 2040.22,939.6 2040.22,873.896 2048.13,873.896 2048.13,953.711 2056.04,953.711 2056.04,1005.59 2063.95,1005.59 2063.95,1111.43 2071.87,1111.43 2071.87,929.906 2079.78,929.906 2079.78,944.135 2087.69,944.135 2087.69,956.45 2095.6,956.45 2095.6,983.751 2103.52,983.751 2103.52,1041.82 2111.43,1041.82 2111.43,1130.33 2119.34,1130.33 2119.34,958.55 2127.25,958.55 2127.25,991.449 2135.17,991.449 2135.17,914.583 2143.08,914.583 2143.08,893.536 2150.99,893.536 2150.99,1011.33 2158.9,1011.33 2158.9,1038.67 2166.82,1038.67 2166.82,990.992 2174.73,990.992 2174.73,1040.66 2182.64,1040.66 2182.64,1047.64 2190.55,1047.64 2190.55,865.476 2198.46,865.476 2198.46,913.192 2206.38,913.192 2206.38,946.612 2214.29,946.612 2214.29,942.493 2222.2,942.493 2222.2,934.265 2230.11,934.265 2230.11,957.468 2238.03,957.468 2238.03,938.414 2245.94,938.414 2245.94,833.805 2253.85,833.805 2253.85,937.558 2261.76,937.558 2261.76,996.357 2269.68,996.357 2269.68,933.813 2277.59,933.813 2277.59,923.849 2285.5,923.849 2285.5,940.276 2293.41,940.276 2293.41,925.084 "/>
<polyline clip-path="url(#clip952)" style="stroke:#0000ff; stroke-linecap:round; stroke-linejoin:round; stroke-width:8; stroke-opacity:1; fill:none" points="315.32,86.1857 323.232,86.1857 323.232,694.943 331.145,694.943 331.145,939.83 339.057,939.83 339.057,889.703 346.969,889.703 346.969,883.346 354.882,883.346 354.882,824.782 362.794,824.782 362.794,724.948 370.707,724.948 370.707,932.271 378.619,932.271 378.619,959.693 386.531,959.693 386.531,1008.12 394.444,1008.12 394.444,892.031 402.356,892.031 402.356,966.697 410.268,966.697 410.268,1018.1 418.181,1018.1 418.181,976.583 426.093,976.583 426.093,1152.1 434.006,1152.1 434.006,1100.14 441.918,1100.14 441.918,938.624 449.83,938.624 449.83,850.759 457.743,850.759 457.743,946.408 465.655,946.408 465.655,972.057 473.567,972.057 473.567,1047.8 481.48,1047.8 481.48,998.909 489.392,998.909 489.392,897.209 497.305,897.209 497.305,997.396 505.217,997.396 505.217,914.165 513.129,914.165 513.129,954.772 521.042,954.772 521.042,998.09 528.954,998.09 528.954,998.826 536.866,998.826 536.866,1140.21 544.779,1140.21 544.779,1023.94 552.691,1023.94 552.691,976.462 560.604,976.462 560.604,950.169 568.516,950.169 568.516,1095.95 576.428,1095.95 576.428,1004.26 584.341,1004.26 584.341,991.426 592.253,991.426 592.253,976.881 600.165,976.881 600.165,910.999 608.078,910.999 608.078,1006.63 615.99,1006.63 615.99,985.012 623.903,985.012 623.903,839.557 631.815,839.557 631.815,903.453 639.727,903.453 639.727,897.623 647.64,897.623 647.64,1005.23 655.552,1005.23 655.552,926.072 663.464,926.072 663.464,1070.04 671.377,1070.04 671.377,928.707 679.289,928.707 679.289,946.775 687.201,946.775 687.201,793.058 695.114,793.058 695.114,907.619 703.026,907.619 703.026,1065.14 710.939,1065.14 710.939,1007.45 718.851,1007.45 718.851,1117.07 726.763,1117.07 726.763,1068.69 734.676,1068.69 734.676,1047.03 742.588,1047.03 742.588,830.205 750.5,830.205 750.5,1068.94 758.413,1068.94 758.413,1014.67 766.325,1014.67 766.325,1013.26 774.238,1013.26 774.238,1026.16 782.15,1026.16 782.15,1010.49 790.062,1010.49 790.062,1030.72 797.975,1030.72 797.975,979.424 805.887,979.424 805.887,904.51 813.799,904.51 813.799,967.729 821.712,967.729 821.712,895.721 829.624,895.721 829.624,875.918 837.537,875.918 837.537,933.646 845.449,933.646 845.449,878.997 853.361,878.997 853.361,904.447 861.274,904.447 861.274,935.704 869.186,935.704 869.186,966.002 877.098,966.002 877.098,967.363 885.011,967.363 885.011,997.175 892.923,997.175 892.923,916.23 900.836,916.23 900.836,948.409 908.748,948.409 908.748,902.678 916.66,902.678 916.66,923.208 924.573,923.208 924.573,1005 932.485,1005 932.485,1015.96 940.397,1015.96 940.397,962.533 948.31,962.533 948.31,941.73 956.222,941.73 956.222,1002.06 964.135,1002.06 964.135,1004.03 972.047,1004.03 972.047,938.346 979.959,938.346 979.959,955.81 987.872,955.81 987.872,968.048 995.784,968.048 995.784,982.69 1003.7,982.69 1003.7,914.375 1011.61,914.375 1011.61,900.12 1019.52,900.12 1019.52,921.803 1027.43,921.803 1027.43,966.494 1035.35,966.494 1035.35,984.216 1043.26,984.216 1043.26,996.419 1051.17,996.419 1051.17,962.791 1059.08,962.791 1059.08,868.652 1067,868.652 1067,922.806 1074.91,922.806 1074.91,904.415 1082.82,904.415 1082.82,910.769 1090.73,910.769 1090.73,954.291 1098.64,954.291 1098.64,938.992 1106.56,938.992 1106.56,929.223 1114.47,929.223 1114.47,900.463 1122.38,900.463 1122.38,954.081 1130.29,954.081 1130.29,976.026 1138.21,976.026 1138.21,964.799 1146.12,964.799 1146.12,995.36 1154.03,995.36 1154.03,930.478 1161.94,930.478 1161.94,838.648 1169.86,838.648 1169.86,913.122 1177.77,913.122 1177.77,901.2 1185.68,901.2 1185.68,1031.2 1193.59,1031.2 1193.59,1014.76 1201.51,1014.76 1201.51,934.611 1209.42,934.611 1209.42,944.357 1217.33,944.357 1217.33,984.89 1225.24,984.89 1225.24,982.059 1233.16,982.059 1233.16,892.59 1241.07,892.59 1241.07,1023.36 1248.98,1023.36 1248.98,1093.48 1256.89,1093.48 1256.89,1071.11 1264.8,1071.11 1264.8,981.361 1272.72,981.361 1272.72,985.966 1280.63,985.966 1280.63,931.682 1288.54,931.682 1288.54,929.785 1296.45,929.785 1296.45,979.34 1304.37,979.34 1304.37,1038.02 1312.28,1038.02 1312.28,1087.61 1320.19,1087.61 1320.19,1055.09 1328.1,1055.09 1328.1,985.629 1336.02,985.629 1336.02,919.578 1343.93,919.578 1343.93,972.31 1351.84,972.31 1351.84,949.157 1359.75,949.157 1359.75,1064.63 1367.67,1064.63 1367.67,1045.93 1375.58,1045.93 1375.58,975.855 1383.49,975.855 1383.49,1006.26 1391.4,1006.26 1391.4,967.823 1399.32,967.823 1399.32,900.381 1407.23,900.381 1407.23,799.928 1415.14,799.928 1415.14,861.56 1423.05,861.56 1423.05,881.676 1430.96,881.676 1430.96,921.299 1438.88,921.299 1438.88,915.844 1446.79,915.844 1446.79,1028.71 1454.7,1028.71 1454.7,1124.43 1462.61,1124.43 1462.61,1048.2 1470.53,1048.2 1470.53,917.816 1478.44,917.816 1478.44,820.737 1486.35,820.737 1486.35,913.628 1494.26,913.628 1494.26,903.528 1502.18,903.528 1502.18,982.945 1510.09,982.945 1510.09,1026.29 1518,1026.29 1518,996.693 1525.91,996.693 1525.91,1002.9 1533.83,1002.9 1533.83,984.899 1541.74,984.899 1541.74,954.797 1549.65,954.797 1549.65,851.624 1557.56,851.624 1557.56,891.023 1565.47,891.023 1565.47,987.887 1573.39,987.887 1573.39,1035.94 1581.3,1035.94 1581.3,965.151 1589.21,965.151 1589.21,1017.75 1597.12,1017.75 1597.12,910.863 1605.04,910.863 1605.04,929.209 1612.95,929.209 1612.95,879.056 1620.86,879.056 1620.86,973.009 1628.77,973.009 1628.77,914.418 1636.69,914.418 1636.69,950.608 1644.6,950.608 1644.6,979.766 1652.51,979.766 1652.51,978.66 1660.42,978.66 1660.42,1001.87 1668.34,1001.87 1668.34,916.991 1676.25,916.991 1676.25,899.095 1684.16,899.095 1684.16,867.766 1692.07,867.766 1692.07,951.315 1699.99,951.315 1699.99,994.036 1707.9,994.036 1707.9,1023.67 1715.81,1023.67 1715.81,886.052 1723.72,886.052 1723.72,837.212 1731.63,837.212 1731.63,818.101 1739.55,818.101 1739.55,883.557 1747.46,883.557 1747.46,963.377 1755.37,963.377 1755.37,957.335 1763.28,957.335 1763.28,974.13 1771.2,974.13 1771.2,948.947 1779.11,948.947 1779.11,946.794 1787.02,946.794 1787.02,925.102 1794.93,925.102 1794.93,920.616 1802.85,920.616 1802.85,864.889 1810.76,864.889 1810.76,968.267 1818.67,968.267 1818.67,984.758 1826.58,984.758 1826.58,879.551 1834.5,879.551 1834.5,970.705 1842.41,970.705 1842.41,977.446 1850.32,977.446 1850.32,940.556 1858.23,940.556 1858.23,1026.22 1866.14,1026.22 1866.14,964.387 1874.06,964.387 1874.06,948.931 1881.97,948.931 1881.97,929.877 1889.88,929.877 1889.88,954.365 1897.79,954.365 1897.79,980.648 1905.71,980.648 1905.71,960.648 1913.62,960.648 1913.62,862.722 1921.53,862.722 1921.53,790.036 1929.44,790.036 1929.44,882.694 1937.36,882.694 1937.36,924.643 1945.27,924.643 1945.27,992.106 1953.18,992.106 1953.18,881.349 1961.09,881.349 1961.09,812.207 1969.01,812.207 1969.01,913.114 1976.92,913.114 1976.92,914.391 1984.83,914.391 1984.83,1005.91 1992.74,1005.91 1992.74,1008.69 2000.66,1008.69 2000.66,1008.37 2008.57,1008.37 2008.57,1038.88 2016.48,1038.88 2016.48,1009.57 2024.39,1009.57 2024.39,975.575 2032.3,975.575 2032.3,931.417 2040.22,931.417 2040.22,996.228 2048.13,996.228 2048.13,968.429 2056.04,968.429 2056.04,926.607 2063.95,926.607 2063.95,923.176 2071.87,923.176 2071.87,933.423 2079.78,933.423 2079.78,1029.16 2087.69,1029.16 2087.69,968.606 2095.6,968.606 2095.6,999.451 2103.52,999.451 2103.52,932.923 2111.43,932.923 2111.43,958.337 2119.34,958.337 2119.34,933.116 2127.25,933.116 2127.25,943.133 2135.17,943.133 2135.17,898.994 2143.08,898.994 2143.08,904.33 2150.99,904.33 2150.99,949.588 2158.9,949.588 2158.9,949.601 2166.82,949.601 2166.82,924.47 2174.73,924.47 2174.73,900.938 2182.64,900.938 2182.64,801.731 2190.55,801.731 2190.55,919.114 2198.46,919.114 2198.46,959.733 2206.38,959.733 2206.38,991.775 2214.29,991.775 2214.29,877.111 2222.2,877.111 2222.2,900.05 2230.11,900.05 2230.11,869.614 2238.03,869.614 2238.03,987.206 2245.94,987.206 2245.94,967.759 2253.85,967.759 2253.85,1027.64 2261.76,1027.64 2261.76,1061.95 2269.68,1061.95 2269.68,1018.37 2277.59,1018.37 2277.59,900.763 2285.5,900.763 2285.5,933.148 2293.41,933.148 2293.41,937.467 "/>
<polyline clip-path="url(#clip952)" style="stroke:#808080; stroke-linecap:round; stroke-linejoin:round; stroke-width:6; stroke-opacity:1; fill:none" stroke-dasharray="24, 15" points="315.32,526.761 323.232,526.761 331.145,526.761 339.057,526.761 346.969,526.761 354.882,526.761 362.794,526.761 370.707,526.761 378.619,526.761 386.531,526.761 394.444,526.761 402.356,526.761 410.268,526.761 418.181,526.761 426.093,526.761 434.006,526.761 441.918,526.761 449.83,526.761 457.743,526.761 465.655,526.761 473.567,526.761 481.48,526.761 489.392,526.761 497.305,526.761 505.217,526.761 513.129,526.761 521.042,526.761 528.954,526.761 536.866,526.761 544.779,526.761 552.691,526.761 560.604,526.761 568.516,526.761 576.428,526.761 584.341,526.761 592.253,526.761 600.165,526.761 608.078,526.761 615.99,526.761 623.903,526.761 631.815,526.761 639.727,526.761 647.64,526.761 655.552,526.761 663.464,526.761 671.377,526.761 679.289,526.761 687.201,526.761 695.114,526.761 703.026,526.761 710.939,526.761 718.851,526.761 726.763,526.761 734.676,526.761 742.588,526.761 750.5,526.761 758.413,526.761 766.325,526.761 774.238,526.761 782.15,526.761 790.062,526.761 797.975,526.761 805.887,526.761 813.799,526.761 821.712,526.761 829.624,526.761 837.537,526.761 845.449,526.761 853.361,526.761 861.274,526.761 869.186,526.761 877.098,526.761 885.011,526.761 892.923,526.761 900.836,526.761 908.748,526.761 916.66,526.761 924.573,526.761 932.485,526.761 940.397,526.761 948.31,526.761 956.222,526.761 964.135,526.761 972.047,526.761 979.959,526.761 987.872,526.761 995.784,526.761 1003.7,526.761 1011.61,526.761 1019.52,526.761 1027.43,526.761 1035.35,526.761 1043.26,526.761 1051.17,526.761 1059.08,526.761 1067,526.761 1074.91,526.761 1082.82,526.761 1090.73,526.761 1098.64,526.761 1106.56,526.761 1114.47,526.761 1122.38,526.761 1130.29,526.761 1138.21,526.761 1146.12,526.761 1154.03,526.761 1161.94,526.761 1169.86,526.761 1177.77,526.761 1185.68,526.761 1193.59,526.761 1201.51,526.761 1209.42,526.761 1217.33,526.761 1225.24,526.761 1233.16,526.761 1241.07,526.761 1248.98,526.761 1256.89,526.761 1264.8,526.761 1272.72,526.761 1280.63,526.761 1288.54,526.761 1296.45,526.761 1304.37,526.761 1312.28,526.761 1320.19,526.761 1328.1,526.761 1336.02,526.761 1343.93,526.761 1351.84,526.761 1359.75,526.761 1367.67,526.761 1375.58,526.761 1383.49,526.761 1391.4,526.761 1399.32,526.761 1407.23,526.761 1415.14,526.761 1423.05,526.761 1430.96,526.761 1438.88,526.761 1446.79,526.761 1454.7,526.761 1462.61,526.761 1470.53,526.761 1478.44,526.761 1486.35,526.761 1494.26,526.761 1502.18,526.761 1510.09,526.761 1518,526.761 1525.91,526.761 1533.83,526.761 1541.74,526.761 1549.65,526.761 1557.56,526.761 1565.47,526.761 1573.39,526.761 1581.3,526.761 1589.21,526.761 1597.12,526.761 1605.04,526.761 1612.95,526.761 1620.86,526.761 1628.77,526.761 1636.69,526.761 1644.6,526.761 1652.51,526.761 1660.42,526.761 1668.34,526.761 1676.25,526.761 1684.16,526.761 1692.07,526.761 1699.99,526.761 1707.9,526.761 1715.81,526.761 1723.72,526.761 1731.63,526.761 1739.55,526.761 1747.46,526.761 1755.37,526.761 1763.28,526.761 1771.2,526.761 1779.11,526.761 1787.02,526.761 1794.93,526.761 1802.85,526.761 1810.76,526.761 1818.67,526.761 1826.58,526.761 1834.5,526.761 1842.41,526.761 1850.32,526.761 1858.23,526.761 1866.14,526.761 1874.06,526.761 1881.97,526.761 1889.88,526.761 1897.79,526.761 1905.71,526.761 1913.62,526.761 1921.53,526.761 1929.44,526.761 1937.36,526.761 1945.27,526.761 1953.18,526.761 1961.09,526.761 1969.01,526.761 1976.92,526.761 1984.83,526.761 1992.74,526.761 2000.66,526.761 2008.57,526.761 2016.48,526.761 2024.39,526.761 2032.3,526.761 2040.22,526.761 2048.13,526.761 2056.04,526.761 2063.95,526.761 2071.87,526.761 2079.78,526.761 2087.69,526.761 2095.6,526.761 2103.52,526.761 2111.43,526.761 2119.34,526.761 2127.25,526.761 2135.17,526.761 2143.08,526.761 2150.99,526.761 2158.9,526.761 2166.82,526.761 2174.73,526.761 2182.64,526.761 2190.55,526.761 2198.46,526.761 2206.38,526.761 2214.29,526.761 2222.2,526.761 2230.11,526.761 2238.03,526.761 2245.94,526.761 2253.85,526.761 2261.76,526.761 2269.68,526.761 2277.59,526.761 2285.5,526.761 2293.41,526.761 "/>
<polyline clip-path="url(#clip952)" style="stroke:#808080; stroke-linecap:round; stroke-linejoin:round; stroke-width:6; stroke-opacity:1; fill:none" stroke-dasharray="24, 15" points="315.32,1384.24 323.232,1384.24 331.145,1384.24 339.057,1384.24 346.969,1384.24 354.882,1384.24 362.794,1384.24 370.707,1384.24 378.619,1384.24 386.531,1384.24 394.444,1384.24 402.356,1384.24 410.268,1384.24 418.181,1384.24 426.093,1384.24 434.006,1384.24 441.918,1384.24 449.83,1384.24 457.743,1384.24 465.655,1384.24 473.567,1384.24 481.48,1384.24 489.392,1384.24 497.305,1384.24 505.217,1384.24 513.129,1384.24 521.042,1384.24 528.954,1384.24 536.866,1384.24 544.779,1384.24 552.691,1384.24 560.604,1384.24 568.516,1384.24 576.428,1384.24 584.341,1384.24 592.253,1384.24 600.165,1384.24 608.078,1384.24 615.99,1384.24 623.903,1384.24 631.815,1384.24 639.727,1384.24 647.64,1384.24 655.552,1384.24 663.464,1384.24 671.377,1384.24 679.289,1384.24 687.201,1384.24 695.114,1384.24 703.026,1384.24 710.939,1384.24 718.851,1384.24 726.763,1384.24 734.676,1384.24 742.588,1384.24 750.5,1384.24 758.413,1384.24 766.325,1384.24 774.238,1384.24 782.15,1384.24 790.062,1384.24 797.975,1384.24 805.887,1384.24 813.799,1384.24 821.712,1384.24 829.624,1384.24 837.537,1384.24 845.449,1384.24 853.361,1384.24 861.274,1384.24 869.186,1384.24 877.098,1384.24 885.011,1384.24 892.923,1384.24 900.836,1384.24 908.748,1384.24 916.66,1384.24 924.573,1384.24 932.485,1384.24 940.397,1384.24 948.31,1384.24 956.222,1384.24 964.135,1384.24 972.047,1384.24 979.959,1384.24 987.872,1384.24 995.784,1384.24 1003.7,1384.24 1011.61,1384.24 1019.52,1384.24 1027.43,1384.24 1035.35,1384.24 1043.26,1384.24 1051.17,1384.24 1059.08,1384.24 1067,1384.24 1074.91,1384.24 1082.82,1384.24 1090.73,1384.24 1098.64,1384.24 1106.56,1384.24 1114.47,1384.24 1122.38,1384.24 1130.29,1384.24 1138.21,1384.24 1146.12,1384.24 1154.03,1384.24 1161.94,1384.24 1169.86,1384.24 1177.77,1384.24 1185.68,1384.24 1193.59,1384.24 1201.51,1384.24 1209.42,1384.24 1217.33,1384.24 1225.24,1384.24 1233.16,1384.24 1241.07,1384.24 1248.98,1384.24 1256.89,1384.24 1264.8,1384.24 1272.72,1384.24 1280.63,1384.24 1288.54,1384.24 1296.45,1384.24 1304.37,1384.24 1312.28,1384.24 1320.19,1384.24 1328.1,1384.24 1336.02,1384.24 1343.93,1384.24 1351.84,1384.24 1359.75,1384.24 1367.67,1384.24 1375.58,1384.24 1383.49,1384.24 1391.4,1384.24 1399.32,1384.24 1407.23,1384.24 1415.14,1384.24 1423.05,1384.24 1430.96,1384.24 1438.88,1384.24 1446.79,1384.24 1454.7,1384.24 1462.61,1384.24 1470.53,1384.24 1478.44,1384.24 1486.35,1384.24 1494.26,1384.24 1502.18,1384.24 1510.09,1384.24 1518,1384.24 1525.91,1384.24 1533.83,1384.24 1541.74,1384.24 1549.65,1384.24 1557.56,1384.24 1565.47,1384.24 1573.39,1384.24 1581.3,1384.24 1589.21,1384.24 1597.12,1384.24 1605.04,1384.24 1612.95,1384.24 1620.86,1384.24 1628.77,1384.24 1636.69,1384.24 1644.6,1384.24 1652.51,1384.24 1660.42,1384.24 1668.34,1384.24 1676.25,1384.24 1684.16,1384.24 1692.07,1384.24 1699.99,1384.24 1707.9,1384.24 1715.81,1384.24 1723.72,1384.24 1731.63,1384.24 1739.55,1384.24 1747.46,1384.24 1755.37,1384.24 1763.28,1384.24 1771.2,1384.24 1779.11,1384.24 1787.02,1384.24 1794.93,1384.24 1802.85,1384.24 1810.76,1384.24 1818.67,1384.24 1826.58,1384.24 1834.5,1384.24 1842.41,1384.24 1850.32,1384.24 1858.23,1384.24 1866.14,1384.24 1874.06,1384.24 1881.97,1384.24 1889.88,1384.24 1897.79,1384.24 1905.71,1384.24 1913.62,1384.24 1921.53,1384.24 1929.44,1384.24 1937.36,1384.24 1945.27,1384.24 1953.18,1384.24 1961.09,1384.24 1969.01,1384.24 1976.92,1384.24 1984.83,1384.24 1992.74,1384.24 2000.66,1384.24 2008.57,1384.24 2016.48,1384.24 2024.39,1384.24 2032.3,1384.24 2040.22,1384.24 2048.13,1384.24 2056.04,1384.24 2063.95,1384.24 2071.87,1384.24 2079.78,1384.24 2087.69,1384.24 2095.6,1384.24 2103.52,1384.24 2111.43,1384.24 2119.34,1384.24 2127.25,1384.24 2135.17,1384.24 2143.08,1384.24 2150.99,1384.24 2158.9,1384.24 2166.82,1384.24 2174.73,1384.24 2182.64,1384.24 2190.55,1384.24 2198.46,1384.24 2206.38,1384.24 2214.29,1384.24 2222.2,1384.24 2230.11,1384.24 2238.03,1384.24 2245.94,1384.24 2253.85,1384.24 2261.76,1384.24 2269.68,1384.24 2277.59,1384.24 2285.5,1384.24 2293.41,1384.24 "/>
<path clip-path="url(#clip950)" d="M1632.45 300.469 L2282.86 300.469 L2282.86 93.1086 L1632.45 93.1086  Z" fill="#f2f2f2" fill-rule="evenodd" fill-opacity="1"/>
<polyline clip-path="url(#clip950)" style="stroke:#000000; stroke-linecap:round; stroke-linejoin:round; stroke-width:4; stroke-opacity:0; fill:none" points="1632.45,300.469 2282.86,300.469 2282.86,93.1086 1632.45,93.1086 1632.45,300.469 "/>
<polyline clip-path="url(#clip950)" style="stroke:#ff0000; stroke-linecap:round; stroke-linejoin:round; stroke-width:8; stroke-opacity:1; fill:none" points="1655.74,144.949 1795.53,144.949 "/>
<path clip-path="url(#clip950)" d="M1834.85 130.84 Q1829.75 130.84 1826.74 134.636 Q1823.76 138.432 1823.76 144.983 Q1823.76 151.511 1826.74 155.307 Q1829.75 159.104 1834.85 159.104 Q1839.94 159.104 1842.9 155.307 Q1845.89 151.511 1845.89 144.983 Q1845.89 138.432 1842.9 134.636 Q1839.94 130.84 1834.85 130.84 M1834.85 127.044 Q1842.11 127.044 1846.47 131.928 Q1850.82 136.789 1850.82 144.983 Q1850.82 153.155 1846.47 158.039 Q1842.11 162.9 1834.85 162.9 Q1827.55 162.9 1823.18 158.039 Q1818.83 153.178 1818.83 144.983 Q1818.83 136.789 1823.18 131.928 Q1827.55 127.044 1834.85 127.044 Z" fill="#000000" fill-rule="nonzero" fill-opacity="1" /><path clip-path="url(#clip950)" d="M1876.56 149.289 Q1876.56 144.59 1874.61 141.928 Q1872.69 139.243 1869.31 139.243 Q1865.93 139.243 1863.99 141.928 Q1862.07 144.59 1862.07 149.289 Q1862.07 153.988 1863.99 156.673 Q1865.93 159.335 1869.31 159.335 Q1872.69 159.335 1874.61 156.673 Q1876.56 153.988 1876.56 149.289 M1862.07 140.238 Q1863.41 137.923 1865.45 136.812 Q1867.51 135.678 1870.35 135.678 Q1875.08 135.678 1878.02 139.428 Q1880.98 143.178 1880.98 149.289 Q1880.98 155.4 1878.02 159.15 Q1875.08 162.9 1870.35 162.9 Q1867.51 162.9 1865.45 161.789 Q1863.41 160.655 1862.07 158.34 L1862.07 162.229 L1857.79 162.229 L1857.79 126.21 L1862.07 126.21 L1862.07 140.238 Z" fill="#000000" fill-rule="nonzero" fill-opacity="1" /><path clip-path="url(#clip950)" d="M1904.57 137.067 L1904.57 141.094 Q1902.76 140.169 1900.82 139.706 Q1898.87 139.243 1896.79 139.243 Q1893.62 139.243 1892.02 140.215 Q1890.45 141.187 1890.45 143.131 Q1890.45 144.613 1891.58 145.469 Q1892.72 146.303 1896.14 147.067 L1897.6 147.391 Q1902.14 148.363 1904.04 150.145 Q1905.96 151.905 1905.96 155.076 Q1905.96 158.687 1903.09 160.793 Q1900.24 162.9 1895.24 162.9 Q1893.16 162.9 1890.89 162.483 Q1888.64 162.09 1886.14 161.28 L1886.14 156.881 Q1888.5 158.108 1890.79 158.733 Q1893.09 159.335 1895.33 159.335 Q1898.34 159.335 1899.96 158.317 Q1901.58 157.275 1901.58 155.4 Q1901.58 153.664 1900.4 152.738 Q1899.24 151.812 1895.29 150.956 L1893.8 150.608 Q1889.85 149.775 1888.09 148.062 Q1886.33 146.326 1886.33 143.317 Q1886.33 139.659 1888.92 137.669 Q1891.51 135.678 1896.28 135.678 Q1898.64 135.678 1900.73 136.025 Q1902.81 136.372 1904.57 137.067 Z" fill="#000000" fill-rule="nonzero" fill-opacity="1" /><path clip-path="url(#clip950)" d="M1934.91 148.201 L1934.91 150.284 L1915.33 150.284 Q1915.61 154.682 1917.97 156.997 Q1920.35 159.289 1924.59 159.289 Q1927.04 159.289 1929.34 158.687 Q1931.65 158.085 1933.92 156.881 L1933.92 160.909 Q1931.63 161.881 1929.22 162.391 Q1926.81 162.9 1924.34 162.9 Q1918.13 162.9 1914.5 159.289 Q1910.89 155.678 1910.89 149.52 Q1910.89 143.155 1914.31 139.428 Q1917.76 135.678 1923.6 135.678 Q1928.83 135.678 1931.86 139.057 Q1934.91 142.414 1934.91 148.201 M1930.66 146.951 Q1930.61 143.456 1928.69 141.372 Q1926.79 139.289 1923.64 139.289 Q1920.08 139.289 1917.92 141.303 Q1915.79 143.317 1915.47 146.974 L1930.66 146.951 Z" fill="#000000" fill-rule="nonzero" fill-opacity="1" /><path clip-path="url(#clip950)" d="M1956.93 140.284 Q1956.21 139.868 1955.35 139.682 Q1954.52 139.474 1953.5 139.474 Q1949.89 139.474 1947.95 141.835 Q1946.03 144.173 1946.03 148.571 L1946.03 162.229 L1941.74 162.229 L1941.74 136.303 L1946.03 136.303 L1946.03 140.331 Q1947.37 137.969 1949.52 136.835 Q1951.67 135.678 1954.75 135.678 Q1955.19 135.678 1955.72 135.747 Q1956.26 135.794 1956.91 135.909 L1956.93 140.284 Z" fill="#000000" fill-rule="nonzero" fill-opacity="1" /><path clip-path="url(#clip950)" d="M1958.34 136.303 L1962.85 136.303 L1970.96 158.062 L1979.06 136.303 L1983.57 136.303 L1973.85 162.229 L1968.06 162.229 L1958.34 136.303 Z" fill="#000000" fill-rule="nonzero" fill-opacity="1" /><path clip-path="url(#clip950)" d="M2011.63 148.201 L2011.63 150.284 L1992.04 150.284 Q1992.32 154.682 1994.68 156.997 Q1997.07 159.289 2001.3 159.289 Q2003.76 159.289 2006.05 158.687 Q2008.36 158.085 2010.63 156.881 L2010.63 160.909 Q2008.34 161.881 2005.93 162.391 Q2003.53 162.9 2001.05 162.9 Q1994.84 162.9 1991.21 159.289 Q1987.6 155.678 1987.6 149.52 Q1987.6 143.155 1991.03 139.428 Q1994.47 135.678 2000.31 135.678 Q2005.54 135.678 2008.57 139.057 Q2011.63 142.414 2011.63 148.201 M2007.37 146.951 Q2007.32 143.456 2005.4 141.372 Q2003.5 139.289 2000.35 139.289 Q1996.79 139.289 1994.64 141.303 Q1992.51 143.317 1992.18 146.974 L2007.37 146.951 Z" fill="#000000" fill-rule="nonzero" fill-opacity="1" /><path clip-path="url(#clip950)" d="M2035.68 140.238 L2035.68 126.21 L2039.94 126.21 L2039.94 162.229 L2035.68 162.229 L2035.68 158.34 Q2034.34 160.655 2032.28 161.789 Q2030.24 162.9 2027.37 162.9 Q2022.67 162.9 2019.71 159.15 Q2016.77 155.4 2016.77 149.289 Q2016.77 143.178 2019.71 139.428 Q2022.67 135.678 2027.37 135.678 Q2030.24 135.678 2032.28 136.812 Q2034.34 137.923 2035.68 140.238 M2021.16 149.289 Q2021.16 153.988 2023.09 156.673 Q2025.03 159.335 2028.41 159.335 Q2031.79 159.335 2033.73 156.673 Q2035.68 153.988 2035.68 149.289 Q2035.68 144.59 2033.73 141.928 Q2031.79 139.243 2028.41 139.243 Q2025.03 139.243 2023.09 141.928 Q2021.16 144.59 2021.16 149.289 Z" fill="#000000" fill-rule="nonzero" fill-opacity="1" /><polyline clip-path="url(#clip950)" style="stroke:#0000ff; stroke-linecap:round; stroke-linejoin:round; stroke-width:8; stroke-opacity:1; fill:none" points="1655.74,196.789 1795.53,196.789 "/>
<path clip-path="url(#clip950)" d="M1841.07 180.643 L1841.07 185.203 Q1838.41 183.93 1836.05 183.305 Q1833.69 182.68 1831.49 182.68 Q1827.67 182.68 1825.59 184.161 Q1823.53 185.643 1823.53 188.374 Q1823.53 190.666 1824.89 191.847 Q1826.28 193.004 1830.12 193.722 L1832.95 194.3 Q1838.18 195.296 1840.66 197.819 Q1843.16 200.319 1843.16 204.532 Q1843.16 209.555 1839.78 212.147 Q1836.42 214.74 1829.92 214.74 Q1827.46 214.74 1824.68 214.184 Q1821.93 213.629 1818.97 212.541 L1818.97 207.726 Q1821.81 209.323 1824.54 210.133 Q1827.28 210.944 1829.92 210.944 Q1833.92 210.944 1836.1 209.37 Q1838.27 207.796 1838.27 204.879 Q1838.27 202.333 1836.7 200.897 Q1835.15 199.462 1831.58 198.745 L1828.73 198.189 Q1823.5 197.147 1821.17 194.925 Q1818.83 192.703 1818.83 188.745 Q1818.83 184.161 1822.04 181.522 Q1825.29 178.884 1830.96 178.884 Q1833.39 178.884 1835.91 179.323 Q1838.43 179.763 1841.07 180.643 Z" fill="#000000" fill-rule="nonzero" fill-opacity="1" /><path clip-path="url(#clip950)" d="M1850.26 188.143 L1854.52 188.143 L1854.52 214.069 L1850.26 214.069 L1850.26 188.143 M1850.26 178.05 L1854.52 178.05 L1854.52 183.444 L1850.26 183.444 L1850.26 178.05 Z" fill="#000000" fill-rule="nonzero" fill-opacity="1" /><path clip-path="url(#clip950)" d="M1883.62 193.12 Q1885.22 190.249 1887.44 188.884 Q1889.66 187.518 1892.67 187.518 Q1896.72 187.518 1898.92 190.365 Q1901.12 193.189 1901.12 198.421 L1901.12 214.069 L1896.84 214.069 L1896.84 198.559 Q1896.84 194.833 1895.52 193.027 Q1894.2 191.222 1891.49 191.222 Q1888.18 191.222 1886.26 193.421 Q1884.34 195.62 1884.34 199.416 L1884.34 214.069 L1880.05 214.069 L1880.05 198.559 Q1880.05 194.809 1878.73 193.027 Q1877.42 191.222 1874.66 191.222 Q1871.4 191.222 1869.48 193.444 Q1867.55 195.643 1867.55 199.416 L1867.55 214.069 L1863.27 214.069 L1863.27 188.143 L1867.55 188.143 L1867.55 192.171 Q1869.01 189.786 1871.05 188.652 Q1873.09 187.518 1875.89 187.518 Q1878.71 187.518 1880.68 188.953 Q1882.67 190.388 1883.62 193.12 Z" fill="#000000" fill-rule="nonzero" fill-opacity="1" /><path clip-path="url(#clip950)" d="M1909.17 203.837 L1909.17 188.143 L1913.43 188.143 L1913.43 203.675 Q1913.43 207.356 1914.87 209.208 Q1916.3 211.036 1919.17 211.036 Q1922.62 211.036 1924.61 208.837 Q1926.63 206.638 1926.63 202.842 L1926.63 188.143 L1930.89 188.143 L1930.89 214.069 L1926.63 214.069 L1926.63 210.087 Q1925.08 212.448 1923.02 213.606 Q1920.98 214.74 1918.27 214.74 Q1913.8 214.74 1911.49 211.962 Q1909.17 209.184 1909.17 203.837 M1919.89 187.518 L1919.89 187.518 Z" fill="#000000" fill-rule="nonzero" fill-opacity="1" /><path clip-path="url(#clip950)" d="M1939.66 178.05 L1943.92 178.05 L1943.92 214.069 L1939.66 214.069 L1939.66 178.05 Z" fill="#000000" fill-rule="nonzero" fill-opacity="1" /><path clip-path="url(#clip950)" d="M1964.61 201.036 Q1959.45 201.036 1957.46 202.217 Q1955.47 203.397 1955.47 206.245 Q1955.47 208.513 1956.95 209.856 Q1958.46 211.175 1961.03 211.175 Q1964.57 211.175 1966.7 208.675 Q1968.85 206.152 1968.85 201.985 L1968.85 201.036 L1964.61 201.036 M1973.11 199.277 L1973.11 214.069 L1968.85 214.069 L1968.85 210.133 Q1967.39 212.495 1965.22 213.629 Q1963.04 214.74 1959.89 214.74 Q1955.91 214.74 1953.55 212.518 Q1951.21 210.272 1951.21 206.522 Q1951.21 202.147 1954.13 199.925 Q1957.07 197.703 1962.88 197.703 L1968.85 197.703 L1968.85 197.286 Q1968.85 194.347 1966.91 192.749 Q1964.98 191.129 1961.49 191.129 Q1959.27 191.129 1957.16 191.661 Q1955.05 192.194 1953.11 193.259 L1953.11 189.323 Q1955.45 188.421 1957.65 187.981 Q1959.85 187.518 1961.93 187.518 Q1967.55 187.518 1970.33 190.434 Q1973.11 193.351 1973.11 199.277 Z" fill="#000000" fill-rule="nonzero" fill-opacity="1" /><path clip-path="url(#clip950)" d="M1986.09 180.782 L1986.09 188.143 L1994.87 188.143 L1994.87 191.453 L1986.09 191.453 L1986.09 205.527 Q1986.09 208.698 1986.95 209.601 Q1987.83 210.504 1990.49 210.504 L1994.87 210.504 L1994.87 214.069 L1990.49 214.069 Q1985.56 214.069 1983.69 212.24 Q1981.81 210.388 1981.81 205.527 L1981.81 191.453 L1978.69 191.453 L1978.69 188.143 L1981.81 188.143 L1981.81 180.782 L1986.09 180.782 Z" fill="#000000" fill-rule="nonzero" fill-opacity="1" /><path clip-path="url(#clip950)" d="M2000.47 188.143 L2004.73 188.143 L2004.73 214.069 L2000.47 214.069 L2000.47 188.143 M2000.47 178.05 L2004.73 178.05 L2004.73 183.444 L2000.47 183.444 L2000.47 178.05 Z" fill="#000000" fill-rule="nonzero" fill-opacity="1" /><path clip-path="url(#clip950)" d="M2023.69 191.129 Q2020.26 191.129 2018.27 193.814 Q2016.28 196.476 2016.28 201.129 Q2016.28 205.782 2018.25 208.467 Q2020.24 211.129 2023.69 211.129 Q2027.09 211.129 2029.08 208.444 Q2031.07 205.758 2031.07 201.129 Q2031.07 196.522 2029.08 193.837 Q2027.09 191.129 2023.69 191.129 M2023.69 187.518 Q2029.24 187.518 2032.41 191.129 Q2035.59 194.74 2035.59 201.129 Q2035.59 207.495 2032.41 211.129 Q2029.24 214.74 2023.69 214.74 Q2018.11 214.74 2014.94 211.129 Q2011.79 207.495 2011.79 201.129 Q2011.79 194.74 2014.94 191.129 Q2018.11 187.518 2023.69 187.518 Z" fill="#000000" fill-rule="nonzero" fill-opacity="1" /><path clip-path="url(#clip950)" d="M2064.2 198.421 L2064.2 214.069 L2059.94 214.069 L2059.94 198.559 Q2059.94 194.879 2058.5 193.05 Q2057.07 191.222 2054.2 191.222 Q2050.75 191.222 2048.76 193.421 Q2046.77 195.62 2046.77 199.416 L2046.77 214.069 L2042.48 214.069 L2042.48 188.143 L2046.77 188.143 L2046.77 192.171 Q2048.29 189.833 2050.35 188.675 Q2052.44 187.518 2055.15 187.518 Q2059.61 187.518 2061.9 190.296 Q2064.2 193.05 2064.2 198.421 Z" fill="#000000" fill-rule="nonzero" fill-opacity="1" /><path clip-path="url(#clip950)" d="M2097.99 178.097 Q2094.89 183.421 2093.39 188.629 Q2091.88 193.837 2091.88 199.184 Q2091.88 204.532 2093.39 209.786 Q2094.91 215.018 2097.99 220.319 L2094.29 220.319 Q2090.82 214.879 2089.08 209.624 Q2087.37 204.37 2087.37 199.184 Q2087.37 194.022 2089.08 188.791 Q2090.79 183.56 2094.29 178.097 L2097.99 178.097 Z" fill="#000000" fill-rule="nonzero" fill-opacity="1" /><path clip-path="url(#clip950)" d="M2106.26 188.143 L2110.52 188.143 L2110.52 214.069 L2106.26 214.069 L2106.26 188.143 M2106.26 178.05 L2110.52 178.05 L2110.52 183.444 L2106.26 183.444 L2106.26 178.05 Z" fill="#000000" fill-rule="nonzero" fill-opacity="1" /><path clip-path="url(#clip950)" d="M2135.05 192.541 L2164.73 192.541 L2164.73 196.43 L2135.05 196.43 L2135.05 192.541 M2135.05 201.985 L2164.73 201.985 L2164.73 205.921 L2135.05 205.921 L2135.05 201.985 Z" fill="#000000" fill-rule="nonzero" fill-opacity="1" /><path clip-path="url(#clip950)" d="M2200.47 194.925 Q2197.32 194.925 2195.47 197.078 Q2193.64 199.231 2193.64 202.981 Q2193.64 206.708 2195.47 208.883 Q2197.32 211.036 2200.47 211.036 Q2203.62 211.036 2205.45 208.883 Q2207.3 206.708 2207.3 202.981 Q2207.3 199.231 2205.45 197.078 Q2203.62 194.925 2200.47 194.925 M2209.75 180.273 L2209.75 184.532 Q2207.99 183.698 2206.19 183.259 Q2204.4 182.819 2202.64 182.819 Q2198.02 182.819 2195.56 185.944 Q2193.13 189.069 2192.78 195.388 Q2194.15 193.374 2196.21 192.309 Q2198.27 191.222 2200.75 191.222 Q2205.95 191.222 2208.96 194.393 Q2212 197.541 2212 202.981 Q2212 208.305 2208.85 211.522 Q2205.7 214.74 2200.47 214.74 Q2194.47 214.74 2191.3 210.157 Q2188.13 205.55 2188.13 196.823 Q2188.13 188.629 2192.02 183.768 Q2195.91 178.884 2202.46 178.884 Q2204.22 178.884 2206 179.231 Q2207.81 179.578 2209.75 180.273 Z" fill="#000000" fill-rule="nonzero" fill-opacity="1" /><path clip-path="url(#clip950)" d="M2220.1 179.509 L2238.45 179.509 L2238.45 183.444 L2224.38 183.444 L2224.38 191.916 Q2225.4 191.569 2226.42 191.407 Q2227.44 191.222 2228.45 191.222 Q2234.24 191.222 2237.62 194.393 Q2241 197.564 2241 202.981 Q2241 208.559 2237.53 211.661 Q2234.06 214.74 2227.74 214.74 Q2225.56 214.74 2223.29 214.37 Q2221.05 213.999 2218.64 213.258 L2218.64 208.559 Q2220.72 209.694 2222.95 210.249 Q2225.17 210.805 2227.64 210.805 Q2231.65 210.805 2233.99 208.698 Q2236.33 206.592 2236.33 202.981 Q2236.33 199.37 2233.99 197.263 Q2231.65 195.157 2227.64 195.157 Q2225.77 195.157 2223.89 195.573 Q2222.04 195.99 2220.1 196.87 L2220.1 179.509 Z" fill="#000000" fill-rule="nonzero" fill-opacity="1" /><path clip-path="url(#clip950)" d="M2248.94 178.097 L2252.64 178.097 Q2256.12 183.56 2257.83 188.791 Q2259.57 194.022 2259.57 199.184 Q2259.57 204.37 2257.83 209.624 Q2256.12 214.879 2252.64 220.319 L2248.94 220.319 Q2252.02 215.018 2253.52 209.786 Q2255.05 204.532 2255.05 199.184 Q2255.05 193.837 2253.52 188.629 Q2252.02 183.421 2248.94 178.097 Z" fill="#000000" fill-rule="nonzero" fill-opacity="1" /><polyline clip-path="url(#clip950)" style="stroke:#808080; stroke-linecap:round; stroke-linejoin:round; stroke-width:6; stroke-opacity:1; fill:none" stroke-dasharray="24, 15" points="1655.74,248.629 1795.53,248.629 "/>
<path clip-path="url(#clip950)" d="M1821.05 265.191 L1821.05 260.932 Q1822.81 261.765 1824.61 262.205 Q1826.42 262.645 1828.16 262.645 Q1832.79 262.645 1835.22 259.543 Q1837.67 256.418 1838.02 250.075 Q1836.67 252.066 1834.61 253.131 Q1832.55 254.196 1830.05 254.196 Q1824.87 254.196 1821.84 251.071 Q1818.83 247.923 1818.83 242.483 Q1818.83 237.159 1821.98 233.941 Q1825.12 230.724 1830.36 230.724 Q1836.35 230.724 1839.5 235.33 Q1842.67 239.913 1842.67 248.663 Q1842.67 256.835 1838.78 261.719 Q1834.92 266.58 1828.36 266.58 Q1826.61 266.58 1824.8 266.233 Q1822.99 265.885 1821.05 265.191 M1830.36 250.538 Q1833.5 250.538 1835.33 248.386 Q1837.18 246.233 1837.18 242.483 Q1837.18 238.756 1835.33 236.603 Q1833.5 234.427 1830.36 234.427 Q1827.21 234.427 1825.36 236.603 Q1823.53 238.756 1823.53 242.483 Q1823.53 246.233 1825.36 248.386 Q1827.21 250.538 1830.36 250.538 Z" fill="#000000" fill-rule="nonzero" fill-opacity="1" /><path clip-path="url(#clip950)" d="M1851.12 231.349 L1869.48 231.349 L1869.48 235.284 L1855.4 235.284 L1855.4 243.756 Q1856.42 243.409 1857.44 243.247 Q1858.46 243.062 1859.48 243.062 Q1865.26 243.062 1868.64 246.233 Q1872.02 249.404 1872.02 254.821 Q1872.02 260.399 1868.55 263.501 Q1865.08 266.58 1858.76 266.58 Q1856.58 266.58 1854.31 266.21 Q1852.07 265.839 1849.66 265.098 L1849.66 260.399 Q1851.74 261.534 1853.97 262.089 Q1856.19 262.645 1858.67 262.645 Q1862.67 262.645 1865.01 260.538 Q1867.35 258.432 1867.35 254.821 Q1867.35 251.21 1865.01 249.103 Q1862.67 246.997 1858.67 246.997 Q1856.79 246.997 1854.92 247.413 Q1853.06 247.83 1851.12 248.71 L1851.12 231.349 Z" fill="#000000" fill-rule="nonzero" fill-opacity="1" /><path clip-path="url(#clip950)" d="M1910.63 250.7 Q1908.62 250.7 1907.46 252.413 Q1906.33 254.126 1906.33 257.182 Q1906.33 260.191 1907.46 261.927 Q1908.62 263.64 1910.63 263.64 Q1912.6 263.64 1913.73 261.927 Q1914.89 260.191 1914.89 257.182 Q1914.89 254.149 1913.73 252.436 Q1912.6 250.7 1910.63 250.7 M1910.63 247.761 Q1914.29 247.761 1916.44 250.307 Q1918.6 252.853 1918.6 257.182 Q1918.6 261.51 1916.42 264.057 Q1914.27 266.58 1910.63 266.58 Q1906.93 266.58 1904.78 264.057 Q1902.62 261.51 1902.62 257.182 Q1902.62 252.83 1904.78 250.307 Q1906.95 247.761 1910.63 247.761 M1886.74 233.663 Q1884.75 233.663 1883.6 235.4 Q1882.46 237.112 1882.46 240.122 Q1882.46 243.177 1883.6 244.89 Q1884.73 246.603 1886.74 246.603 Q1888.76 246.603 1889.89 244.89 Q1891.05 243.177 1891.05 240.122 Q1891.05 237.136 1889.89 235.4 Q1888.73 233.663 1886.74 233.663 M1907.65 230.724 L1911.35 230.724 L1889.73 266.58 L1886.03 266.58 L1907.65 230.724 M1886.74 230.724 Q1890.4 230.724 1892.58 233.27 Q1894.75 235.793 1894.75 240.122 Q1894.75 244.497 1892.58 247.02 Q1890.42 249.543 1886.74 249.543 Q1883.06 249.543 1880.91 247.02 Q1878.78 244.474 1878.78 240.122 Q1878.78 235.816 1880.93 233.27 Q1883.09 230.724 1886.74 230.724 Z" fill="#000000" fill-rule="nonzero" fill-opacity="1" /><path clip-path="url(#clip950)" d="M1966.81 234.011 L1966.81 238.941 Q1964.45 236.742 1961.77 235.654 Q1959.1 234.566 1956.1 234.566 Q1950.17 234.566 1947.02 238.2 Q1943.87 241.812 1943.87 248.663 Q1943.87 255.492 1947.02 259.126 Q1950.17 262.737 1956.1 262.737 Q1959.1 262.737 1961.77 261.649 Q1964.45 260.561 1966.81 258.362 L1966.81 263.247 Q1964.36 264.913 1961.6 265.747 Q1958.87 266.58 1955.82 266.58 Q1947.97 266.58 1943.46 261.788 Q1938.94 256.973 1938.94 248.663 Q1938.94 240.33 1943.46 235.538 Q1947.97 230.724 1955.82 230.724 Q1958.92 230.724 1961.65 231.557 Q1964.41 232.367 1966.81 234.011 Z" fill="#000000" fill-rule="nonzero" fill-opacity="1" /><path clip-path="url(#clip950)" d="M1974.03 231.349 L1978.71 231.349 L1978.71 265.909 L1974.03 265.909 L1974.03 231.349 Z" fill="#000000" fill-rule="nonzero" fill-opacity="1" /></svg>
