<?xml version="1.0" encoding="utf-8"?>
<svg xmlns="http://www.w3.org/2000/svg" xmlns:xlink="http://www.w3.org/1999/xlink" width="600" height="400" viewBox="0 0 2400 1600">
<defs>
  <clipPath id="clip150">
    <rect x="0" y="0" width="2400" height="1600"/>
  </clipPath>
</defs>
<path clip-path="url(#clip150)" d="M0 1600 L2400 1600 L2400 8.88178e-14 L0 8.88178e-14  Z" fill="#f2f2f2" fill-rule="evenodd" fill-opacity="1"/>
<defs>
  <clipPath id="clip151">
    <rect x="480" y="0" width="1681" height="1600"/>
  </clipPath>
</defs>
<path clip-path="url(#clip150)" d="M287.366 1423.18 L2352.76 1423.18 L2352.76 47.2441 L287.366 47.2441  Z" fill="#f2f2f2" fill-rule="evenodd" fill-opacity="1"/>
<defs>
  <clipPath id="clip152">
    <rect x="287" y="47" width="2066" height="1377"/>
  </clipPath>
</defs>
<polyline clip-path="url(#clip152)" style="stroke:#000000; stroke-linecap:round; stroke-linejoin:round; stroke-width:2; stroke-opacity:0.1; fill:none" points="338.026,1423.18 338.026,47.2441 "/>
<polyline clip-path="url(#clip152)" style="stroke:#000000; stroke-linecap:round; stroke-linejoin:round; stroke-width:2; stroke-opacity:0.1; fill:none" points="727.723,1423.18 727.723,47.2441 "/>
<polyline clip-path="url(#clip152)" style="stroke:#000000; stroke-linecap:round; stroke-linejoin:round; stroke-width:2; stroke-opacity:0.1; fill:none" points="1117.42,1423.18 1117.42,47.2441 "/>
<polyline clip-path="url(#clip152)" style="stroke:#000000; stroke-linecap:round; stroke-linejoin:round; stroke-width:2; stroke-opacity:0.1; fill:none" points="1507.12,1423.18 1507.12,47.2441 "/>
<polyline clip-path="url(#clip152)" style="stroke:#000000; stroke-linecap:round; stroke-linejoin:round; stroke-width:2; stroke-opacity:0.1; fill:none" points="1896.81,1423.18 1896.81,47.2441 "/>
<polyline clip-path="url(#clip152)" style="stroke:#000000; stroke-linecap:round; stroke-linejoin:round; stroke-width:2; stroke-opacity:0.1; fill:none" points="2286.51,1423.18 2286.51,47.2441 "/>
<polyline clip-path="url(#clip152)" style="stroke:#000000; stroke-linecap:round; stroke-linejoin:round; stroke-width:2; stroke-opacity:0.1; fill:none" points="338.026,1423.18 338.026,47.2441 "/>
<polyline clip-path="url(#clip152)" style="stroke:#000000; stroke-linecap:round; stroke-linejoin:round; stroke-width:2; stroke-opacity:0.1; fill:none" points="727.723,1423.18 727.723,47.2441 "/>
<polyline clip-path="url(#clip152)" style="stroke:#000000; stroke-linecap:round; stroke-linejoin:round; stroke-width:2; stroke-opacity:0.1; fill:none" points="1117.42,1423.18 1117.42,47.2441 "/>
<polyline clip-path="url(#clip152)" style="stroke:#000000; stroke-linecap:round; stroke-linejoin:round; stroke-width:2; stroke-opacity:0.1; fill:none" points="1507.12,1423.18 1507.12,47.2441 "/>
<polyline clip-path="url(#clip152)" style="stroke:#000000; stroke-linecap:round; stroke-linejoin:round; stroke-width:2; stroke-opacity:0.1; fill:none" points="1896.81,1423.18 1896.81,47.2441 "/>
<polyline clip-path="url(#clip152)" style="stroke:#000000; stroke-linecap:round; stroke-linejoin:round; stroke-width:2; stroke-opacity:0.1; fill:none" points="2286.51,1423.18 2286.51,47.2441 "/>
<polyline clip-path="url(#clip152)" style="stroke:#000000; stroke-linecap:round; stroke-linejoin:round; stroke-width:2; stroke-opacity:0.1; fill:none" points="287.366,1286.68 2352.76,1286.68 "/>
<polyline clip-path="url(#clip152)" style="stroke:#000000; stroke-linecap:round; stroke-linejoin:round; stroke-width:2; stroke-opacity:0.1; fill:none" points="287.366,1078.83 2352.76,1078.83 "/>
<polyline clip-path="url(#clip152)" style="stroke:#000000; stroke-linecap:round; stroke-linejoin:round; stroke-width:2; stroke-opacity:0.1; fill:none" points="287.366,870.977 2352.76,870.977 "/>
<polyline clip-path="url(#clip152)" style="stroke:#000000; stroke-linecap:round; stroke-linejoin:round; stroke-width:2; stroke-opacity:0.1; fill:none" points="287.366,663.126 2352.76,663.126 "/>
<polyline clip-path="url(#clip152)" style="stroke:#000000; stroke-linecap:round; stroke-linejoin:round; stroke-width:2; stroke-opacity:0.1; fill:none" points="287.366,455.275 2352.76,455.275 "/>
<polyline clip-path="url(#clip152)" style="stroke:#000000; stroke-linecap:round; stroke-linejoin:round; stroke-width:2; stroke-opacity:0.1; fill:none" points="287.366,247.423 2352.76,247.423 "/>
<polyline clip-path="url(#clip152)" style="stroke:#000000; stroke-linecap:round; stroke-linejoin:round; stroke-width:2; stroke-opacity:0.1; fill:none" points="287.366,1286.68 2352.76,1286.68 "/>
<polyline clip-path="url(#clip152)" style="stroke:#000000; stroke-linecap:round; stroke-linejoin:round; stroke-width:2; stroke-opacity:0.1; fill:none" points="287.366,1078.83 2352.76,1078.83 "/>
<polyline clip-path="url(#clip152)" style="stroke:#000000; stroke-linecap:round; stroke-linejoin:round; stroke-width:2; stroke-opacity:0.1; fill:none" points="287.366,870.977 2352.76,870.977 "/>
<polyline clip-path="url(#clip152)" style="stroke:#000000; stroke-linecap:round; stroke-linejoin:round; stroke-width:2; stroke-opacity:0.1; fill:none" points="287.366,663.126 2352.76,663.126 "/>
<polyline clip-path="url(#clip152)" style="stroke:#000000; stroke-linecap:round; stroke-linejoin:round; stroke-width:2; stroke-opacity:0.1; fill:none" points="287.366,455.275 2352.76,455.275 "/>
<polyline clip-path="url(#clip152)" style="stroke:#000000; stroke-linecap:round; stroke-linejoin:round; stroke-width:2; stroke-opacity:0.1; fill:none" points="287.366,247.423 2352.76,247.423 "/>
<polyline clip-path="url(#clip150)" style="stroke:#000000; stroke-linecap:round; stroke-linejoin:round; stroke-width:4; stroke-opacity:1; fill:none" points="287.366,1423.18 2352.76,1423.18 "/>
<polyline clip-path="url(#clip150)" style="stroke:#000000; stroke-linecap:round; stroke-linejoin:round; stroke-width:4; stroke-opacity:1; fill:none" points="287.366,47.2441 2352.76,47.2441 "/>
<polyline clip-path="url(#clip150)" style="stroke:#000000; stroke-linecap:round; stroke-linejoin:round; stroke-width:4; stroke-opacity:1; fill:none" points="338.026,1423.18 338.026,1404.28 "/>
<polyline clip-path="url(#clip150)" style="stroke:#000000; stroke-linecap:round; stroke-linejoin:round; stroke-width:4; stroke-opacity:1; fill:none" points="727.723,1423.18 727.723,1404.28 "/>
<polyline clip-path="url(#clip150)" style="stroke:#000000; stroke-linecap:round; stroke-linejoin:round; stroke-width:4; stroke-opacity:1; fill:none" points="1117.42,1423.18 1117.42,1404.28 "/>
<polyline clip-path="url(#clip150)" style="stroke:#000000; stroke-linecap:round; stroke-linejoin:round; stroke-width:4; stroke-opacity:1; fill:none" points="1507.12,1423.18 1507.12,1404.28 "/>
<polyline clip-path="url(#clip150)" style="stroke:#000000; stroke-linecap:round; stroke-linejoin:round; stroke-width:4; stroke-opacity:1; fill:none" points="1896.81,1423.18 1896.81,1404.28 "/>
<polyline clip-path="url(#clip150)" style="stroke:#000000; stroke-linecap:round; stroke-linejoin:round; stroke-width:4; stroke-opacity:1; fill:none" points="2286.51,1423.18 2286.51,1404.28 "/>
<polyline clip-path="url(#clip150)" style="stroke:#000000; stroke-linecap:round; stroke-linejoin:round; stroke-width:4; stroke-opacity:1; fill:none" points="338.026,47.2441 338.026,66.1417 "/>
<polyline clip-path="url(#clip150)" style="stroke:#000000; stroke-linecap:round; stroke-linejoin:round; stroke-width:4; stroke-opacity:1; fill:none" points="727.723,47.2441 727.723,66.1417 "/>
<polyline clip-path="url(#clip150)" style="stroke:#000000; stroke-linecap:round; stroke-linejoin:round; stroke-width:4; stroke-opacity:1; fill:none" points="1117.42,47.2441 1117.42,66.1417 "/>
<polyline clip-path="url(#clip150)" style="stroke:#000000; stroke-linecap:round; stroke-linejoin:round; stroke-width:4; stroke-opacity:1; fill:none" points="1507.12,47.2441 1507.12,66.1417 "/>
<polyline clip-path="url(#clip150)" style="stroke:#000000; stroke-linecap:round; stroke-linejoin:round; stroke-width:4; stroke-opacity:1; fill:none" points="1896.81,47.2441 1896.81,66.1417 "/>
<polyline clip-path="url(#clip150)" style="stroke:#000000; stroke-linecap:round; stroke-linejoin:round; stroke-width:4; stroke-opacity:1; fill:none" points="2286.51,47.2441 2286.51,66.1417 "/>
<path clip-path="url(#clip150)" d="M338.026 1454.1 Q334.415 1454.1 332.587 1457.66 Q330.781 1461.2 330.781 1468.33 Q330.781 1475.44 332.587 1479.01 Q334.415 1482.55 338.026 1482.55 Q341.661 1482.55 343.466 1479.01 Q345.295 1475.44 345.295 1468.33 Q345.295 1461.2 343.466 1457.66 Q341.661 1454.1 338.026 1454.1 M338.026 1450.39 Q343.837 1450.39 346.892 1455 Q349.971 1459.58 349.971 1468.33 Q349.971 1477.06 346.892 1481.67 Q343.837 1486.25 338.026 1486.25 Q332.216 1486.25 329.138 1481.67 Q326.082 1477.06 326.082 1468.33 Q326.082 1459.58 329.138 1455 Q332.216 1450.39 338.026 1450.39 Z" fill="#000000" fill-rule="nonzero" fill-opacity="1" /><path clip-path="url(#clip150)" d="M702.422 1451.02 L720.778 1451.02 L720.778 1454.96 L706.704 1454.96 L706.704 1463.43 Q707.723 1463.08 708.741 1462.92 Q709.76 1462.73 710.778 1462.73 Q716.565 1462.73 719.945 1465.9 Q723.325 1469.08 723.325 1474.49 Q723.325 1480.07 719.852 1483.17 Q716.38 1486.25 710.061 1486.25 Q707.885 1486.25 705.616 1485.88 Q703.371 1485.51 700.964 1484.77 L700.964 1480.07 Q703.047 1481.2 705.269 1481.76 Q707.491 1482.32 709.968 1482.32 Q713.973 1482.32 716.311 1480.21 Q718.649 1478.1 718.649 1474.49 Q718.649 1470.88 716.311 1468.77 Q713.973 1466.67 709.968 1466.67 Q708.093 1466.67 706.218 1467.08 Q704.366 1467.5 702.422 1468.38 L702.422 1451.02 Z" fill="#000000" fill-rule="nonzero" fill-opacity="1" /><path clip-path="url(#clip150)" d="M742.537 1454.1 Q738.926 1454.1 737.098 1457.66 Q735.292 1461.2 735.292 1468.33 Q735.292 1475.44 737.098 1479.01 Q738.926 1482.55 742.537 1482.55 Q746.172 1482.55 747.977 1479.01 Q749.806 1475.44 749.806 1468.33 Q749.806 1461.2 747.977 1457.66 Q746.172 1454.1 742.537 1454.1 M742.537 1450.39 Q748.348 1450.39 751.403 1455 Q754.482 1459.58 754.482 1468.33 Q754.482 1477.06 751.403 1481.67 Q748.348 1486.25 742.537 1486.25 Q736.727 1486.25 733.649 1481.67 Q730.593 1477.06 730.593 1468.33 Q730.593 1459.58 733.649 1455 Q736.727 1450.39 742.537 1450.39 Z" fill="#000000" fill-rule="nonzero" fill-opacity="1" /><path clip-path="url(#clip150)" d="M1077.03 1481.64 L1084.66 1481.64 L1084.66 1455.28 L1076.35 1456.95 L1076.35 1452.69 L1084.62 1451.02 L1089.29 1451.02 L1089.29 1481.64 L1096.93 1481.64 L1096.93 1485.58 L1077.03 1485.58 L1077.03 1481.64 Z" fill="#000000" fill-rule="nonzero" fill-opacity="1" /><path clip-path="url(#clip150)" d="M1116.38 1454.1 Q1112.77 1454.1 1110.94 1457.66 Q1109.13 1461.2 1109.13 1468.33 Q1109.13 1475.44 1110.94 1479.01 Q1112.77 1482.55 1116.38 1482.55 Q1120.01 1482.55 1121.82 1479.01 Q1123.65 1475.44 1123.65 1468.33 Q1123.65 1461.2 1121.82 1457.66 Q1120.01 1454.1 1116.38 1454.1 M1116.38 1450.39 Q1122.19 1450.39 1125.24 1455 Q1128.32 1459.58 1128.32 1468.33 Q1128.32 1477.06 1125.24 1481.67 Q1122.19 1486.25 1116.38 1486.25 Q1110.57 1486.25 1107.49 1481.67 Q1104.43 1477.06 1104.43 1468.33 Q1104.43 1459.58 1107.49 1455 Q1110.57 1450.39 1116.38 1450.39 Z" fill="#000000" fill-rule="nonzero" fill-opacity="1" /><path clip-path="url(#clip150)" d="M1146.54 1454.1 Q1142.93 1454.1 1141.1 1457.66 Q1139.29 1461.2 1139.29 1468.33 Q1139.29 1475.44 1141.1 1479.01 Q1142.93 1482.55 1146.54 1482.55 Q1150.17 1482.55 1151.98 1479.01 Q1153.81 1475.44 1153.81 1468.33 Q1153.81 1461.2 1151.98 1457.66 Q1150.17 1454.1 1146.54 1454.1 M1146.54 1450.39 Q1152.35 1450.39 1155.4 1455 Q1158.48 1459.58 1158.48 1468.33 Q1158.48 1477.06 1155.4 1481.67 Q1152.35 1486.25 1146.54 1486.25 Q1140.73 1486.25 1137.65 1481.67 Q1134.59 1477.06 1134.59 1468.33 Q1134.59 1459.58 1137.65 1455 Q1140.73 1450.39 1146.54 1450.39 Z" fill="#000000" fill-rule="nonzero" fill-opacity="1" /><path clip-path="url(#clip150)" d="M1466.72 1481.64 L1474.36 1481.64 L1474.36 1455.28 L1466.05 1456.95 L1466.05 1452.69 L1474.31 1451.02 L1478.99 1451.02 L1478.99 1481.64 L1486.63 1481.64 L1486.63 1485.58 L1466.72 1485.58 L1466.72 1481.64 Z" fill="#000000" fill-rule="nonzero" fill-opacity="1" /><path clip-path="url(#clip150)" d="M1496.12 1451.02 L1514.48 1451.02 L1514.48 1454.96 L1500.4 1454.96 L1500.4 1463.43 Q1501.42 1463.08 1502.44 1462.92 Q1503.46 1462.73 1504.48 1462.73 Q1510.26 1462.73 1513.64 1465.9 Q1517.02 1469.08 1517.02 1474.49 Q1517.02 1480.07 1513.55 1483.17 Q1510.08 1486.25 1503.76 1486.25 Q1501.58 1486.25 1499.31 1485.88 Q1497.07 1485.51 1494.66 1484.77 L1494.66 1480.07 Q1496.74 1481.2 1498.97 1481.76 Q1501.19 1482.32 1503.67 1482.32 Q1507.67 1482.32 1510.01 1480.21 Q1512.35 1478.1 1512.35 1474.49 Q1512.35 1470.88 1510.01 1468.77 Q1507.67 1466.67 1503.67 1466.67 Q1501.79 1466.67 1499.92 1467.08 Q1498.06 1467.5 1496.12 1468.38 L1496.12 1451.02 Z" fill="#000000" fill-rule="nonzero" fill-opacity="1" /><path clip-path="url(#clip150)" d="M1536.24 1454.1 Q1532.62 1454.1 1530.8 1457.66 Q1528.99 1461.2 1528.99 1468.33 Q1528.99 1475.44 1530.8 1479.01 Q1532.62 1482.55 1536.24 1482.55 Q1539.87 1482.55 1541.68 1479.01 Q1543.5 1475.44 1543.5 1468.33 Q1543.5 1461.2 1541.68 1457.66 Q1539.87 1454.1 1536.24 1454.1 M1536.24 1450.39 Q1542.05 1450.39 1545.1 1455 Q1548.18 1459.58 1548.18 1468.33 Q1548.18 1477.06 1545.1 1481.67 Q1542.05 1486.25 1536.24 1486.25 Q1530.43 1486.25 1527.35 1481.67 Q1524.29 1477.06 1524.29 1468.33 Q1524.29 1459.58 1527.35 1455 Q1530.43 1450.39 1536.24 1450.39 Z" fill="#000000" fill-rule="nonzero" fill-opacity="1" /><path clip-path="url(#clip150)" d="M1860.5 1481.64 L1876.82 1481.64 L1876.82 1485.58 L1854.88 1485.58 L1854.88 1481.64 Q1857.54 1478.89 1862.12 1474.26 Q1866.73 1469.61 1867.91 1468.27 Q1870.16 1465.74 1871.04 1464.01 Q1871.94 1462.25 1871.94 1460.56 Q1871.94 1457.8 1869.99 1456.07 Q1868.07 1454.33 1864.97 1454.33 Q1862.77 1454.33 1860.32 1455.09 Q1857.89 1455.86 1855.11 1457.41 L1855.11 1452.69 Q1857.93 1451.55 1860.39 1450.97 Q1862.84 1450.39 1864.88 1450.39 Q1870.25 1450.39 1873.44 1453.08 Q1876.64 1455.77 1876.64 1460.26 Q1876.64 1462.39 1875.83 1464.31 Q1875.04 1466.2 1872.93 1468.8 Q1872.36 1469.47 1869.25 1472.69 Q1866.15 1475.88 1860.5 1481.64 Z" fill="#000000" fill-rule="nonzero" fill-opacity="1" /><path clip-path="url(#clip150)" d="M1896.64 1454.1 Q1893.03 1454.1 1891.2 1457.66 Q1889.39 1461.2 1889.39 1468.33 Q1889.39 1475.44 1891.2 1479.01 Q1893.03 1482.55 1896.64 1482.55 Q1900.27 1482.55 1902.08 1479.01 Q1903.91 1475.44 1903.91 1468.33 Q1903.91 1461.2 1902.08 1457.66 Q1900.27 1454.1 1896.64 1454.1 M1896.64 1450.39 Q1902.45 1450.39 1905.5 1455 Q1908.58 1459.58 1908.58 1468.33 Q1908.58 1477.06 1905.5 1481.67 Q1902.45 1486.25 1896.64 1486.25 Q1890.83 1486.25 1887.75 1481.67 Q1884.69 1477.06 1884.69 1468.33 Q1884.69 1459.58 1887.75 1455 Q1890.83 1450.39 1896.64 1450.39 Z" fill="#000000" fill-rule="nonzero" fill-opacity="1" /><path clip-path="url(#clip150)" d="M1926.8 1454.1 Q1923.19 1454.1 1921.36 1457.66 Q1919.55 1461.2 1919.55 1468.33 Q1919.55 1475.44 1921.36 1479.01 Q1923.19 1482.55 1926.8 1482.55 Q1930.43 1482.55 1932.24 1479.01 Q1934.07 1475.44 1934.07 1468.33 Q1934.07 1461.2 1932.24 1457.66 Q1930.43 1454.1 1926.8 1454.1 M1926.8 1450.39 Q1932.61 1450.39 1935.67 1455 Q1938.74 1459.58 1938.74 1468.33 Q1938.74 1477.06 1935.67 1481.67 Q1932.61 1486.25 1926.8 1486.25 Q1920.99 1486.25 1917.91 1481.67 Q1914.86 1477.06 1914.86 1468.33 Q1914.86 1459.58 1917.91 1455 Q1920.99 1450.39 1926.8 1450.39 Z" fill="#000000" fill-rule="nonzero" fill-opacity="1" /><path clip-path="url(#clip150)" d="M2250.2 1481.64 L2266.52 1481.64 L2266.52 1485.58 L2244.57 1485.58 L2244.57 1481.64 Q2247.24 1478.89 2251.82 1474.26 Q2256.43 1469.61 2257.61 1468.27 Q2259.85 1465.74 2260.73 1464.01 Q2261.63 1462.25 2261.63 1460.56 Q2261.63 1457.8 2259.69 1456.07 Q2257.77 1454.33 2254.67 1454.33 Q2252.47 1454.33 2250.01 1455.09 Q2247.58 1455.86 2244.81 1457.41 L2244.81 1452.69 Q2247.63 1451.55 2250.08 1450.97 Q2252.54 1450.39 2254.57 1450.39 Q2259.95 1450.39 2263.14 1453.08 Q2266.33 1455.77 2266.33 1460.26 Q2266.33 1462.39 2265.52 1464.31 Q2264.74 1466.2 2262.63 1468.8 Q2262.05 1469.47 2258.95 1472.69 Q2255.85 1475.88 2250.2 1481.64 Z" fill="#000000" fill-rule="nonzero" fill-opacity="1" /><path clip-path="url(#clip150)" d="M2276.38 1451.02 L2294.74 1451.02 L2294.74 1454.96 L2280.66 1454.96 L2280.66 1463.43 Q2281.68 1463.08 2282.7 1462.92 Q2283.72 1462.73 2284.74 1462.73 Q2290.52 1462.73 2293.9 1465.9 Q2297.28 1469.08 2297.28 1474.49 Q2297.28 1480.07 2293.81 1483.17 Q2290.34 1486.25 2284.02 1486.25 Q2281.84 1486.25 2279.57 1485.88 Q2277.33 1485.51 2274.92 1484.77 L2274.92 1480.07 Q2277.01 1481.2 2279.23 1481.76 Q2281.45 1482.32 2283.93 1482.32 Q2287.93 1482.32 2290.27 1480.21 Q2292.61 1478.1 2292.61 1474.49 Q2292.61 1470.88 2290.27 1468.77 Q2287.93 1466.67 2283.93 1466.67 Q2282.05 1466.67 2280.18 1467.08 Q2278.32 1467.5 2276.38 1468.38 L2276.38 1451.02 Z" fill="#000000" fill-rule="nonzero" fill-opacity="1" /><path clip-path="url(#clip150)" d="M2316.5 1454.1 Q2312.88 1454.1 2311.06 1457.66 Q2309.25 1461.2 2309.25 1468.33 Q2309.25 1475.44 2311.06 1479.01 Q2312.88 1482.55 2316.5 1482.55 Q2320.13 1482.55 2321.94 1479.01 Q2323.76 1475.44 2323.76 1468.33 Q2323.76 1461.2 2321.94 1457.66 Q2320.13 1454.1 2316.5 1454.1 M2316.5 1450.39 Q2322.31 1450.39 2325.36 1455 Q2328.44 1459.58 2328.44 1468.33 Q2328.44 1477.06 2325.36 1481.67 Q2322.31 1486.25 2316.5 1486.25 Q2310.69 1486.25 2307.61 1481.67 Q2304.55 1477.06 2304.55 1468.33 Q2304.55 1459.58 2307.61 1455 Q2310.69 1450.39 2316.5 1450.39 Z" fill="#000000" fill-rule="nonzero" fill-opacity="1" /><path clip-path="url(#clip150)" d="M1043.9 1520.52 L1050.33 1520.52 L1050.33 1562.63 L1073.47 1562.63 L1073.47 1568.04 L1043.9 1568.04 L1043.9 1520.52 Z" fill="#000000" fill-rule="nonzero" fill-opacity="1" /><path clip-path="url(#clip150)" d="M1096.16 1550.12 Q1089.07 1550.12 1086.33 1551.75 Q1083.59 1553.37 1083.59 1557.29 Q1083.59 1560.4 1085.63 1562.25 Q1087.7 1564.07 1091.23 1564.07 Q1096.1 1564.07 1099.03 1560.63 Q1101.99 1557.16 1101.99 1551.43 L1101.99 1550.12 L1096.16 1550.12 M1107.84 1547.71 L1107.84 1568.04 L1101.99 1568.04 L1101.99 1562.63 Q1099.98 1565.88 1096.99 1567.44 Q1094 1568.97 1089.67 1568.97 Q1084.2 1568.97 1080.95 1565.91 Q1077.73 1562.82 1077.73 1557.67 Q1077.73 1551.65 1081.74 1548.6 Q1085.79 1545.54 1093.78 1545.54 L1101.99 1545.54 L1101.99 1544.97 Q1101.99 1540.93 1099.31 1538.73 Q1096.67 1536.5 1091.87 1536.5 Q1088.81 1536.5 1085.91 1537.23 Q1083.02 1537.97 1080.34 1539.43 L1080.34 1534.02 Q1083.56 1532.78 1086.58 1532.17 Q1089.61 1531.54 1092.47 1531.54 Q1100.21 1531.54 1104.02 1535.55 Q1107.84 1539.56 1107.84 1547.71 Z" fill="#000000" fill-rule="nonzero" fill-opacity="1" /><path clip-path="url(#clip150)" d="M1143.36 1549.81 Q1143.36 1543.44 1140.72 1539.94 Q1138.11 1536.44 1133.37 1536.44 Q1128.66 1536.44 1126.02 1539.94 Q1123.41 1543.44 1123.41 1549.81 Q1123.41 1556.14 1126.02 1559.64 Q1128.66 1563.14 1133.37 1563.14 Q1138.11 1563.14 1140.72 1559.64 Q1143.36 1556.14 1143.36 1549.81 M1149.22 1563.62 Q1149.22 1572.72 1145.18 1577.15 Q1141.14 1581.6 1132.8 1581.6 Q1129.71 1581.6 1126.97 1581.13 Q1124.24 1580.68 1121.66 1579.72 L1121.66 1574.03 Q1124.24 1575.43 1126.75 1576.1 Q1129.26 1576.76 1131.87 1576.76 Q1137.64 1576.76 1140.5 1573.74 Q1143.36 1570.75 1143.36 1564.67 L1143.36 1561.77 Q1141.55 1564.92 1138.72 1566.48 Q1135.89 1568.04 1131.94 1568.04 Q1125.38 1568.04 1121.37 1563.05 Q1117.36 1558.05 1117.36 1549.81 Q1117.36 1541.53 1121.37 1536.53 Q1125.38 1531.54 1131.94 1531.54 Q1135.89 1531.54 1138.72 1533.1 Q1141.55 1534.66 1143.36 1537.81 L1143.36 1532.4 L1149.22 1532.4 L1149.22 1563.62 Z" fill="#000000" fill-rule="nonzero" fill-opacity="1" /><path clip-path="url(#clip150)" d="M1196.07 1518.58 Q1191.81 1525.9 1189.74 1533.06 Q1187.67 1540.23 1187.67 1547.58 Q1187.67 1554.93 1189.74 1562.16 Q1191.84 1569.35 1196.07 1576.64 L1190.98 1576.64 Q1186.21 1569.16 1183.82 1561.93 Q1181.46 1554.71 1181.46 1547.58 Q1181.46 1540.48 1183.82 1533.29 Q1186.17 1526.09 1190.98 1518.58 L1196.07 1518.58 Z" fill="#000000" fill-rule="nonzero" fill-opacity="1" /><path clip-path="url(#clip150)" d="M1213.23 1522.27 L1213.23 1532.4 L1225.29 1532.4 L1225.29 1536.95 L1213.23 1536.95 L1213.23 1556.3 Q1213.23 1560.66 1214.41 1561.9 Q1215.62 1563.14 1219.28 1563.14 L1225.29 1563.14 L1225.29 1568.04 L1219.28 1568.04 Q1212.5 1568.04 1209.92 1565.53 Q1207.34 1562.98 1207.34 1556.3 L1207.34 1536.95 L1203.04 1536.95 L1203.04 1532.4 L1207.34 1532.4 L1207.34 1522.27 L1213.23 1522.27 Z" fill="#000000" fill-rule="nonzero" fill-opacity="1" /><path clip-path="url(#clip150)" d="M1253.65 1537.87 Q1252.66 1537.3 1251.49 1537.04 Q1250.34 1536.76 1248.94 1536.76 Q1243.97 1536.76 1241.3 1540 Q1238.66 1543.22 1238.66 1549.27 L1238.66 1568.04 L1232.77 1568.04 L1232.77 1532.4 L1238.66 1532.4 L1238.66 1537.93 Q1240.51 1534.69 1243.47 1533.13 Q1246.43 1531.54 1250.66 1531.54 Q1251.26 1531.54 1252 1531.63 Q1252.73 1531.7 1253.62 1531.85 L1253.65 1537.87 Z" fill="#000000" fill-rule="nonzero" fill-opacity="1" /><path clip-path="url(#clip150)" d="M1275.99 1550.12 Q1268.9 1550.12 1266.16 1551.75 Q1263.42 1553.37 1263.42 1557.29 Q1263.42 1560.4 1265.46 1562.25 Q1267.53 1564.07 1271.06 1564.07 Q1275.93 1564.07 1278.86 1560.63 Q1281.82 1557.16 1281.82 1551.43 L1281.82 1550.12 L1275.99 1550.12 M1287.68 1547.71 L1287.68 1568.04 L1281.82 1568.04 L1281.82 1562.63 Q1279.81 1565.88 1276.82 1567.44 Q1273.83 1568.97 1269.5 1568.97 Q1264.03 1568.97 1260.78 1565.91 Q1257.57 1562.82 1257.57 1557.67 Q1257.57 1551.65 1261.58 1548.6 Q1265.62 1545.54 1273.61 1545.54 L1281.82 1545.54 L1281.82 1544.97 Q1281.82 1540.93 1279.15 1538.73 Q1276.5 1536.5 1271.7 1536.5 Q1268.64 1536.5 1265.75 1537.23 Q1262.85 1537.97 1260.18 1539.43 L1260.18 1534.02 Q1263.39 1532.78 1266.41 1532.17 Q1269.44 1531.54 1272.3 1531.54 Q1280.04 1531.54 1283.86 1535.55 Q1287.68 1539.56 1287.68 1547.71 Z" fill="#000000" fill-rule="nonzero" fill-opacity="1" /><path clip-path="url(#clip150)" d="M1323.2 1537.81 L1323.2 1518.52 L1329.05 1518.52 L1329.05 1568.04 L1323.2 1568.04 L1323.2 1562.7 Q1321.35 1565.88 1318.52 1567.44 Q1315.72 1568.97 1311.77 1568.97 Q1305.31 1568.97 1301.23 1563.81 Q1297.19 1558.65 1297.19 1550.25 Q1297.19 1541.85 1301.23 1536.69 Q1305.31 1531.54 1311.77 1531.54 Q1315.72 1531.54 1318.52 1533.1 Q1321.35 1534.62 1323.2 1537.81 M1303.24 1550.25 Q1303.24 1556.71 1305.88 1560.4 Q1308.55 1564.07 1313.2 1564.07 Q1317.85 1564.07 1320.52 1560.4 Q1323.2 1556.71 1323.2 1550.25 Q1323.2 1543.79 1320.52 1540.13 Q1317.85 1536.44 1313.2 1536.44 Q1308.55 1536.44 1305.88 1540.13 Q1303.24 1543.79 1303.24 1550.25 Z" fill="#000000" fill-rule="nonzero" fill-opacity="1" /><path clip-path="url(#clip150)" d="M1341.12 1532.4 L1346.97 1532.4 L1346.97 1568.04 L1341.12 1568.04 L1341.12 1532.4 M1341.12 1518.52 L1346.97 1518.52 L1346.97 1525.93 L1341.12 1525.93 L1341.12 1518.52 Z" fill="#000000" fill-rule="nonzero" fill-opacity="1" /><path clip-path="url(#clip150)" d="M1388.86 1546.53 L1388.86 1568.04 L1383 1568.04 L1383 1546.72 Q1383 1541.66 1381.03 1539.14 Q1379.06 1536.63 1375.11 1536.63 Q1370.37 1536.63 1367.63 1539.65 Q1364.89 1542.68 1364.89 1547.9 L1364.89 1568.04 L1359 1568.04 L1359 1532.4 L1364.89 1532.4 L1364.89 1537.93 Q1366.99 1534.72 1369.82 1533.13 Q1372.69 1531.54 1376.41 1531.54 Q1382.56 1531.54 1385.71 1535.36 Q1388.86 1539.14 1388.86 1546.53 Z" fill="#000000" fill-rule="nonzero" fill-opacity="1" /><path clip-path="url(#clip150)" d="M1424 1549.81 Q1424 1543.44 1421.36 1539.94 Q1418.75 1536.44 1414 1536.44 Q1409.29 1536.44 1406.65 1539.94 Q1404.04 1543.44 1404.04 1549.81 Q1404.04 1556.14 1406.65 1559.64 Q1409.29 1563.14 1414 1563.14 Q1418.75 1563.14 1421.36 1559.64 Q1424 1556.14 1424 1549.81 M1429.85 1563.62 Q1429.85 1572.72 1425.81 1577.15 Q1421.77 1581.6 1413.43 1581.6 Q1410.34 1581.6 1407.61 1581.13 Q1404.87 1580.68 1402.29 1579.72 L1402.29 1574.03 Q1404.87 1575.43 1407.38 1576.1 Q1409.9 1576.76 1412.51 1576.76 Q1418.27 1576.76 1421.13 1573.74 Q1424 1570.75 1424 1564.67 L1424 1561.77 Q1422.18 1564.92 1419.35 1566.48 Q1416.52 1568.04 1412.57 1568.04 Q1406.01 1568.04 1402 1563.05 Q1397.99 1558.05 1397.99 1549.81 Q1397.99 1541.53 1402 1536.53 Q1406.01 1531.54 1412.57 1531.54 Q1416.52 1531.54 1419.35 1533.1 Q1422.18 1534.66 1424 1537.81 L1424 1532.4 L1429.85 1532.4 L1429.85 1563.62 Z" fill="#000000" fill-rule="nonzero" fill-opacity="1" /><path clip-path="url(#clip150)" d="M1486.09 1537.81 L1486.09 1518.52 L1491.95 1518.52 L1491.95 1568.04 L1486.09 1568.04 L1486.09 1562.7 Q1484.25 1565.88 1481.42 1567.44 Q1478.61 1568.97 1474.67 1568.97 Q1468.21 1568.97 1464.13 1563.81 Q1460.09 1558.65 1460.09 1550.25 Q1460.09 1541.85 1464.13 1536.69 Q1468.21 1531.54 1474.67 1531.54 Q1478.61 1531.54 1481.42 1533.1 Q1484.25 1534.62 1486.09 1537.81 M1466.14 1550.25 Q1466.14 1556.71 1468.78 1560.4 Q1471.45 1564.07 1476.1 1564.07 Q1480.75 1564.07 1483.42 1560.4 Q1486.09 1556.71 1486.09 1550.25 Q1486.09 1543.79 1483.42 1540.13 Q1480.75 1536.44 1476.1 1536.44 Q1471.45 1536.44 1468.78 1540.13 Q1466.14 1543.79 1466.14 1550.25 Z" fill="#000000" fill-rule="nonzero" fill-opacity="1" /><path clip-path="url(#clip150)" d="M1520.21 1550.12 Q1513.12 1550.12 1510.38 1551.75 Q1507.64 1553.37 1507.64 1557.29 Q1507.64 1560.4 1509.68 1562.25 Q1511.75 1564.07 1515.28 1564.07 Q1520.15 1564.07 1523.08 1560.63 Q1526.04 1557.16 1526.04 1551.43 L1526.04 1550.12 L1520.21 1550.12 M1531.9 1547.71 L1531.9 1568.04 L1526.04 1568.04 L1526.04 1562.63 Q1524.03 1565.88 1521.04 1567.44 Q1518.05 1568.97 1513.72 1568.97 Q1508.25 1568.97 1505 1565.91 Q1501.79 1562.82 1501.79 1557.67 Q1501.79 1551.65 1505.8 1548.6 Q1509.84 1545.54 1517.83 1545.54 L1526.04 1545.54 L1526.04 1544.97 Q1526.04 1540.93 1523.37 1538.73 Q1520.72 1536.5 1515.92 1536.5 Q1512.86 1536.5 1509.97 1537.23 Q1507.07 1537.97 1504.4 1539.43 L1504.4 1534.02 Q1507.61 1532.78 1510.63 1532.17 Q1513.66 1531.54 1516.52 1531.54 Q1524.26 1531.54 1528.08 1535.55 Q1531.9 1539.56 1531.9 1547.71 Z" fill="#000000" fill-rule="nonzero" fill-opacity="1" /><path clip-path="url(#clip150)" d="M1558.79 1571.35 Q1556.31 1577.72 1553.95 1579.66 Q1551.6 1581.6 1547.65 1581.6 L1542.97 1581.6 L1542.97 1576.7 L1546.41 1576.7 Q1548.83 1576.7 1550.17 1575.56 Q1551.5 1574.41 1553.13 1570.14 L1554.18 1567.47 L1539.76 1532.4 L1545.96 1532.4 L1557.1 1560.28 L1568.24 1532.4 L1574.45 1532.4 L1558.79 1571.35 Z" fill="#000000" fill-rule="nonzero" fill-opacity="1" /><path clip-path="url(#clip150)" d="M1581.61 1518.58 L1586.7 1518.58 Q1591.48 1526.09 1593.83 1533.29 Q1596.22 1540.48 1596.22 1547.58 Q1596.22 1554.71 1593.83 1561.93 Q1591.48 1569.16 1586.7 1576.64 L1581.61 1576.64 Q1585.85 1569.35 1587.91 1562.16 Q1590.01 1554.93 1590.01 1547.58 Q1590.01 1540.23 1587.91 1533.06 Q1585.85 1525.9 1581.61 1518.58 Z" fill="#000000" fill-rule="nonzero" fill-opacity="1" /><polyline clip-path="url(#clip150)" style="stroke:#000000; stroke-linecap:round; stroke-linejoin:round; stroke-width:4; stroke-opacity:1; fill:none" points="287.366,1423.18 287.366,47.2441 "/>
<polyline clip-path="url(#clip150)" style="stroke:#000000; stroke-linecap:round; stroke-linejoin:round; stroke-width:4; stroke-opacity:1; fill:none" points="2352.76,1423.18 2352.76,47.2441 "/>
<polyline clip-path="url(#clip150)" style="stroke:#000000; stroke-linecap:round; stroke-linejoin:round; stroke-width:4; stroke-opacity:1; fill:none" points="287.366,1286.68 306.264,1286.68 "/>
<polyline clip-path="url(#clip150)" style="stroke:#000000; stroke-linecap:round; stroke-linejoin:round; stroke-width:4; stroke-opacity:1; fill:none" points="287.366,1078.83 306.264,1078.83 "/>
<polyline clip-path="url(#clip150)" style="stroke:#000000; stroke-linecap:round; stroke-linejoin:round; stroke-width:4; stroke-opacity:1; fill:none" points="287.366,870.977 306.264,870.977 "/>
<polyline clip-path="url(#clip150)" style="stroke:#000000; stroke-linecap:round; stroke-linejoin:round; stroke-width:4; stroke-opacity:1; fill:none" points="287.366,663.126 306.264,663.126 "/>
<polyline clip-path="url(#clip150)" style="stroke:#000000; stroke-linecap:round; stroke-linejoin:round; stroke-width:4; stroke-opacity:1; fill:none" points="287.366,455.275 306.264,455.275 "/>
<polyline clip-path="url(#clip150)" style="stroke:#000000; stroke-linecap:round; stroke-linejoin:round; stroke-width:4; stroke-opacity:1; fill:none" points="287.366,247.423 306.264,247.423 "/>
<polyline clip-path="url(#clip150)" style="stroke:#000000; stroke-linecap:round; stroke-linejoin:round; stroke-width:4; stroke-opacity:1; fill:none" points="2352.76,1286.68 2333.86,1286.68 "/>
<polyline clip-path="url(#clip150)" style="stroke:#000000; stroke-linecap:round; stroke-linejoin:round; stroke-width:4; stroke-opacity:1; fill:none" points="2352.76,1078.83 2333.86,1078.83 "/>
<polyline clip-path="url(#clip150)" style="stroke:#000000; stroke-linecap:round; stroke-linejoin:round; stroke-width:4; stroke-opacity:1; fill:none" points="2352.76,870.977 2333.86,870.977 "/>
<polyline clip-path="url(#clip150)" style="stroke:#000000; stroke-linecap:round; stroke-linejoin:round; stroke-width:4; stroke-opacity:1; fill:none" points="2352.76,663.126 2333.86,663.126 "/>
<polyline clip-path="url(#clip150)" style="stroke:#000000; stroke-linecap:round; stroke-linejoin:round; stroke-width:4; stroke-opacity:1; fill:none" points="2352.76,455.275 2333.86,455.275 "/>
<polyline clip-path="url(#clip150)" style="stroke:#000000; stroke-linecap:round; stroke-linejoin:round; stroke-width:4; stroke-opacity:1; fill:none" points="2352.76,247.423 2333.86,247.423 "/>
<path clip-path="url(#clip150)" d="M114.26 1287.13 L143.936 1287.13 L143.936 1291.07 L114.26 1291.07 L114.26 1287.13 Z" fill="#000000" fill-rule="nonzero" fill-opacity="1" /><path clip-path="url(#clip150)" d="M164.028 1272.48 Q160.417 1272.48 158.589 1276.04 Q156.783 1279.58 156.783 1286.71 Q156.783 1293.82 158.589 1297.39 Q160.417 1300.93 164.028 1300.93 Q167.663 1300.93 169.468 1297.39 Q171.297 1293.82 171.297 1286.71 Q171.297 1279.58 169.468 1276.04 Q167.663 1272.48 164.028 1272.48 M164.028 1268.77 Q169.839 1268.77 172.894 1273.38 Q175.973 1277.96 175.973 1286.71 Q175.973 1295.44 172.894 1300.05 Q169.839 1304.63 164.028 1304.63 Q158.218 1304.63 155.14 1300.05 Q152.084 1295.44 152.084 1286.71 Q152.084 1277.96 155.14 1273.38 Q158.218 1268.77 164.028 1268.77 Z" fill="#000000" fill-rule="nonzero" fill-opacity="1" /><path clip-path="url(#clip150)" d="M184.19 1298.08 L189.075 1298.08 L189.075 1303.96 L184.19 1303.96 L184.19 1298.08 Z" fill="#000000" fill-rule="nonzero" fill-opacity="1" /><path clip-path="url(#clip150)" d="M200.07 1300.02 L207.709 1300.02 L207.709 1273.66 L199.399 1275.33 L199.399 1271.07 L207.662 1269.4 L212.338 1269.4 L212.338 1300.02 L219.977 1300.02 L219.977 1303.96 L200.07 1303.96 L200.07 1300.02 Z" fill="#000000" fill-rule="nonzero" fill-opacity="1" /><path clip-path="url(#clip150)" d="M239.422 1272.48 Q235.81 1272.48 233.982 1276.04 Q232.176 1279.58 232.176 1286.71 Q232.176 1293.82 233.982 1297.39 Q235.81 1300.93 239.422 1300.93 Q243.056 1300.93 244.861 1297.39 Q246.69 1293.82 246.69 1286.71 Q246.69 1279.58 244.861 1276.04 Q243.056 1272.48 239.422 1272.48 M239.422 1268.77 Q245.232 1268.77 248.287 1273.38 Q251.366 1277.96 251.366 1286.71 Q251.366 1295.44 248.287 1300.05 Q245.232 1304.63 239.422 1304.63 Q233.611 1304.63 230.533 1300.05 Q227.477 1295.44 227.477 1286.71 Q227.477 1277.96 230.533 1273.38 Q233.611 1268.77 239.422 1268.77 Z" fill="#000000" fill-rule="nonzero" fill-opacity="1" /><path clip-path="url(#clip150)" d="M115.256 1079.28 L144.931 1079.28 L144.931 1083.21 L115.256 1083.21 L115.256 1079.28 Z" fill="#000000" fill-rule="nonzero" fill-opacity="1" /><path clip-path="url(#clip150)" d="M165.024 1064.63 Q161.413 1064.63 159.584 1068.19 Q157.778 1071.73 157.778 1078.86 Q157.778 1085.97 159.584 1089.53 Q161.413 1093.08 165.024 1093.08 Q168.658 1093.08 170.464 1089.53 Q172.292 1085.97 172.292 1078.86 Q172.292 1071.73 170.464 1068.19 Q168.658 1064.63 165.024 1064.63 M165.024 1060.92 Q170.834 1060.92 173.889 1065.53 Q176.968 1070.11 176.968 1078.86 Q176.968 1087.59 173.889 1092.2 Q170.834 1096.78 165.024 1096.78 Q159.214 1096.78 156.135 1092.2 Q153.079 1087.59 153.079 1078.86 Q153.079 1070.11 156.135 1065.53 Q159.214 1060.92 165.024 1060.92 Z" fill="#000000" fill-rule="nonzero" fill-opacity="1" /><path clip-path="url(#clip150)" d="M185.186 1090.23 L190.07 1090.23 L190.07 1096.11 L185.186 1096.11 L185.186 1090.23 Z" fill="#000000" fill-rule="nonzero" fill-opacity="1" /><path clip-path="url(#clip150)" d="M210.255 1064.63 Q206.644 1064.63 204.815 1068.19 Q203.01 1071.73 203.01 1078.86 Q203.01 1085.97 204.815 1089.53 Q206.644 1093.08 210.255 1093.08 Q213.889 1093.08 215.695 1089.53 Q217.523 1085.97 217.523 1078.86 Q217.523 1071.73 215.695 1068.19 Q213.889 1064.63 210.255 1064.63 M210.255 1060.92 Q216.065 1060.92 219.121 1065.53 Q222.199 1070.11 222.199 1078.86 Q222.199 1087.59 219.121 1092.2 Q216.065 1096.78 210.255 1096.78 Q204.445 1096.78 201.366 1092.2 Q198.311 1087.59 198.311 1078.86 Q198.311 1070.11 201.366 1065.53 Q204.445 1060.92 210.255 1060.92 Z" fill="#000000" fill-rule="nonzero" fill-opacity="1" /><path clip-path="url(#clip150)" d="M230.463 1061.55 L248.82 1061.55 L248.82 1065.48 L234.746 1065.48 L234.746 1073.96 Q235.764 1073.61 236.783 1073.45 Q237.801 1073.26 238.82 1073.26 Q244.607 1073.26 247.986 1076.43 Q251.366 1079.6 251.366 1085.02 Q251.366 1090.6 247.894 1093.7 Q244.421 1096.78 238.102 1096.78 Q235.926 1096.78 233.658 1096.41 Q231.412 1096.04 229.005 1095.3 L229.005 1090.6 Q231.088 1091.73 233.31 1092.29 Q235.533 1092.84 238.009 1092.84 Q242.014 1092.84 244.352 1090.74 Q246.69 1088.63 246.69 1085.02 Q246.69 1081.41 244.352 1079.3 Q242.014 1077.2 238.009 1077.2 Q236.135 1077.2 234.26 1077.61 Q232.408 1078.03 230.463 1078.91 L230.463 1061.55 Z" fill="#000000" fill-rule="nonzero" fill-opacity="1" /><path clip-path="url(#clip150)" d="M164.028 856.776 Q160.417 856.776 158.589 860.341 Q156.783 863.882 156.783 871.012 Q156.783 878.118 158.589 881.683 Q160.417 885.225 164.028 885.225 Q167.663 885.225 169.468 881.683 Q171.297 878.118 171.297 871.012 Q171.297 863.882 169.468 860.341 Q167.663 856.776 164.028 856.776 M164.028 853.072 Q169.839 853.072 172.894 857.679 Q175.973 862.262 175.973 871.012 Q175.973 879.739 172.894 884.345 Q169.839 888.928 164.028 888.928 Q158.218 888.928 155.14 884.345 Q152.084 879.739 152.084 871.012 Q152.084 862.262 155.14 857.679 Q158.218 853.072 164.028 853.072 Z" fill="#000000" fill-rule="nonzero" fill-opacity="1" /><path clip-path="url(#clip150)" d="M184.19 882.377 L189.075 882.377 L189.075 888.257 L184.19 888.257 L184.19 882.377 Z" fill="#000000" fill-rule="nonzero" fill-opacity="1" /><path clip-path="url(#clip150)" d="M209.26 856.776 Q205.649 856.776 203.82 860.341 Q202.014 863.882 202.014 871.012 Q202.014 878.118 203.82 881.683 Q205.649 885.225 209.26 885.225 Q212.894 885.225 214.699 881.683 Q216.528 878.118 216.528 871.012 Q216.528 863.882 214.699 860.341 Q212.894 856.776 209.26 856.776 M209.26 853.072 Q215.07 853.072 218.125 857.679 Q221.204 862.262 221.204 871.012 Q221.204 879.739 218.125 884.345 Q215.07 888.928 209.26 888.928 Q203.449 888.928 200.371 884.345 Q197.315 879.739 197.315 871.012 Q197.315 862.262 200.371 857.679 Q203.449 853.072 209.26 853.072 Z" fill="#000000" fill-rule="nonzero" fill-opacity="1" /><path clip-path="url(#clip150)" d="M239.422 856.776 Q235.81 856.776 233.982 860.341 Q232.176 863.882 232.176 871.012 Q232.176 878.118 233.982 881.683 Q235.81 885.225 239.422 885.225 Q243.056 885.225 244.861 881.683 Q246.69 878.118 246.69 871.012 Q246.69 863.882 244.861 860.341 Q243.056 856.776 239.422 856.776 M239.422 853.072 Q245.232 853.072 248.287 857.679 Q251.366 862.262 251.366 871.012 Q251.366 879.739 248.287 884.345 Q245.232 888.928 239.422 888.928 Q233.611 888.928 230.533 884.345 Q227.477 879.739 227.477 871.012 Q227.477 862.262 230.533 857.679 Q233.611 853.072 239.422 853.072 Z" fill="#000000" fill-rule="nonzero" fill-opacity="1" /><path clip-path="url(#clip150)" d="M165.024 648.925 Q161.413 648.925 159.584 652.489 Q157.778 656.031 157.778 663.161 Q157.778 670.267 159.584 673.832 Q161.413 677.373 165.024 677.373 Q168.658 677.373 170.464 673.832 Q172.292 670.267 172.292 663.161 Q172.292 656.031 170.464 652.489 Q168.658 648.925 165.024 648.925 M165.024 645.221 Q170.834 645.221 173.889 649.827 Q176.968 654.411 176.968 663.161 Q176.968 671.887 173.889 676.494 Q170.834 681.077 165.024 681.077 Q159.214 681.077 156.135 676.494 Q153.079 671.887 153.079 663.161 Q153.079 654.411 156.135 649.827 Q159.214 645.221 165.024 645.221 Z" fill="#000000" fill-rule="nonzero" fill-opacity="1" /><path clip-path="url(#clip150)" d="M185.186 674.526 L190.07 674.526 L190.07 680.406 L185.186 680.406 L185.186 674.526 Z" fill="#000000" fill-rule="nonzero" fill-opacity="1" /><path clip-path="url(#clip150)" d="M210.255 648.925 Q206.644 648.925 204.815 652.489 Q203.01 656.031 203.01 663.161 Q203.01 670.267 204.815 673.832 Q206.644 677.373 210.255 677.373 Q213.889 677.373 215.695 673.832 Q217.523 670.267 217.523 663.161 Q217.523 656.031 215.695 652.489 Q213.889 648.925 210.255 648.925 M210.255 645.221 Q216.065 645.221 219.121 649.827 Q222.199 654.411 222.199 663.161 Q222.199 671.887 219.121 676.494 Q216.065 681.077 210.255 681.077 Q204.445 681.077 201.366 676.494 Q198.311 671.887 198.311 663.161 Q198.311 654.411 201.366 649.827 Q204.445 645.221 210.255 645.221 Z" fill="#000000" fill-rule="nonzero" fill-opacity="1" /><path clip-path="url(#clip150)" d="M230.463 645.846 L248.82 645.846 L248.82 649.781 L234.746 649.781 L234.746 658.253 Q235.764 657.906 236.783 657.744 Q237.801 657.559 238.82 657.559 Q244.607 657.559 247.986 660.73 Q251.366 663.901 251.366 669.318 Q251.366 674.897 247.894 677.998 Q244.421 681.077 238.102 681.077 Q235.926 681.077 233.658 680.707 Q231.412 680.336 229.005 679.596 L229.005 674.897 Q231.088 676.031 233.31 676.586 Q235.533 677.142 238.009 677.142 Q242.014 677.142 244.352 675.035 Q246.69 672.929 246.69 669.318 Q246.69 665.707 244.352 663.6 Q242.014 661.494 238.009 661.494 Q236.135 661.494 234.26 661.911 Q232.408 662.327 230.463 663.207 L230.463 645.846 Z" fill="#000000" fill-rule="nonzero" fill-opacity="1" /><path clip-path="url(#clip150)" d="M164.028 441.073 Q160.417 441.073 158.589 444.638 Q156.783 448.18 156.783 455.309 Q156.783 462.416 158.589 465.981 Q160.417 469.522 164.028 469.522 Q167.663 469.522 169.468 465.981 Q171.297 462.416 171.297 455.309 Q171.297 448.18 169.468 444.638 Q167.663 441.073 164.028 441.073 M164.028 437.37 Q169.839 437.37 172.894 441.976 Q175.973 446.559 175.973 455.309 Q175.973 464.036 172.894 468.643 Q169.839 473.226 164.028 473.226 Q158.218 473.226 155.14 468.643 Q152.084 464.036 152.084 455.309 Q152.084 446.559 155.14 441.976 Q158.218 437.37 164.028 437.37 Z" fill="#000000" fill-rule="nonzero" fill-opacity="1" /><path clip-path="url(#clip150)" d="M184.19 466.675 L189.075 466.675 L189.075 472.555 L184.19 472.555 L184.19 466.675 Z" fill="#000000" fill-rule="nonzero" fill-opacity="1" /><path clip-path="url(#clip150)" d="M200.07 468.619 L207.709 468.619 L207.709 442.254 L199.399 443.92 L199.399 439.661 L207.662 437.995 L212.338 437.995 L212.338 468.619 L219.977 468.619 L219.977 472.555 L200.07 472.555 L200.07 468.619 Z" fill="#000000" fill-rule="nonzero" fill-opacity="1" /><path clip-path="url(#clip150)" d="M239.422 441.073 Q235.81 441.073 233.982 444.638 Q232.176 448.18 232.176 455.309 Q232.176 462.416 233.982 465.981 Q235.81 469.522 239.422 469.522 Q243.056 469.522 244.861 465.981 Q246.69 462.416 246.69 455.309 Q246.69 448.18 244.861 444.638 Q243.056 441.073 239.422 441.073 M239.422 437.37 Q245.232 437.37 248.287 441.976 Q251.366 446.559 251.366 455.309 Q251.366 464.036 248.287 468.643 Q245.232 473.226 239.422 473.226 Q233.611 473.226 230.533 468.643 Q227.477 464.036 227.477 455.309 Q227.477 446.559 230.533 441.976 Q233.611 437.37 239.422 437.37 Z" fill="#000000" fill-rule="nonzero" fill-opacity="1" /><path clip-path="url(#clip150)" d="M165.024 233.222 Q161.413 233.222 159.584 236.787 Q157.778 240.328 157.778 247.458 Q157.778 254.565 159.584 258.129 Q161.413 261.671 165.024 261.671 Q168.658 261.671 170.464 258.129 Q172.292 254.565 172.292 247.458 Q172.292 240.328 170.464 236.787 Q168.658 233.222 165.024 233.222 M165.024 229.518 Q170.834 229.518 173.889 234.125 Q176.968 238.708 176.968 247.458 Q176.968 256.185 173.889 260.791 Q170.834 265.375 165.024 265.375 Q159.214 265.375 156.135 260.791 Q153.079 256.185 153.079 247.458 Q153.079 238.708 156.135 234.125 Q159.214 229.518 165.024 229.518 Z" fill="#000000" fill-rule="nonzero" fill-opacity="1" /><path clip-path="url(#clip150)" d="M185.186 258.824 L190.07 258.824 L190.07 264.703 L185.186 264.703 L185.186 258.824 Z" fill="#000000" fill-rule="nonzero" fill-opacity="1" /><path clip-path="url(#clip150)" d="M201.065 260.768 L208.704 260.768 L208.704 234.403 L200.394 236.069 L200.394 231.81 L208.658 230.143 L213.334 230.143 L213.334 260.768 L220.973 260.768 L220.973 264.703 L201.065 264.703 L201.065 260.768 Z" fill="#000000" fill-rule="nonzero" fill-opacity="1" /><path clip-path="url(#clip150)" d="M230.463 230.143 L248.82 230.143 L248.82 234.079 L234.746 234.079 L234.746 242.551 Q235.764 242.203 236.783 242.041 Q237.801 241.856 238.82 241.856 Q244.607 241.856 247.986 245.028 Q251.366 248.199 251.366 253.615 Q251.366 259.194 247.894 262.296 Q244.421 265.375 238.102 265.375 Q235.926 265.375 233.658 265.004 Q231.412 264.634 229.005 263.893 L229.005 259.194 Q231.088 260.328 233.31 260.884 Q235.533 261.439 238.009 261.439 Q242.014 261.439 244.352 259.333 Q246.69 257.227 246.69 253.615 Q246.69 250.004 244.352 247.898 Q242.014 245.791 238.009 245.791 Q236.135 245.791 234.26 246.208 Q232.408 246.625 230.463 247.504 L230.463 230.143 Z" fill="#000000" fill-rule="nonzero" fill-opacity="1" /><path clip-path="url(#clip150)" d="M22.818 960.972 L46.4666 969.693 L46.4666 952.219 L22.818 960.972 M16.4842 964.6 L16.4842 957.311 L64.0042 939.201 L64.0042 945.885 L51.8138 950.214 L51.8138 971.634 L64.0042 975.963 L64.0042 982.742 L16.4842 964.6 Z" fill="#000000" fill-rule="nonzero" fill-opacity="1" /><path clip-path="url(#clip150)" d="M49.9359 933.122 L28.3562 933.122 L28.3562 927.265 L49.7131 927.265 Q54.7739 927.265 57.3202 925.292 Q59.8346 923.319 59.8346 919.372 Q59.8346 914.629 56.8109 911.892 Q53.7872 909.123 48.5673 909.123 L28.3562 909.123 L28.3562 903.267 L64.0042 903.267 L64.0042 909.123 L58.5296 909.123 Q61.7762 911.256 63.3676 914.088 Q64.9272 916.889 64.9272 920.613 Q64.9272 926.756 61.1078 929.939 Q57.2883 933.122 49.9359 933.122 M27.4968 918.385 L27.4968 918.385 Z" fill="#000000" fill-rule="nonzero" fill-opacity="1" /><path clip-path="url(#clip150)" d="M18.2347 885.411 L28.3562 885.411 L28.3562 873.348 L32.9077 873.348 L32.9077 885.411 L52.2594 885.411 Q56.6199 885.411 57.8613 884.233 Q59.1026 883.024 59.1026 879.363 L59.1026 873.348 L64.0042 873.348 L64.0042 879.363 Q64.0042 886.143 61.4897 888.721 Q58.9434 891.299 52.2594 891.299 L32.9077 891.299 L32.9077 895.596 L28.3562 895.596 L28.3562 891.299 L18.2347 891.299 L18.2347 885.411 Z" fill="#000000" fill-rule="nonzero" fill-opacity="1" /><path clip-path="url(#clip150)" d="M32.4621 851.832 Q32.4621 856.542 36.1542 859.28 Q39.8145 862.017 46.212 862.017 Q52.6095 862.017 56.3017 859.311 Q59.9619 856.574 59.9619 851.832 Q59.9619 847.153 56.2698 844.416 Q52.5777 841.678 46.212 841.678 Q39.8781 841.678 36.186 844.416 Q32.4621 847.153 32.4621 851.832 M27.4968 851.832 Q27.4968 844.193 32.4621 839.832 Q37.4273 835.472 46.212 835.472 Q54.9649 835.472 59.9619 839.832 Q64.9272 844.193 64.9272 851.832 Q64.9272 859.502 59.9619 863.863 Q54.9649 868.192 46.212 868.192 Q37.4273 868.192 32.4621 863.863 Q27.4968 859.502 27.4968 851.832 Z" fill="#000000" fill-rule="nonzero" fill-opacity="1" /><path clip-path="url(#clip150)" d="M29.7248 800.11 L35.1993 800.11 Q33.8307 802.593 33.1623 805.107 Q32.4621 807.59 32.4621 810.136 Q32.4621 815.834 36.0905 818.985 Q39.6872 822.136 46.212 822.136 Q52.7369 822.136 56.3653 818.985 Q59.9619 815.834 59.9619 810.136 Q59.9619 807.59 59.2935 805.107 Q58.5933 802.593 57.2247 800.11 L62.6355 800.11 Q63.7814 802.561 64.3543 805.203 Q64.9272 807.813 64.9272 810.773 Q64.9272 818.826 59.8664 823.568 Q54.8057 828.31 46.212 828.31 Q37.491 828.31 32.4939 823.536 Q27.4968 818.73 27.4968 810.391 Q27.4968 807.686 28.0697 805.107 Q28.6108 802.529 29.7248 800.11 Z" fill="#000000" fill-rule="nonzero" fill-opacity="1" /><path clip-path="url(#clip150)" d="M32.4621 776.112 Q32.4621 780.822 36.1542 783.56 Q39.8145 786.297 46.212 786.297 Q52.6095 786.297 56.3017 783.591 Q59.9619 780.854 59.9619 776.112 Q59.9619 771.433 56.2698 768.696 Q52.5777 765.958 46.212 765.958 Q39.8781 765.958 36.186 768.696 Q32.4621 771.433 32.4621 776.112 M27.4968 776.112 Q27.4968 768.473 32.4621 764.112 Q37.4273 759.752 46.212 759.752 Q54.9649 759.752 59.9619 764.112 Q64.9272 768.473 64.9272 776.112 Q64.9272 783.782 59.9619 788.143 Q54.9649 792.471 46.212 792.471 Q37.4273 792.471 32.4621 788.143 Q27.4968 783.782 27.4968 776.112 Z" fill="#000000" fill-rule="nonzero" fill-opacity="1" /><path clip-path="url(#clip150)" d="M33.8307 729.387 Q33.2578 730.374 33.0032 731.552 Q32.7167 732.698 32.7167 734.098 Q32.7167 739.063 35.9632 741.737 Q39.1779 744.379 45.2253 744.379 L64.0042 744.379 L64.0042 750.267 L28.3562 750.267 L28.3562 744.379 L33.8944 744.379 Q30.6479 742.533 29.0883 739.572 Q27.4968 736.612 27.4968 732.379 Q27.4968 731.774 27.5923 731.042 Q27.656 730.31 27.8151 729.419 L33.8307 729.387 Z" fill="#000000" fill-rule="nonzero" fill-opacity="1" /><path clip-path="url(#clip150)" d="M33.8307 703.734 Q33.2578 704.72 33.0032 705.898 Q32.7167 707.044 32.7167 708.444 Q32.7167 713.409 35.9632 716.083 Q39.1779 718.725 45.2253 718.725 L64.0042 718.725 L64.0042 724.613 L28.3562 724.613 L28.3562 718.725 L33.8944 718.725 Q30.6479 716.879 29.0883 713.919 Q27.4968 710.959 27.4968 706.725 Q27.4968 706.121 27.5923 705.389 Q27.656 704.657 27.8151 703.765 L33.8307 703.734 Z" fill="#000000" fill-rule="nonzero" fill-opacity="1" /><path clip-path="url(#clip150)" d="M44.7161 668.531 L47.5806 668.531 L47.5806 695.458 Q53.6281 695.076 56.8109 691.83 Q59.9619 688.551 59.9619 682.727 Q59.9619 679.353 59.1344 676.202 Q58.3069 673.019 56.6518 669.9 L62.1899 669.9 Q63.5267 673.051 64.227 676.361 Q64.9272 679.671 64.9272 683.077 Q64.9272 691.607 59.9619 696.604 Q54.9967 701.569 46.5303 701.569 Q37.7774 701.569 32.6531 696.859 Q27.4968 692.116 27.4968 684.095 Q27.4968 676.902 32.1438 672.733 Q36.7589 668.531 44.7161 668.531 M42.9973 674.388 Q38.1912 674.451 35.3266 677.093 Q32.4621 679.703 32.4621 684.032 Q32.4621 688.933 35.2312 691.893 Q38.0002 694.822 43.0292 695.267 L42.9973 674.388 Z" fill="#000000" fill-rule="nonzero" fill-opacity="1" /><path clip-path="url(#clip150)" d="M14.479 658.919 L14.479 653.063 L64.0042 653.063 L64.0042 658.919 L14.479 658.919 Z" fill="#000000" fill-rule="nonzero" fill-opacity="1" /><path clip-path="url(#clip150)" d="M46.0847 624.608 Q46.0847 631.706 47.7079 634.443 Q49.3312 637.18 53.2461 637.18 Q56.3653 637.18 58.2114 635.143 Q60.0256 633.074 60.0256 629.541 Q60.0256 624.671 56.5881 621.743 Q53.1188 618.783 47.3897 618.783 L46.0847 618.783 L46.0847 624.608 M43.6657 612.927 L64.0042 612.927 L64.0042 618.783 L58.5933 618.783 Q61.8398 620.788 63.3994 623.78 Q64.9272 626.772 64.9272 631.101 Q64.9272 636.575 61.8716 639.822 Q58.7843 643.037 53.6281 643.037 Q47.6125 643.037 44.5569 639.026 Q41.5014 634.984 41.5014 626.995 L41.5014 618.783 L40.9285 618.783 Q36.8862 618.783 34.6901 621.457 Q32.4621 624.099 32.4621 628.905 Q32.4621 631.96 33.1941 634.857 Q33.9262 637.753 35.3903 640.427 L29.9795 640.427 Q28.7381 637.212 28.1334 634.188 Q27.4968 631.164 27.4968 628.3 Q27.4968 620.566 31.5072 616.746 Q35.5176 612.927 43.6657 612.927 Z" fill="#000000" fill-rule="nonzero" fill-opacity="1" /><path clip-path="url(#clip150)" d="M18.2347 595.071 L28.3562 595.071 L28.3562 583.008 L32.9077 583.008 L32.9077 595.071 L52.2594 595.071 Q56.6199 595.071 57.8613 593.893 Q59.1026 592.684 59.1026 589.024 L59.1026 583.008 L64.0042 583.008 L64.0042 589.024 Q64.0042 595.803 61.4897 598.381 Q58.9434 600.959 52.2594 600.959 L32.9077 600.959 L32.9077 605.256 L28.3562 605.256 L28.3562 600.959 L18.2347 600.959 L18.2347 595.071 Z" fill="#000000" fill-rule="nonzero" fill-opacity="1" /><path clip-path="url(#clip150)" d="M28.3562 575.305 L28.3562 569.449 L64.0042 569.449 L64.0042 575.305 L28.3562 575.305 M14.479 575.305 L14.479 569.449 L21.895 569.449 L21.895 575.305 L14.479 575.305 Z" fill="#000000" fill-rule="nonzero" fill-opacity="1" /><path clip-path="url(#clip150)" d="M32.4621 543.381 Q32.4621 548.092 36.1542 550.829 Q39.8145 553.567 46.212 553.567 Q52.6095 553.567 56.3017 550.861 Q59.9619 548.124 59.9619 543.381 Q59.9619 538.703 56.2698 535.965 Q52.5777 533.228 46.212 533.228 Q39.8781 533.228 36.186 535.965 Q32.4621 538.703 32.4621 543.381 M27.4968 543.381 Q27.4968 535.743 32.4621 531.382 Q37.4273 527.022 46.212 527.022 Q54.9649 527.022 59.9619 531.382 Q64.9272 535.743 64.9272 543.381 Q64.9272 551.052 59.9619 555.413 Q54.9649 559.741 46.212 559.741 Q37.4273 559.741 32.4621 555.413 Q27.4968 551.052 27.4968 543.381 Z" fill="#000000" fill-rule="nonzero" fill-opacity="1" /><path clip-path="url(#clip150)" d="M42.4881 487.681 L64.0042 487.681 L64.0042 493.538 L42.679 493.538 Q37.6183 493.538 35.1038 495.511 Q32.5894 497.485 32.5894 501.431 Q32.5894 506.174 35.6131 508.911 Q38.6368 511.648 43.8567 511.648 L64.0042 511.648 L64.0042 517.537 L28.3562 517.537 L28.3562 511.648 L33.8944 511.648 Q30.6797 509.548 29.0883 506.715 Q27.4968 503.85 27.4968 500.126 Q27.4968 493.984 31.3163 490.832 Q35.1038 487.681 42.4881 487.681 Z" fill="#000000" fill-rule="nonzero" fill-opacity="1" /><polyline clip-path="url(#clip152)" style="stroke:#ff0000; stroke-linecap:round; stroke-linejoin:round; stroke-width:8; stroke-opacity:1; fill:none" points="345.82,89.4951 353.614,89.4951 353.614,820.154 361.408,820.154 361.408,943.853 369.202,943.853 369.202,910.864 376.996,910.864 376.996,971.008 384.79,971.008 384.79,1025.59 392.584,1025.59 392.584,613.443 400.378,613.443 400.378,930.708 408.172,930.708 408.172,608.899 415.966,608.899 415.966,947.443 423.76,947.443 423.76,858.663 431.554,858.663 431.554,934.412 439.347,934.412 439.347,939.962 447.141,939.962 447.141,929.732 454.935,929.732 454.935,1086.94 462.729,1086.94 462.729,758.62 470.523,758.62 470.523,855.058 478.317,855.058 478.317,902.241 486.111,902.241 486.111,840.068 493.905,840.068 493.905,740.083 501.699,740.083 501.699,945.557 509.493,945.557 509.493,1110.43 517.287,1110.43 517.287,1066.83 525.081,1066.83 525.081,963.687 532.875,963.687 532.875,959.96 540.668,959.96 540.668,1030.6 548.462,1030.6 548.462,879.234 556.256,879.234 556.256,795.243 564.05,795.243 564.05,838.207 571.844,838.207 571.844,992.978 579.638,992.978 579.638,1132.18 587.432,1132.18 587.432,1081.3 595.226,1081.3 595.226,822.041 603.02,822.041 603.02,816.023 610.814,816.023 610.814,855.974 618.608,855.974 618.608,702.533 626.402,702.533 626.402,898.947 634.196,898.947 634.196,844.724 641.989,844.724 641.989,937.748 649.783,937.748 649.783,993.496 657.577,993.496 657.577,998.952 665.371,998.952 665.371,858.046 673.165,858.046 673.165,856.119 680.959,856.119 680.959,892.949 688.753,892.949 688.753,890.773 696.547,890.773 696.547,1010.37 704.341,1010.37 704.341,790.753 712.135,790.753 712.135,896.694 719.929,896.694 719.929,948.179 727.723,948.179 727.723,934.031 735.517,934.031 735.517,932.853 743.31,932.853 743.31,828.235 751.104,828.235 751.104,889.337 758.898,889.337 758.898,779.602 766.692,779.602 766.692,955.96 774.486,955.96 774.486,894.992 782.28,894.992 782.28,989.785 790.074,989.785 790.074,881.443 797.868,881.443 797.868,849.19 805.662,849.19 805.662,902.833 813.456,902.833 813.456,847.701 821.25,847.701 821.25,1018.53 829.044,1018.53 829.044,703.053 836.838,703.053 836.838,864.614 844.632,864.614 844.632,935.595 852.425,935.595 852.425,904.552 860.219,904.552 860.219,950.765 868.013,950.765 868.013,839.618 875.807,839.618 875.807,831.901 883.601,831.901 883.601,799.022 891.395,799.022 891.395,918.577 899.189,918.577 899.189,735.609 906.983,735.609 906.983,852.294 914.777,852.294 914.777,967.885 922.571,967.885 922.571,903.995 930.365,903.995 930.365,836.343 938.159,836.343 938.159,902.191 945.953,902.191 945.953,878.963 953.746,878.963 953.746,916.536 961.54,916.536 961.54,978.3 969.334,978.3 969.334,714.047 977.128,714.047 977.128,689.334 984.922,689.334 984.922,863.359 992.716,863.359 992.716,985.758 1000.51,985.758 1000.51,964.28 1008.3,964.28 1008.3,959.196 1016.1,959.196 1016.1,814.11 1023.89,814.11 1023.89,801.237 1031.69,801.237 1031.69,911.546 1039.48,911.546 1039.48,833.26 1047.27,833.26 1047.27,903.622 1055.07,903.622 1055.07,930.784 1062.86,930.784 1062.86,1032.57 1070.66,1032.57 1070.66,959.981 1078.45,959.981 1078.45,879.822 1086.24,879.822 1086.24,728.463 1094.04,728.463 1094.04,533.867 1101.83,533.867 1101.83,789.005 1109.62,789.005 1109.62,886.499 1117.42,886.499 1117.42,829.152 1125.21,829.152 1125.21,800.155 1133.01,800.155 1133.01,922.306 1140.8,922.306 1140.8,815.03 1148.59,815.03 1148.59,861.541 1156.39,861.541 1156.39,915.109 1164.18,915.109 1164.18,739.134 1171.98,739.134 1171.98,926.915 1179.77,926.915 1179.77,889.048 1187.56,889.048 1187.56,960.205 1195.36,960.205 1195.36,807.075 1203.15,807.075 1203.15,845.388 1210.95,845.388 1210.95,826.159 1218.74,826.159 1218.74,879.014 1226.53,879.014 1226.53,1033.73 1234.33,1033.73 1234.33,904.34 1242.12,904.34 1242.12,879.465 1249.92,879.465 1249.92,707.524 1257.71,707.524 1257.71,833.884 1265.5,833.884 1265.5,841.353 1273.3,841.353 1273.3,892.607 1281.09,892.607 1281.09,869.566 1288.89,869.566 1288.89,857.57 1296.68,857.57 1296.68,866.712 1304.47,866.712 1304.47,933.909 1312.27,933.909 1312.27,906.973 1320.06,906.973 1320.06,837.343 1327.85,837.343 1327.85,912.253 1335.65,912.253 1335.65,898.833 1343.44,898.833 1343.44,941.641 1351.24,941.641 1351.24,859.004 1359.03,859.004 1359.03,907.316 1366.82,907.316 1366.82,983.255 1374.62,983.255 1374.62,798.529 1382.41,798.529 1382.41,816.034 1390.21,816.034 1390.21,645.669 1398,645.669 1398,991.592 1405.79,991.592 1405.79,902.633 1413.59,902.633 1413.59,855.265 1421.38,855.265 1421.38,883.334 1429.18,883.334 1429.18,1039.27 1436.97,1039.27 1436.97,1011.72 1444.76,1011.72 1444.76,812.099 1452.56,812.099 1452.56,953.849 1460.35,953.849 1460.35,902.909 1468.15,902.909 1468.15,904.044 1475.94,904.044 1475.94,817.854 1483.73,817.854 1483.73,801.435 1491.53,801.435 1491.53,847.3 1499.32,847.3 1499.32,828.534 1507.12,828.534 1507.12,872.442 1514.91,872.442 1514.91,650.715 1522.7,650.715 1522.7,762.544 1530.5,762.544 1530.5,770.329 1538.29,770.329 1538.29,676.725 1546.08,676.725 1546.08,743.973 1553.88,743.973 1553.88,838.953 1561.67,838.953 1561.67,932.027 1569.47,932.027 1569.47,835.391 1577.26,835.391 1577.26,756.329 1585.05,756.329 1585.05,774.929 1592.85,774.929 1592.85,941.979 1600.64,941.979 1600.64,906.037 1608.44,906.037 1608.44,813.244 1616.23,813.244 1616.23,958.49 1624.02,958.49 1624.02,918.909 1631.82,918.909 1631.82,845.568 1639.61,845.568 1639.61,829.588 1647.41,829.588 1647.41,817.878 1655.2,817.878 1655.2,880.839 1662.99,880.839 1662.99,1021.74 1670.79,1021.74 1670.79,828.341 1678.58,828.341 1678.58,786.802 1686.38,786.802 1686.38,822.956 1694.17,822.956 1694.17,1013.58 1701.96,1013.58 1701.96,834.775 1709.76,834.775 1709.76,899.557 1717.55,899.557 1717.55,957.027 1725.34,957.027 1725.34,854.15 1733.14,854.15 1733.14,815.914 1740.93,815.914 1740.93,826.691 1748.73,826.691 1748.73,1060.11 1756.52,1060.11 1756.52,937.886 1764.31,937.886 1764.31,945.934 1772.11,945.934 1772.11,806.424 1779.9,806.424 1779.9,816.476 1787.7,816.476 1787.7,785.378 1795.49,785.378 1795.49,747.218 1803.28,747.218 1803.28,906.494 1811.08,906.494 1811.08,955.067 1818.87,955.067 1818.87,1007.96 1826.67,1007.96 1826.67,896.044 1834.46,896.044 1834.46,928.766 1842.25,928.766 1842.25,828.293 1850.05,828.293 1850.05,835.945 1857.84,835.945 1857.84,905.995 1865.64,905.995 1865.64,816.835 1873.43,816.835 1873.43,905.84 1881.22,905.84 1881.22,969.54 1889.02,969.54 1889.02,866.894 1896.81,866.894 1896.81,870.932 1904.61,870.932 1904.61,817.185 1912.4,817.185 1912.4,843.593 1920.19,843.593 1920.19,859.934 1927.99,859.934 1927.99,982.619 1935.78,982.619 1935.78,869.161 1943.57,869.161 1943.57,776.544 1951.37,776.544 1951.37,731.662 1959.16,731.662 1959.16,923.806 1966.96,923.806 1966.96,909.599 1974.75,909.599 1974.75,841.899 1982.54,841.899 1982.54,920.971 1990.34,920.971 1990.34,795.806 1998.13,795.806 1998.13,887.837 2005.93,887.837 2005.93,833.568 2013.72,833.568 2013.72,910.627 2021.51,910.627 2021.51,914.117 2029.31,914.117 2029.31,766.931 2037.1,766.931 2037.1,851.943 2044.9,851.943 2044.9,773.286 2052.69,773.286 2052.69,868.836 2060.48,868.836 2060.48,930.941 2068.28,930.941 2068.28,1057.64 2076.07,1057.64 2076.07,840.338 2083.87,840.338 2083.87,857.372 2091.66,857.372 2091.66,872.115 2099.45,872.115 2099.45,904.798 2107.25,904.798 2107.25,974.317 2115.04,974.317 2115.04,1080.27 2122.84,1080.27 2122.84,874.629 2130.63,874.629 2130.63,914.014 2138.42,914.014 2138.42,821.994 2146.22,821.994 2146.22,796.797 2154.01,796.797 2154.01,937.812 2161.8,937.812 2161.8,970.541 2169.6,970.541 2169.6,913.466 2177.39,913.466 2177.39,972.931 2185.19,972.931 2185.19,981.28 2192.98,981.28 2192.98,763.206 2200.77,763.206 2200.77,820.329 2208.57,820.329 2208.57,860.338 2216.36,860.338 2216.36,855.407 2224.16,855.407 2224.16,845.556 2231.95,845.556 2231.95,873.334 2239.74,873.334 2239.74,850.523 2247.54,850.523 2247.54,725.291 2255.33,725.291 2255.33,849.498 2263.13,849.498 2263.13,919.889 2270.92,919.889 2270.92,845.016 2278.71,845.016 2278.71,833.087 2286.51,833.087 2286.51,852.753 2294.3,852.753 2294.3,834.565 "/>
<polyline clip-path="url(#clip152)" style="stroke:#0000ff; stroke-linecap:round; stroke-linejoin:round; stroke-width:8; stroke-opacity:1; fill:none" points="345.82,86.1857 353.614,86.1857 353.614,815.278 361.408,815.278 361.408,914.636 369.202,914.636 369.202,876.534 376.996,876.534 376.996,860.363 384.79,860.363 384.79,887.625 392.584,887.625 392.584,851.523 400.378,851.523 400.378,925.581 408.172,925.581 408.172,902.682 415.966,902.682 415.966,778.639 423.76,778.639 423.76,880.939 431.554,880.939 431.554,881.854 439.347,881.854 439.347,966.637 447.141,966.637 447.141,833.797 454.935,833.797 454.935,808.39 462.729,808.39 462.729,915.541 470.523,915.541 470.523,809.501 478.317,809.501 478.317,842.309 486.111,842.309 486.111,914.998 493.905,914.998 493.905,752.257 501.699,752.257 501.699,840.113 509.493,840.113 509.493,847.286 517.287,847.286 517.287,924.604 525.081,924.604 525.081,859.78 532.875,859.78 532.875,699.698 540.668,699.698 540.668,782.316 548.462,782.316 548.462,693.705 556.256,693.705 556.256,920.331 564.05,920.331 564.05,850.308 571.844,850.308 571.844,908.18 579.638,908.18 579.638,868.391 587.432,868.391 587.432,843.757 595.226,843.757 595.226,789.436 603.02,789.436 603.02,944.584 610.814,944.584 610.814,912.549 618.608,912.549 618.608,966.92 626.402,966.92 626.402,886.174 634.196,886.174 634.196,943.635 641.989,943.635 641.989,1027.89 649.783,1027.89 649.783,807.933 657.577,807.933 657.577,848.027 665.371,848.027 665.371,720.989 673.165,720.989 673.165,809.788 680.959,809.788 680.959,1066.71 688.753,1066.71 688.753,876.122 696.547,876.122 696.547,774.856 704.341,774.856 704.341,1009.25 712.135,1009.25 712.135,1000.72 719.929,1000.72 719.929,911.11 727.723,911.11 727.723,885.673 735.517,885.673 735.517,931.116 743.31,931.116 743.31,668.369 751.104,668.369 751.104,812.172 758.898,812.172 758.898,826.164 766.692,826.164 766.692,886.411 774.486,886.411 774.486,966.696 782.28,966.696 782.28,845.533 790.074,845.533 790.074,872.882 797.868,872.882 797.868,940.503 805.662,940.503 805.662,990.743 813.456,990.743 813.456,920.111 821.25,920.111 821.25,796.772 829.044,796.772 829.044,931.383 836.838,931.383 836.838,953.058 844.632,953.058 844.632,883.755 852.425,883.755 852.425,794.859 860.219,794.859 860.219,731.242 868.013,731.242 868.013,896.247 875.807,896.247 875.807,887.208 883.601,887.208 883.601,778.27 891.395,778.27 891.395,843.288 899.189,843.288 899.189,921.003 906.983,921.003 906.983,1047.91 914.777,1047.91 914.777,939.349 922.571,939.349 922.571,756.825 930.365,756.825 930.365,958.227 938.159,958.227 938.159,927.883 945.953,927.883 945.953,831.217 953.746,831.217 953.746,1069.82 961.54,1069.82 961.54,963.405 969.334,963.405 969.334,903.764 977.128,903.764 977.128,788.54 984.922,788.54 984.922,726.76 992.716,726.76 992.716,874.78 1000.51,874.78 1000.51,779.081 1008.3,779.081 1008.3,874.047 1016.1,874.047 1016.1,890.347 1023.89,890.347 1023.89,786.966 1031.69,786.966 1031.69,920.612 1039.48,920.612 1039.48,935.166 1047.27,935.166 1047.27,703.788 1055.07,703.788 1055.07,753.732 1062.86,753.732 1062.86,721.128 1070.66,721.128 1070.66,851.279 1078.45,851.279 1078.45,895.841 1086.24,895.841 1086.24,881.213 1094.04,881.213 1094.04,946.716 1101.83,946.716 1101.83,923.245 1109.62,923.245 1109.62,920.545 1117.42,920.545 1117.42,888.504 1125.21,888.504 1125.21,936.039 1133.01,936.039 1133.01,916.2 1140.8,916.2 1140.8,815.308 1148.59,815.308 1148.59,995.321 1156.39,995.321 1156.39,965.341 1164.18,965.341 1164.18,923.549 1171.98,923.549 1171.98,787.316 1179.77,787.316 1179.77,789.084 1187.56,789.084 1187.56,803.907 1195.36,803.907 1195.36,749.97 1203.15,749.97 1203.15,888.688 1210.95,888.688 1210.95,872.304 1218.74,872.304 1218.74,981.514 1226.53,981.514 1226.53,958.965 1234.33,958.965 1234.33,892.162 1242.12,892.162 1242.12,813.681 1249.92,813.681 1249.92,710.635 1257.71,710.635 1257.71,785.527 1265.5,785.527 1265.5,1029.61 1273.3,1029.61 1273.3,901.093 1281.09,901.093 1281.09,754.085 1288.89,754.085 1288.89,951.441 1296.68,951.441 1296.68,876.726 1304.47,876.726 1304.47,803.789 1312.27,803.789 1312.27,911.954 1320.06,911.954 1320.06,913.433 1327.85,913.433 1327.85,1046.85 1335.65,1046.85 1335.65,1011.58 1343.44,1011.58 1343.44,884.296 1351.24,884.296 1351.24,831.891 1359.03,831.891 1359.03,751.224 1366.82,751.224 1366.82,923.411 1374.62,923.411 1374.62,855.152 1382.41,855.152 1382.41,863.017 1390.21,863.017 1390.21,825.407 1398,825.407 1398,877.095 1405.79,877.095 1405.79,835.715 1413.59,835.715 1413.59,862.304 1421.38,862.304 1421.38,950.093 1429.18,950.093 1429.18,961.826 1436.97,961.826 1436.97,865.227 1444.76,865.227 1444.76,845.815 1452.56,845.815 1452.56,731.452 1460.35,731.452 1460.35,838.379 1468.15,838.379 1468.15,871.416 1475.94,871.416 1475.94,700.668 1483.73,700.668 1483.73,850.342 1491.53,850.342 1491.53,771.565 1499.32,771.565 1499.32,831.427 1507.12,831.427 1507.12,813.198 1514.91,813.198 1514.91,995.145 1522.7,995.145 1522.7,855.98 1530.5,855.98 1530.5,821.233 1538.29,821.233 1538.29,938.841 1546.08,938.841 1546.08,843.468 1553.88,843.468 1553.88,952.184 1561.67,952.184 1561.67,914.628 1569.47,914.628 1569.47,730.452 1577.26,730.452 1577.26,796.182 1585.05,796.182 1585.05,881.04 1592.85,881.04 1592.85,992.196 1600.64,992.196 1600.64,904.376 1608.44,904.376 1608.44,764.852 1616.23,764.852 1616.23,863.83 1624.02,863.83 1624.02,913.465 1631.82,913.465 1631.82,853.287 1639.61,853.287 1639.61,915.131 1647.41,915.131 1647.41,857.065 1655.2,857.065 1655.2,862.309 1662.99,862.309 1662.99,867.786 1670.79,867.786 1670.79,871.166 1678.58,871.166 1678.58,715.106 1686.38,715.106 1686.38,731.887 1694.17,731.887 1694.17,879.273 1701.96,879.273 1701.96,903.561 1709.76,903.561 1709.76,667.858 1717.55,667.858 1717.55,828.406 1725.34,828.406 1725.34,854.413 1733.14,854.413 1733.14,872.894 1740.93,872.894 1740.93,877.009 1748.73,877.009 1748.73,838.455 1756.52,838.455 1756.52,949.881 1764.31,949.881 1764.31,863.598 1772.11,863.598 1772.11,926.899 1779.9,926.899 1779.9,991.316 1787.7,991.316 1787.7,977.824 1795.49,977.824 1795.49,816.22 1803.28,816.22 1803.28,741.107 1811.08,741.107 1811.08,896.391 1818.87,896.391 1818.87,834.924 1826.67,834.924 1826.67,773.2 1834.46,773.2 1834.46,830.114 1842.25,830.114 1842.25,877.645 1850.05,877.645 1850.05,981.605 1857.84,981.605 1857.84,826.37 1865.64,826.37 1865.64,862.952 1873.43,862.952 1873.43,966.835 1881.22,966.835 1881.22,769.891 1889.02,769.891 1889.02,724.073 1896.81,724.073 1896.81,850.092 1904.61,850.092 1904.61,747.064 1912.4,747.064 1912.4,889.47 1920.19,889.47 1920.19,832.792 1927.99,832.792 1927.99,954.197 1935.78,954.197 1935.78,809.124 1943.57,809.124 1943.57,907.794 1951.37,907.794 1951.37,908.246 1959.16,908.246 1959.16,907.839 1966.96,907.839 1966.96,890.211 1974.75,890.211 1974.75,989.389 1982.54,989.389 1982.54,771.799 1990.34,771.799 1990.34,813.035 1998.13,813.035 1998.13,791.816 2005.93,791.816 2005.93,925.804 2013.72,925.804 2013.72,765.934 2021.51,765.934 2021.51,844.302 2029.31,844.302 2029.31,889.688 2037.1,889.688 2037.1,741.125 2044.9,741.125 2044.9,804.81 2052.69,804.81 2052.69,767.94 2060.48,767.94 2060.48,798.098 2068.28,798.098 2068.28,860.137 2076.07,860.137 2076.07,775.383 2083.87,775.383 2083.87,810.124 2091.66,810.124 2091.66,760.667 2099.45,760.667 2099.45,762.687 2107.25,762.687 2107.25,995.9 2115.04,995.9 2115.04,971.019 2122.84,971.019 2122.84,950.055 2130.63,950.055 2130.63,752.032 2138.42,752.032 2138.42,985.167 2146.22,985.167 2146.22,934.299 2154.01,934.299 2154.01,680.094 2161.8,680.094 2161.8,716.876 2169.6,716.876 2169.6,820.571 2177.39,820.571 2177.39,873.254 2185.19,873.254 2185.19,800.14 2192.98,800.14 2192.98,802.697 2200.77,802.697 2200.77,814.094 2208.57,814.094 2208.57,717.871 2216.36,717.871 2216.36,766.429 2224.16,766.429 2224.16,739.186 2231.95,739.186 2231.95,784.645 2239.74,784.645 2239.74,908.181 2247.54,908.181 2247.54,843.18 2255.33,843.18 2255.33,868.754 2263.13,868.754 2263.13,925.895 2270.92,925.895 2270.92,877.667 2278.71,877.667 2278.71,860.889 2286.51,860.889 2286.51,899.616 2294.3,899.616 2294.3,850.94 "/>
<polyline clip-path="url(#clip152)" style="stroke:#808080; stroke-linecap:round; stroke-linejoin:round; stroke-width:6; stroke-opacity:1; fill:none" stroke-dasharray="24, 15" points="345.82,357.716 353.614,357.716 361.408,357.716 369.202,357.716 376.996,357.716 384.79,357.716 392.584,357.716 400.378,357.716 408.172,357.716 415.966,357.716 423.76,357.716 431.554,357.716 439.347,357.716 447.141,357.716 454.935,357.716 462.729,357.716 470.523,357.716 478.317,357.716 486.111,357.716 493.905,357.716 501.699,357.716 509.493,357.716 517.287,357.716 525.081,357.716 532.875,357.716 540.668,357.716 548.462,357.716 556.256,357.716 564.05,357.716 571.844,357.716 579.638,357.716 587.432,357.716 595.226,357.716 603.02,357.716 610.814,357.716 618.608,357.716 626.402,357.716 634.196,357.716 641.989,357.716 649.783,357.716 657.577,357.716 665.371,357.716 673.165,357.716 680.959,357.716 688.753,357.716 696.547,357.716 704.341,357.716 712.135,357.716 719.929,357.716 727.723,357.716 735.517,357.716 743.31,357.716 751.104,357.716 758.898,357.716 766.692,357.716 774.486,357.716 782.28,357.716 790.074,357.716 797.868,357.716 805.662,357.716 813.456,357.716 821.25,357.716 829.044,357.716 836.838,357.716 844.632,357.716 852.425,357.716 860.219,357.716 868.013,357.716 875.807,357.716 883.601,357.716 891.395,357.716 899.189,357.716 906.983,357.716 914.777,357.716 922.571,357.716 930.365,357.716 938.159,357.716 945.953,357.716 953.746,357.716 961.54,357.716 969.334,357.716 977.128,357.716 984.922,357.716 992.716,357.716 1000.51,357.716 1008.3,357.716 1016.1,357.716 1023.89,357.716 1031.69,357.716 1039.48,357.716 1047.27,357.716 1055.07,357.716 1062.86,357.716 1070.66,357.716 1078.45,357.716 1086.24,357.716 1094.04,357.716 1101.83,357.716 1109.62,357.716 1117.42,357.716 1125.21,357.716 1133.01,357.716 1140.8,357.716 1148.59,357.716 1156.39,357.716 1164.18,357.716 1171.98,357.716 1179.77,357.716 1187.56,357.716 1195.36,357.716 1203.15,357.716 1210.95,357.716 1218.74,357.716 1226.53,357.716 1234.33,357.716 1242.12,357.716 1249.92,357.716 1257.71,357.716 1265.5,357.716 1273.3,357.716 1281.09,357.716 1288.89,357.716 1296.68,357.716 1304.47,357.716 1312.27,357.716 1320.06,357.716 1327.85,357.716 1335.65,357.716 1343.44,357.716 1351.24,357.716 1359.03,357.716 1366.82,357.716 1374.62,357.716 1382.41,357.716 1390.21,357.716 1398,357.716 1405.79,357.716 1413.59,357.716 1421.38,357.716 1429.18,357.716 1436.97,357.716 1444.76,357.716 1452.56,357.716 1460.35,357.716 1468.15,357.716 1475.94,357.716 1483.73,357.716 1491.53,357.716 1499.32,357.716 1507.12,357.716 1514.91,357.716 1522.7,357.716 1530.5,357.716 1538.29,357.716 1546.08,357.716 1553.88,357.716 1561.67,357.716 1569.47,357.716 1577.26,357.716 1585.05,357.716 1592.85,357.716 1600.64,357.716 1608.44,357.716 1616.23,357.716 1624.02,357.716 1631.82,357.716 1639.61,357.716 1647.41,357.716 1655.2,357.716 1662.99,357.716 1670.79,357.716 1678.58,357.716 1686.38,357.716 1694.17,357.716 1701.96,357.716 1709.76,357.716 1717.55,357.716 1725.34,357.716 1733.14,357.716 1740.93,357.716 1748.73,357.716 1756.52,357.716 1764.31,357.716 1772.11,357.716 1779.9,357.716 1787.7,357.716 1795.49,357.716 1803.28,357.716 1811.08,357.716 1818.87,357.716 1826.67,357.716 1834.46,357.716 1842.25,357.716 1850.05,357.716 1857.84,357.716 1865.64,357.716 1873.43,357.716 1881.22,357.716 1889.02,357.716 1896.81,357.716 1904.61,357.716 1912.4,357.716 1920.19,357.716 1927.99,357.716 1935.78,357.716 1943.57,357.716 1951.37,357.716 1959.16,357.716 1966.96,357.716 1974.75,357.716 1982.54,357.716 1990.34,357.716 1998.13,357.716 2005.93,357.716 2013.72,357.716 2021.51,357.716 2029.31,357.716 2037.1,357.716 2044.9,357.716 2052.69,357.716 2060.48,357.716 2068.28,357.716 2076.07,357.716 2083.87,357.716 2091.66,357.716 2099.45,357.716 2107.25,357.716 2115.04,357.716 2122.84,357.716 2130.63,357.716 2138.42,357.716 2146.22,357.716 2154.01,357.716 2161.8,357.716 2169.6,357.716 2177.39,357.716 2185.19,357.716 2192.98,357.716 2200.77,357.716 2208.57,357.716 2216.36,357.716 2224.16,357.716 2231.95,357.716 2239.74,357.716 2247.54,357.716 2255.33,357.716 2263.13,357.716 2270.92,357.716 2278.71,357.716 2286.51,357.716 2294.3,357.716 "/>
<polyline clip-path="url(#clip152)" style="stroke:#808080; stroke-linecap:round; stroke-linejoin:round; stroke-width:6; stroke-opacity:1; fill:none" stroke-dasharray="24, 15" points="345.82,1384.24 353.614,1384.24 361.408,1384.24 369.202,1384.24 376.996,1384.24 384.79,1384.24 392.584,1384.24 400.378,1384.24 408.172,1384.24 415.966,1384.24 423.76,1384.24 431.554,1384.24 439.347,1384.24 447.141,1384.24 454.935,1384.24 462.729,1384.24 470.523,1384.24 478.317,1384.24 486.111,1384.24 493.905,1384.24 501.699,1384.24 509.493,1384.24 517.287,1384.24 525.081,1384.24 532.875,1384.24 540.668,1384.24 548.462,1384.24 556.256,1384.24 564.05,1384.24 571.844,1384.24 579.638,1384.24 587.432,1384.24 595.226,1384.24 603.02,1384.24 610.814,1384.24 618.608,1384.24 626.402,1384.24 634.196,1384.24 641.989,1384.24 649.783,1384.24 657.577,1384.24 665.371,1384.24 673.165,1384.24 680.959,1384.24 688.753,1384.24 696.547,1384.24 704.341,1384.24 712.135,1384.24 719.929,1384.24 727.723,1384.24 735.517,1384.24 743.31,1384.24 751.104,1384.24 758.898,1384.24 766.692,1384.24 774.486,1384.24 782.28,1384.24 790.074,1384.24 797.868,1384.24 805.662,1384.24 813.456,1384.24 821.25,1384.24 829.044,1384.24 836.838,1384.24 844.632,1384.24 852.425,1384.24 860.219,1384.24 868.013,1384.24 875.807,1384.24 883.601,1384.24 891.395,1384.24 899.189,1384.24 906.983,1384.24 914.777,1384.24 922.571,1384.24 930.365,1384.24 938.159,1384.24 945.953,1384.24 953.746,1384.24 961.54,1384.24 969.334,1384.24 977.128,1384.24 984.922,1384.24 992.716,1384.24 1000.51,1384.24 1008.3,1384.24 1016.1,1384.24 1023.89,1384.24 1031.69,1384.24 1039.48,1384.24 1047.27,1384.24 1055.07,1384.24 1062.86,1384.24 1070.66,1384.24 1078.45,1384.24 1086.24,1384.24 1094.04,1384.24 1101.83,1384.24 1109.62,1384.24 1117.42,1384.24 1125.21,1384.24 1133.01,1384.24 1140.8,1384.24 1148.59,1384.24 1156.39,1384.24 1164.18,1384.24 1171.98,1384.24 1179.77,1384.24 1187.56,1384.24 1195.36,1384.24 1203.15,1384.24 1210.95,1384.24 1218.74,1384.24 1226.53,1384.24 1234.33,1384.24 1242.12,1384.24 1249.92,1384.24 1257.71,1384.24 1265.5,1384.24 1273.3,1384.24 1281.09,1384.24 1288.89,1384.24 1296.68,1384.24 1304.47,1384.24 1312.27,1384.24 1320.06,1384.24 1327.85,1384.24 1335.65,1384.24 1343.44,1384.24 1351.24,1384.24 1359.03,1384.24 1366.82,1384.24 1374.62,1384.24 1382.41,1384.24 1390.21,1384.24 1398,1384.24 1405.79,1384.24 1413.59,1384.24 1421.38,1384.24 1429.18,1384.24 1436.97,1384.24 1444.76,1384.24 1452.56,1384.24 1460.35,1384.24 1468.15,1384.24 1475.94,1384.24 1483.73,1384.24 1491.53,1384.24 1499.32,1384.24 1507.12,1384.24 1514.91,1384.24 1522.7,1384.24 1530.5,1384.24 1538.29,1384.24 1546.08,1384.24 1553.88,1384.24 1561.67,1384.24 1569.47,1384.24 1577.26,1384.24 1585.05,1384.24 1592.85,1384.24 1600.64,1384.24 1608.44,1384.24 1616.23,1384.24 1624.02,1384.24 1631.82,1384.24 1639.61,1384.24 1647.41,1384.24 1655.2,1384.24 1662.99,1384.24 1670.79,1384.24 1678.58,1384.24 1686.38,1384.24 1694.17,1384.24 1701.96,1384.24 1709.76,1384.24 1717.55,1384.24 1725.34,1384.24 1733.14,1384.24 1740.93,1384.24 1748.73,1384.24 1756.52,1384.24 1764.31,1384.24 1772.11,1384.24 1779.9,1384.24 1787.7,1384.24 1795.49,1384.24 1803.28,1384.24 1811.08,1384.24 1818.87,1384.24 1826.67,1384.24 1834.46,1384.24 1842.25,1384.24 1850.05,1384.24 1857.84,1384.24 1865.64,1384.24 1873.43,1384.24 1881.22,1384.24 1889.02,1384.24 1896.81,1384.24 1904.61,1384.24 1912.4,1384.24 1920.19,1384.24 1927.99,1384.24 1935.78,1384.24 1943.57,1384.24 1951.37,1384.24 1959.16,1384.24 1966.96,1384.24 1974.75,1384.24 1982.54,1384.24 1990.34,1384.24 1998.13,1384.24 2005.93,1384.24 2013.72,1384.24 2021.51,1384.24 2029.31,1384.24 2037.1,1384.24 2044.9,1384.24 2052.69,1384.24 2060.48,1384.24 2068.28,1384.24 2076.07,1384.24 2083.87,1384.24 2091.66,1384.24 2099.45,1384.24 2107.25,1384.24 2115.04,1384.24 2122.84,1384.24 2130.63,1384.24 2138.42,1384.24 2146.22,1384.24 2154.01,1384.24 2161.8,1384.24 2169.6,1384.24 2177.39,1384.24 2185.19,1384.24 2192.98,1384.24 2200.77,1384.24 2208.57,1384.24 2216.36,1384.24 2224.16,1384.24 2231.95,1384.24 2239.74,1384.24 2247.54,1384.24 2255.33,1384.24 2263.13,1384.24 2270.92,1384.24 2278.71,1384.24 2286.51,1384.24 2294.3,1384.24 "/>
<path clip-path="url(#clip150)" d="M1636.63 300.469 L2283.91 300.469 L2283.91 93.1086 L1636.63 93.1086  Z" fill="#f2f2f2" fill-rule="evenodd" fill-opacity="1"/>
<polyline clip-path="url(#clip150)" style="stroke:#000000; stroke-linecap:round; stroke-linejoin:round; stroke-width:4; stroke-opacity:0; fill:none" points="1636.63,300.469 2283.91,300.469 2283.91,93.1086 1636.63,93.1086 1636.63,300.469 "/>
<polyline clip-path="url(#clip150)" style="stroke:#ff0000; stroke-linecap:round; stroke-linejoin:round; stroke-width:8; stroke-opacity:1; fill:none" points="1659.58,144.949 1797.27,144.949 "/>
<path clip-path="url(#clip150)" d="M1836.24 130.84 Q1831.15 130.84 1828.14 134.636 Q1825.15 138.432 1825.15 144.983 Q1825.15 151.511 1828.14 155.307 Q1831.15 159.104 1836.24 159.104 Q1841.33 159.104 1844.3 155.307 Q1847.28 151.511 1847.28 144.983 Q1847.28 138.432 1844.3 134.636 Q1841.33 130.84 1836.24 130.84 M1836.24 127.044 Q1843.51 127.044 1847.86 131.928 Q1852.21 136.789 1852.21 144.983 Q1852.21 153.155 1847.86 158.039 Q1843.51 162.9 1836.24 162.9 Q1828.95 162.9 1824.57 158.039 Q1820.22 153.178 1820.22 144.983 Q1820.22 136.789 1824.57 131.928 Q1828.95 127.044 1836.24 127.044 Z" fill="#000000" fill-rule="nonzero" fill-opacity="1" /><path clip-path="url(#clip150)" d="M1877.95 149.289 Q1877.95 144.59 1876.01 141.928 Q1874.09 139.243 1870.71 139.243 Q1867.33 139.243 1865.38 141.928 Q1863.46 144.59 1863.46 149.289 Q1863.46 153.988 1865.38 156.673 Q1867.33 159.335 1870.71 159.335 Q1874.09 159.335 1876.01 156.673 Q1877.95 153.988 1877.95 149.289 M1863.46 140.238 Q1864.81 137.923 1866.84 136.812 Q1868.9 135.678 1871.75 135.678 Q1876.47 135.678 1879.41 139.428 Q1882.37 143.178 1882.37 149.289 Q1882.37 155.4 1879.41 159.15 Q1876.47 162.9 1871.75 162.9 Q1868.9 162.9 1866.84 161.789 Q1864.81 160.655 1863.46 158.34 L1863.46 162.229 L1859.18 162.229 L1859.18 126.21 L1863.46 126.21 L1863.46 140.238 Z" fill="#000000" fill-rule="nonzero" fill-opacity="1" /><path clip-path="url(#clip150)" d="M1905.96 137.067 L1905.96 141.094 Q1904.16 140.169 1902.21 139.706 Q1900.27 139.243 1898.18 139.243 Q1895.01 139.243 1893.42 140.215 Q1891.84 141.187 1891.84 143.131 Q1891.84 144.613 1892.98 145.469 Q1894.11 146.303 1897.54 147.067 L1899 147.391 Q1903.53 148.363 1905.43 150.145 Q1907.35 151.905 1907.35 155.076 Q1907.35 158.687 1904.48 160.793 Q1901.63 162.9 1896.63 162.9 Q1894.55 162.9 1892.28 162.483 Q1890.04 162.09 1887.54 161.28 L1887.54 156.881 Q1889.9 158.108 1892.19 158.733 Q1894.48 159.335 1896.73 159.335 Q1899.74 159.335 1901.36 158.317 Q1902.98 157.275 1902.98 155.4 Q1902.98 153.664 1901.8 152.738 Q1900.64 151.812 1896.68 150.956 L1895.2 150.608 Q1891.24 149.775 1889.48 148.062 Q1887.72 146.326 1887.72 143.317 Q1887.72 139.659 1890.31 137.669 Q1892.91 135.678 1897.68 135.678 Q1900.04 135.678 1902.12 136.025 Q1904.2 136.372 1905.96 137.067 Z" fill="#000000" fill-rule="nonzero" fill-opacity="1" /><path clip-path="url(#clip150)" d="M1936.31 148.201 L1936.31 150.284 L1916.73 150.284 Q1917 154.682 1919.37 156.997 Q1921.75 159.289 1925.99 159.289 Q1928.44 159.289 1930.73 158.687 Q1933.05 158.085 1935.31 156.881 L1935.31 160.909 Q1933.02 161.881 1930.62 162.391 Q1928.21 162.9 1925.73 162.9 Q1919.53 162.9 1915.89 159.289 Q1912.28 155.678 1912.28 149.52 Q1912.28 143.155 1915.71 139.428 Q1919.16 135.678 1924.99 135.678 Q1930.22 135.678 1933.25 139.057 Q1936.31 142.414 1936.31 148.201 M1932.05 146.951 Q1932 143.456 1930.08 141.372 Q1928.18 139.289 1925.04 139.289 Q1921.47 139.289 1919.32 141.303 Q1917.19 143.317 1916.87 146.974 L1932.05 146.951 Z" fill="#000000" fill-rule="nonzero" fill-opacity="1" /><path clip-path="url(#clip150)" d="M1958.32 140.284 Q1957.61 139.868 1956.75 139.682 Q1955.92 139.474 1954.9 139.474 Q1951.29 139.474 1949.34 141.835 Q1947.42 144.173 1947.42 148.571 L1947.42 162.229 L1943.14 162.229 L1943.14 136.303 L1947.42 136.303 L1947.42 140.331 Q1948.76 137.969 1950.92 136.835 Q1953.07 135.678 1956.15 135.678 Q1956.59 135.678 1957.12 135.747 Q1957.65 135.794 1958.3 135.909 L1958.32 140.284 Z" fill="#000000" fill-rule="nonzero" fill-opacity="1" /><path clip-path="url(#clip150)" d="M1959.74 136.303 L1964.25 136.303 L1972.35 158.062 L1980.45 136.303 L1984.97 136.303 L1975.24 162.229 L1969.46 162.229 L1959.74 136.303 Z" fill="#000000" fill-rule="nonzero" fill-opacity="1" /><path clip-path="url(#clip150)" d="M2013.02 148.201 L2013.02 150.284 L1993.44 150.284 Q1993.72 154.682 1996.08 156.997 Q1998.46 159.289 2002.7 159.289 Q2005.15 159.289 2007.44 158.687 Q2009.76 158.085 2012.03 156.881 L2012.03 160.909 Q2009.74 161.881 2007.33 162.391 Q2004.92 162.9 2002.44 162.9 Q1996.24 162.9 1992.61 159.289 Q1988.99 155.678 1988.99 149.52 Q1988.99 143.155 1992.42 139.428 Q1995.87 135.678 2001.7 135.678 Q2006.93 135.678 2009.97 139.057 Q2013.02 142.414 2013.02 148.201 M2008.76 146.951 Q2008.72 143.456 2006.8 141.372 Q2004.9 139.289 2001.75 139.289 Q1998.18 139.289 1996.03 141.303 Q1993.9 143.317 1993.58 146.974 L2008.76 146.951 Z" fill="#000000" fill-rule="nonzero" fill-opacity="1" /><path clip-path="url(#clip150)" d="M2037.07 140.238 L2037.07 126.21 L2041.33 126.21 L2041.33 162.229 L2037.07 162.229 L2037.07 158.34 Q2035.73 160.655 2033.67 161.789 Q2031.63 162.9 2028.76 162.9 Q2024.06 162.9 2021.1 159.15 Q2018.16 155.4 2018.16 149.289 Q2018.16 143.178 2021.1 139.428 Q2024.06 135.678 2028.76 135.678 Q2031.63 135.678 2033.67 136.812 Q2035.73 137.923 2037.07 140.238 M2022.56 149.289 Q2022.56 153.988 2024.48 156.673 Q2026.43 159.335 2029.8 159.335 Q2033.18 159.335 2035.13 156.673 Q2037.07 153.988 2037.07 149.289 Q2037.07 144.59 2035.13 141.928 Q2033.18 139.243 2029.8 139.243 Q2026.43 139.243 2024.48 141.928 Q2022.56 144.59 2022.56 149.289 Z" fill="#000000" fill-rule="nonzero" fill-opacity="1" /><polyline clip-path="url(#clip150)" style="stroke:#0000ff; stroke-linecap:round; stroke-linejoin:round; stroke-width:8; stroke-opacity:1; fill:none" points="1659.58,196.789 1797.27,196.789 "/>
<path clip-path="url(#clip150)" d="M1842.47 180.643 L1842.47 185.203 Q1839.81 183.93 1837.44 183.305 Q1835.08 182.68 1832.88 182.68 Q1829.06 182.68 1826.98 184.161 Q1824.92 185.643 1824.92 188.374 Q1824.92 190.666 1826.29 191.847 Q1827.68 193.004 1831.52 193.722 L1834.34 194.3 Q1839.57 195.296 1842.05 197.819 Q1844.55 200.319 1844.55 204.532 Q1844.55 209.555 1841.17 212.147 Q1837.81 214.74 1831.31 214.74 Q1828.86 214.74 1826.08 214.184 Q1823.32 213.629 1820.36 212.541 L1820.36 207.726 Q1823.21 209.323 1825.94 210.133 Q1828.67 210.944 1831.31 210.944 Q1835.31 210.944 1837.49 209.37 Q1839.67 207.796 1839.67 204.879 Q1839.67 202.333 1838.09 200.897 Q1836.54 199.462 1832.98 198.745 L1830.13 198.189 Q1824.9 197.147 1822.56 194.925 Q1820.22 192.703 1820.22 188.745 Q1820.22 184.161 1823.44 181.522 Q1826.68 178.884 1832.35 178.884 Q1834.78 178.884 1837.31 179.323 Q1839.83 179.763 1842.47 180.643 Z" fill="#000000" fill-rule="nonzero" fill-opacity="1" /><path clip-path="url(#clip150)" d="M1851.66 188.143 L1855.92 188.143 L1855.92 214.069 L1851.66 214.069 L1851.66 188.143 M1851.66 178.05 L1855.92 178.05 L1855.92 183.444 L1851.66 183.444 L1851.66 178.05 Z" fill="#000000" fill-rule="nonzero" fill-opacity="1" /><path clip-path="url(#clip150)" d="M1885.01 193.12 Q1886.61 190.249 1888.83 188.884 Q1891.06 187.518 1894.06 187.518 Q1898.12 187.518 1900.31 190.365 Q1902.51 193.189 1902.51 198.421 L1902.51 214.069 L1898.23 214.069 L1898.23 198.559 Q1898.23 194.833 1896.91 193.027 Q1895.59 191.222 1892.88 191.222 Q1889.57 191.222 1887.65 193.421 Q1885.73 195.62 1885.73 199.416 L1885.73 214.069 L1881.45 214.069 L1881.45 198.559 Q1881.45 194.809 1880.13 193.027 Q1878.81 191.222 1876.06 191.222 Q1872.79 191.222 1870.87 193.444 Q1868.95 195.643 1868.95 199.416 L1868.95 214.069 L1864.67 214.069 L1864.67 188.143 L1868.95 188.143 L1868.95 192.171 Q1870.41 189.786 1872.44 188.652 Q1874.48 187.518 1877.28 187.518 Q1880.11 187.518 1882.07 188.953 Q1884.06 190.388 1885.01 193.12 Z" fill="#000000" fill-rule="nonzero" fill-opacity="1" /><path clip-path="url(#clip150)" d="M1910.57 203.837 L1910.57 188.143 L1914.83 188.143 L1914.83 203.675 Q1914.83 207.356 1916.26 209.208 Q1917.7 211.036 1920.57 211.036 Q1924.02 211.036 1926.01 208.837 Q1928.02 206.638 1928.02 202.842 L1928.02 188.143 L1932.28 188.143 L1932.28 214.069 L1928.02 214.069 L1928.02 210.087 Q1926.47 212.448 1924.41 213.606 Q1922.37 214.74 1919.67 214.74 Q1915.2 214.74 1912.88 211.962 Q1910.57 209.184 1910.57 203.837 M1921.29 187.518 L1921.29 187.518 Z" fill="#000000" fill-rule="nonzero" fill-opacity="1" /><path clip-path="url(#clip150)" d="M1941.06 178.05 L1945.31 178.05 L1945.31 214.069 L1941.06 214.069 L1941.06 178.05 Z" fill="#000000" fill-rule="nonzero" fill-opacity="1" /><path clip-path="url(#clip150)" d="M1966.01 201.036 Q1960.85 201.036 1958.86 202.217 Q1956.87 203.397 1956.87 206.245 Q1956.87 208.513 1958.35 209.856 Q1959.85 211.175 1962.42 211.175 Q1965.96 211.175 1968.09 208.675 Q1970.24 206.152 1970.24 201.985 L1970.24 201.036 L1966.01 201.036 M1974.5 199.277 L1974.5 214.069 L1970.24 214.069 L1970.24 210.133 Q1968.79 212.495 1966.61 213.629 Q1964.43 214.74 1961.29 214.74 Q1957.31 214.74 1954.94 212.518 Q1952.61 210.272 1952.61 206.522 Q1952.61 202.147 1955.52 199.925 Q1958.46 197.703 1964.27 197.703 L1970.24 197.703 L1970.24 197.286 Q1970.24 194.347 1968.3 192.749 Q1966.38 191.129 1962.88 191.129 Q1960.66 191.129 1958.56 191.661 Q1956.45 192.194 1954.5 193.259 L1954.5 189.323 Q1956.84 188.421 1959.04 187.981 Q1961.24 187.518 1963.32 187.518 Q1968.95 187.518 1971.73 190.434 Q1974.5 193.351 1974.5 199.277 Z" fill="#000000" fill-rule="nonzero" fill-opacity="1" /><path clip-path="url(#clip150)" d="M1987.49 180.782 L1987.49 188.143 L1996.26 188.143 L1996.26 191.453 L1987.49 191.453 L1987.49 205.527 Q1987.49 208.698 1988.35 209.601 Q1989.23 210.504 1991.89 210.504 L1996.26 210.504 L1996.26 214.069 L1991.89 214.069 Q1986.96 214.069 1985.08 212.24 Q1983.21 210.388 1983.21 205.527 L1983.21 191.453 L1980.08 191.453 L1980.08 188.143 L1983.21 188.143 L1983.21 180.782 L1987.49 180.782 Z" fill="#000000" fill-rule="nonzero" fill-opacity="1" /><path clip-path="url(#clip150)" d="M2001.86 188.143 L2006.12 188.143 L2006.12 214.069 L2001.86 214.069 L2001.86 188.143 M2001.86 178.05 L2006.12 178.05 L2006.12 183.444 L2001.86 183.444 L2001.86 178.05 Z" fill="#000000" fill-rule="nonzero" fill-opacity="1" /><path clip-path="url(#clip150)" d="M2025.08 191.129 Q2021.66 191.129 2019.67 193.814 Q2017.68 196.476 2017.68 201.129 Q2017.68 205.782 2019.64 208.467 Q2021.63 211.129 2025.08 211.129 Q2028.49 211.129 2030.48 208.444 Q2032.47 205.758 2032.47 201.129 Q2032.47 196.522 2030.48 193.837 Q2028.49 191.129 2025.08 191.129 M2025.08 187.518 Q2030.64 187.518 2033.81 191.129 Q2036.98 194.74 2036.98 201.129 Q2036.98 207.495 2033.81 211.129 Q2030.64 214.74 2025.08 214.74 Q2019.5 214.74 2016.33 211.129 Q2013.18 207.495 2013.18 201.129 Q2013.18 194.74 2016.33 191.129 Q2019.5 187.518 2025.08 187.518 Z" fill="#000000" fill-rule="nonzero" fill-opacity="1" /><path clip-path="url(#clip150)" d="M2065.59 198.421 L2065.59 214.069 L2061.33 214.069 L2061.33 198.559 Q2061.33 194.879 2059.9 193.05 Q2058.46 191.222 2055.59 191.222 Q2052.14 191.222 2050.15 193.421 Q2048.16 195.62 2048.16 199.416 L2048.16 214.069 L2043.88 214.069 L2043.88 188.143 L2048.16 188.143 L2048.16 192.171 Q2049.69 189.833 2051.75 188.675 Q2053.83 187.518 2056.54 187.518 Q2061.01 187.518 2063.3 190.296 Q2065.59 193.05 2065.59 198.421 Z" fill="#000000" fill-rule="nonzero" fill-opacity="1" /><path clip-path="url(#clip150)" d="M2099.39 178.097 Q2096.29 183.421 2094.78 188.629 Q2093.28 193.837 2093.28 199.184 Q2093.28 204.532 2094.78 209.786 Q2096.31 215.018 2099.39 220.319 L2095.68 220.319 Q2092.21 214.879 2090.48 209.624 Q2088.76 204.37 2088.76 199.184 Q2088.76 194.022 2090.48 188.791 Q2092.19 183.56 2095.68 178.097 L2099.39 178.097 Z" fill="#000000" fill-rule="nonzero" fill-opacity="1" /><path clip-path="url(#clip150)" d="M2107.65 188.143 L2111.91 188.143 L2111.91 214.069 L2107.65 214.069 L2107.65 188.143 M2107.65 178.05 L2111.91 178.05 L2111.91 183.444 L2107.65 183.444 L2107.65 178.05 Z" fill="#000000" fill-rule="nonzero" fill-opacity="1" /><path clip-path="url(#clip150)" d="M2136.45 192.541 L2166.12 192.541 L2166.12 196.43 L2136.45 196.43 L2136.45 192.541 M2136.45 201.985 L2166.12 201.985 L2166.12 205.921 L2136.45 205.921 L2136.45 201.985 Z" fill="#000000" fill-rule="nonzero" fill-opacity="1" /><path clip-path="url(#clip150)" d="M2201.86 194.925 Q2198.72 194.925 2196.86 197.078 Q2195.04 199.231 2195.04 202.981 Q2195.04 206.708 2196.86 208.883 Q2198.72 211.036 2201.86 211.036 Q2205.01 211.036 2206.84 208.883 Q2208.69 206.708 2208.69 202.981 Q2208.69 199.231 2206.84 197.078 Q2205.01 194.925 2201.86 194.925 M2211.15 180.273 L2211.15 184.532 Q2209.39 183.698 2207.58 183.259 Q2205.8 182.819 2204.04 182.819 Q2199.41 182.819 2196.96 185.944 Q2194.53 189.069 2194.18 195.388 Q2195.54 193.374 2197.6 192.309 Q2199.66 191.222 2202.14 191.222 Q2207.35 191.222 2210.36 194.393 Q2213.39 197.541 2213.39 202.981 Q2213.39 208.305 2210.24 211.522 Q2207.1 214.74 2201.86 214.74 Q2195.87 214.74 2192.7 210.157 Q2189.53 205.55 2189.53 196.823 Q2189.53 188.629 2193.41 183.768 Q2197.3 178.884 2203.85 178.884 Q2205.61 178.884 2207.4 179.231 Q2209.2 179.578 2211.15 180.273 Z" fill="#000000" fill-rule="nonzero" fill-opacity="1" /><path clip-path="url(#clip150)" d="M2225.47 210.133 L2241.79 210.133 L2241.79 214.069 L2219.85 214.069 L2219.85 210.133 Q2222.51 207.379 2227.1 202.749 Q2231.7 198.096 2232.88 196.754 Q2235.13 194.231 2236.01 192.495 Q2236.91 190.735 2236.91 189.046 Q2236.91 186.291 2234.97 184.555 Q2233.04 182.819 2229.94 182.819 Q2227.74 182.819 2225.29 183.583 Q2222.86 184.347 2220.08 185.897 L2220.08 181.175 Q2222.91 180.041 2225.36 179.462 Q2227.81 178.884 2229.85 178.884 Q2235.22 178.884 2238.41 181.569 Q2241.61 184.254 2241.61 188.745 Q2241.61 190.874 2240.8 192.796 Q2240.01 194.694 2237.91 197.286 Q2237.33 197.958 2234.22 201.175 Q2231.12 204.37 2225.47 210.133 Z" fill="#000000" fill-rule="nonzero" fill-opacity="1" /><path clip-path="url(#clip150)" d="M2250.34 178.097 L2254.04 178.097 Q2257.51 183.56 2259.22 188.791 Q2260.96 194.022 2260.96 199.184 Q2260.96 204.37 2259.22 209.624 Q2257.51 214.879 2254.04 220.319 L2250.34 220.319 Q2253.41 215.018 2254.92 209.786 Q2256.45 204.532 2256.45 199.184 Q2256.45 193.837 2254.92 188.629 Q2253.41 183.421 2250.34 178.097 Z" fill="#000000" fill-rule="nonzero" fill-opacity="1" /><polyline clip-path="url(#clip150)" style="stroke:#808080; stroke-linecap:round; stroke-linejoin:round; stroke-width:6; stroke-opacity:1; fill:none" stroke-dasharray="24, 15" points="1659.58,248.629 1797.27,248.629 "/>
<path clip-path="url(#clip150)" d="M1822.44 265.191 L1822.44 260.932 Q1824.2 261.765 1826.01 262.205 Q1827.81 262.645 1829.55 262.645 Q1834.18 262.645 1836.61 259.543 Q1839.06 256.418 1839.41 250.075 Q1838.07 252.066 1836.01 253.131 Q1833.95 254.196 1831.45 254.196 Q1826.26 254.196 1823.23 251.071 Q1820.22 247.923 1820.22 242.483 Q1820.22 237.159 1823.37 233.941 Q1826.52 230.724 1831.75 230.724 Q1837.75 230.724 1840.89 235.33 Q1844.06 239.913 1844.06 248.663 Q1844.06 256.835 1840.18 261.719 Q1836.31 266.58 1829.76 266.58 Q1828 266.58 1826.19 266.233 Q1824.39 265.885 1822.44 265.191 M1831.75 250.538 Q1834.9 250.538 1836.73 248.386 Q1838.58 246.233 1838.58 242.483 Q1838.58 238.756 1836.73 236.603 Q1834.9 234.427 1831.75 234.427 Q1828.6 234.427 1826.75 236.603 Q1824.92 238.756 1824.92 242.483 Q1824.92 246.233 1826.75 248.386 Q1828.6 250.538 1831.75 250.538 Z" fill="#000000" fill-rule="nonzero" fill-opacity="1" /><path clip-path="url(#clip150)" d="M1852.51 231.349 L1870.87 231.349 L1870.87 235.284 L1856.8 235.284 L1856.8 243.756 Q1857.81 243.409 1858.83 243.247 Q1859.85 243.062 1860.87 243.062 Q1866.66 243.062 1870.04 246.233 Q1873.42 249.404 1873.42 254.821 Q1873.42 260.399 1869.94 263.501 Q1866.47 266.58 1860.15 266.58 Q1857.98 266.58 1855.71 266.21 Q1853.46 265.839 1851.06 265.098 L1851.06 260.399 Q1853.14 261.534 1855.36 262.089 Q1857.58 262.645 1860.06 262.645 Q1864.06 262.645 1866.4 260.538 Q1868.74 258.432 1868.74 254.821 Q1868.74 251.21 1866.4 249.103 Q1864.06 246.997 1860.06 246.997 Q1858.19 246.997 1856.31 247.413 Q1854.46 247.83 1852.51 248.71 L1852.51 231.349 Z" fill="#000000" fill-rule="nonzero" fill-opacity="1" /><path clip-path="url(#clip150)" d="M1912.03 250.7 Q1910.01 250.7 1908.86 252.413 Q1907.72 254.126 1907.72 257.182 Q1907.72 260.191 1908.86 261.927 Q1910.01 263.64 1912.03 263.64 Q1914 263.64 1915.13 261.927 Q1916.29 260.191 1916.29 257.182 Q1916.29 254.149 1915.13 252.436 Q1914 250.7 1912.03 250.7 M1912.03 247.761 Q1915.68 247.761 1917.84 250.307 Q1919.99 252.853 1919.99 257.182 Q1919.99 261.51 1917.81 264.057 Q1915.66 266.58 1912.03 266.58 Q1908.32 266.58 1906.17 264.057 Q1904.02 261.51 1904.02 257.182 Q1904.02 252.83 1906.17 250.307 Q1908.35 247.761 1912.03 247.761 M1888.14 233.663 Q1886.15 233.663 1884.99 235.4 Q1883.86 237.112 1883.86 240.122 Q1883.86 243.177 1884.99 244.89 Q1886.12 246.603 1888.14 246.603 Q1890.15 246.603 1891.29 244.89 Q1892.44 243.177 1892.44 240.122 Q1892.44 237.136 1891.29 235.4 Q1890.13 233.663 1888.14 233.663 M1909.04 230.724 L1912.75 230.724 L1891.12 266.58 L1887.42 266.58 L1909.04 230.724 M1888.14 230.724 Q1891.8 230.724 1893.97 233.27 Q1896.15 235.793 1896.15 240.122 Q1896.15 244.497 1893.97 247.02 Q1891.82 249.543 1888.14 249.543 Q1884.46 249.543 1882.31 247.02 Q1880.18 244.474 1880.18 240.122 Q1880.18 235.816 1882.33 233.27 Q1884.48 230.724 1888.14 230.724 Z" fill="#000000" fill-rule="nonzero" fill-opacity="1" /><path clip-path="url(#clip150)" d="M1968.21 234.011 L1968.21 238.941 Q1965.85 236.742 1963.16 235.654 Q1960.5 234.566 1957.49 234.566 Q1951.56 234.566 1948.42 238.2 Q1945.27 241.812 1945.27 248.663 Q1945.27 255.492 1948.42 259.126 Q1951.56 262.737 1957.49 262.737 Q1960.5 262.737 1963.16 261.649 Q1965.85 260.561 1968.21 258.362 L1968.21 263.247 Q1965.75 264.913 1963 265.747 Q1960.27 266.58 1957.21 266.58 Q1949.37 266.58 1944.85 261.788 Q1940.34 256.973 1940.34 248.663 Q1940.34 240.33 1944.85 235.538 Q1949.37 230.724 1957.21 230.724 Q1960.31 230.724 1963.05 231.557 Q1965.8 232.367 1968.21 234.011 Z" fill="#000000" fill-rule="nonzero" fill-opacity="1" /><path clip-path="url(#clip150)" d="M1975.43 231.349 L1980.11 231.349 L1980.11 265.909 L1975.43 265.909 L1975.43 231.349 Z" fill="#000000" fill-rule="nonzero" fill-opacity="1" /></svg>
